<svg xmlns="http://www.w3.org/2000/svg" width="357.477" height="13.509" viewBox="0 0 357.477 13.509"><g transform="translate(-2721.319 544.15)"><g transform="translate(2721.319 -544.15)"><path d="M1.46.9H3.234a.256.256,0,0,0,.289-.29V-9.88h.213L15.02.691c.154.135.231.213.405.213h2.238a.256.256,0,0,0,.29-.29V-12.31a.256.256,0,0,0-.072-.217.256.256,0,0,0-.217-.072H15.888a.256.256,0,0,0-.217.072.256.256,0,0,0-.072.217V-1.817h-.213L4.1-12.387c-.154-.135-.231-.213-.405-.213H1.46a.256.256,0,0,0-.217.072.256.256,0,0,0-.072.217V.614A.256.256,0,0,0,1.46.9ZM21.235.9h1.775a.256.256,0,0,0,.29-.29V-5.058H36.084A.256.256,0,0,0,36.3-5.13a.256.256,0,0,0,.072-.217v-1.5a.256.256,0,0,0-.072-.217.256.256,0,0,0-.217-.072H23.3v-3.376H36.277a.256.256,0,0,0,.217-.072.256.256,0,0,0,.072-.217v-1.5a.256.256,0,0,0-.072-.217.256.256,0,0,0-.217-.072H21.232a.256.256,0,0,0-.217.072.256.256,0,0,0-.072.217V.614a.256.256,0,0,0,.29.29Zm18.032-11.42h7.041V.614A.256.256,0,0,0,46.6.9h1.736a.256.256,0,0,0,.29-.29v-11.13h7.041a.256.256,0,0,0,.217-.072.256.256,0,0,0,.072-.217v-1.5a.256.256,0,0,0-.072-.217.256.256,0,0,0-.217-.072h-16.4a.256.256,0,0,0-.217.072.256.256,0,0,0-.072.217v1.5a.256.256,0,0,0,.072.217.256.256,0,0,0,.217.072Z" transform="translate(111.547 12.604)" fill="#c11212"/><path d="M1849.486,20.544l-2.014-2.419a.436.436,0,0,1-.039-.062c.026-.048.064-.035.1-.036h20.818c.068-.066.046-.138.047-.2V15.688c0-.054-.006-.108-.009-.171a1.06,1.06,0,0,0-.124-.02h-18.649a2.926,2.926,0,0,1-.494-.033,1.691,1.691,0,0,1-.867-.441,2.569,2.569,0,0,1-.839-1.667,4.887,4.887,0,0,1-.026-.514V10.481a3.247,3.247,0,0,1,.068-.692,2.546,2.546,0,0,1,.89-1.462,1.714,1.714,0,0,1,1.118-.4h20.746a.9.9,0,0,1,.238.011.161.161,0,0,1,0,.049l-2.033,2.452c-.061,0-.116.009-.171.01h-18.447a.853.853,0,0,0-.3.02,4.876,4.876,0,0,0-.013.612v1.253c0,.206-.007.408.007.626.048.006.086.014.124.016h18.648a3.137,3.137,0,0,1,.472.032,1.664,1.664,0,0,1,.857.415,2.543,2.543,0,0,1,.841,1.467,2.679,2.679,0,0,1,.052.488q.007,1.384,0,2.768a2.562,2.562,0,0,1-.364,1.309,2.5,2.5,0,0,1-.553.656,1.738,1.738,0,0,1-1.151.424h-18.94Z" transform="translate(-1768.223 -7.579)" fill="#c11212"/><path d="M1269.337,8c-.1.163-1.891,2.33-2.083,2.523h-18.779a.679.679,0,0,0-.1.018.3.3,0,0,0-.017.065v2.357a.315.315,0,0,0,.018.069c.037,0,.077.012.116.013h10.074a1.14,1.14,0,0,1,.234.008.106.106,0,0,1,.012.031.033.033,0,0,1-.008.019l-2.036,2.457h-8.12c-.086,0-.176,0-.274,0a.715.715,0,0,0-.018.108v2.32a.513.513,0,0,0,.01.072.73.73,0,0,0,.112.023H1269.3c.026.078-.031.11-.062.148q-.51.618-1.023,1.232l-.8.968c-.048.057-.1.114-.15.175h-18.854a1.886,1.886,0,0,1-1.469-.657,2.646,2.646,0,0,1-.68-1.681v-7.74a2.941,2.941,0,0,1,.209-1.142,2.554,2.554,0,0,1,.643-.917A1.766,1.766,0,0,1,1248.366,8Z" transform="translate(-1192.856 -7.65)" fill="#c11212"/><path d="M673.856,15.52a3.163,3.163,0,0,0,.548.025h.534c.178,0,.368-.008.565.007.007.047.015.086.017.125v4.845c-.064.036-.078-.019-.1-.043q-.567-.677-1.131-1.357c-.254-.306-.505-.613-.764-.914a.42.42,0,0,1-.106-.3V15.794a.555.555,0,0,0-.02-.229.777.777,0,0,0-.1-.016c-.477-.021-14.393-.006-14.565.016a.8.8,0,0,0-.023.111v4.844c-.082.011-.1-.048-.135-.086q-.547-.653-1.088-1.309c-.257-.31-.514-.623-.776-.93a.4.4,0,0,1-.1-.278V15.586a.291.291,0,0,0-.21-.039h-1.582a.981.981,0,0,0-.123,0,.3.3,0,0,1-.3-.134c-.375-.463-.759-.918-1.141-1.375l-.709-.852c-.033-.04-.08-.074-.083-.129.01-.014.013-.02.018-.023a.049.049,0,0,1,.02,0h20.87l.032-.01a.55.55,0,0,0,.022-.109V10.642a.9.9,0,0,0-.013-.1.821.821,0,0,0-.1-.019H654.8a.693.693,0,0,1-.283-.022c-.08-.039-.134-.131-.2-.2q-.881-1.058-1.759-2.117l-.106-.144c.025-.052.063-.039.1-.043H673.3a3.036,3.036,0,0,1,.45.027,1.687,1.687,0,0,1,.876.421,2.556,2.556,0,0,1,.851,1.53,3.334,3.334,0,0,1,.042.531v2.571a2.909,2.909,0,0,1-.129.869,2.562,2.562,0,0,1-.7,1.118,2.118,2.118,0,0,1-.834.466Z" transform="translate(-624.501 -7.628)" fill="#c11212"/><path d="M0,13.456c.081-.055.139-.1.2-.137l3.461-2.21L20.862.134a.913.913,0,0,0,.081-.055.472.472,0,0,1,.307-.093h3.765c.061,0,.122.006.189.009.008.049.018.088.021.129s0,.1,0,.144V13.2a1.169,1.169,0,0,1-.012.257c-.166.026-2.768.031-3,.007a.915.915,0,0,1-.02-.113V8.284c0-.081,0-.161-.006-.253-.066-.006-.119-.015-.171-.015L20.04,8.009,18.169,8a1.819,1.819,0,0,1-.19-.008c.054-.055.083-.09.117-.118l1.795-1.5c.343-.286.685-.57,1.022-.857a.386.386,0,0,1,.278-.1c.253.007.507,0,.76,0,.067,0,.135,0,.215-.006a.683.683,0,0,0,.024-.122V1.856c-.056-.064-.115-.047-.167-.048a.771.771,0,0,0-.647.184L3.9,13.331a.632.632,0,0,1-.514.149H.242A.583.583,0,0,1,0,13.456Z" transform="translate(0 0.018)" fill="#c11212"/></g><path d="M-83.3.837h10.266c2.366,0,3.4-1.259,3.4-3.454v-.5a.272.272,0,0,0-.305-.305h-2a.272.272,0,0,0-.305.305v.286c0,1.011-.382,1.355-1.317,1.355h-9.14c-.935,0-1.488-.363-1.488-1.355V-9.008c0-.992.553-1.355,1.488-1.355h9.14c.935,0,1.317.363,1.317,1.355v.744a.272.272,0,0,0,.305.305h2a.272.272,0,0,0,.305-.305V-9.2c0-2.194-1.03-3.473-3.4-3.473H-83.3c-2.366,0-3.53,1.278-3.53,3.473v6.564C-86.832-.441-85.668.837-83.3.837Zm19.386,0h10.132c2.366,0,3.53-1.278,3.53-3.473V-9.2c0-2.194-1.164-3.473-3.53-3.473H-63.916c-2.366,0-3.53,1.278-3.53,3.473v6.564C-67.446-.441-66.282.837-63.916.837Zm-.9-3.664V-9.008c0-.992.553-1.355,1.488-1.355h8.949c.954,0,1.507.363,1.507,1.355v6.182c0,.992-.553,1.355-1.507,1.355h-8.949C-64.259-1.471-64.812-1.834-64.812-2.826ZM-47.582.761h2.042a.267.267,0,0,0,.305-.286V-9.142h.191l5.9,9.617a.471.471,0,0,0,.439.286h1.794a.471.471,0,0,0,.439-.286l5.9-9.617h.191V.475a.267.267,0,0,0,.305.286h2.042a.253.253,0,0,0,.286-.286V-12.309a.253.253,0,0,0-.286-.286H-31.1c-.191,0-.286.1-.4.286L-37.7-2.235h-.229l-6.2-10.075c-.114-.191-.21-.286-.4-.286h-3.053a.253.253,0,0,0-.286.286V.475A.253.253,0,0,0-47.582.761Zm22.592,0h2.042a.267.267,0,0,0,.305-.286V-12.309a.267.267,0,0,0-.305-.286H-24.99a.253.253,0,0,0-.286.286V.475A.253.253,0,0,0-24.99.761Zm5.114,0h2.042A.267.267,0,0,0-17.53.475v-10h.229L-6.6.551c.153.134.229.21.42.21h2.461A.267.267,0,0,0-3.41.475V-12.309a.267.267,0,0,0-.305-.286H-5.757a.253.253,0,0,0-.286.286v10h-.229l-10.7-10.075c-.172-.134-.248-.21-.42-.21h-2.481a.253.253,0,0,0-.286.286V.475A.253.253,0,0,0-19.877.761ZM2.505.837H12.752c2.366,0,3.416-1.278,3.416-3.473V-5.841a.362.362,0,0,0-.4-.4H8.211a.368.368,0,0,0-.42.4v1.507a.368.368,0,0,0,.42.4h5.343v1.107c0,.992-.439,1.355-1.374,1.355H3.1c-.935,0-1.488-.363-1.488-1.355V-9.008c0-.992.553-1.355,1.488-1.355h9.1c.935,0,1.317.363,1.317,1.355v.744a.272.272,0,0,0,.305.305h2a.272.272,0,0,0,.305-.305V-9.2c0-2.194-1.03-3.473-3.4-3.473H2.505c-2.366,0-3.53,1.278-3.53,3.473v6.564C-1.025-.441.139.837,2.505.837Zm23.412,0h9.1c2.69,0,4.045-1.088,4.045-3.721,0-2.347-1.221-3.721-4.007-3.873l-8.625-.458c-1.374-.076-1.679-.8-1.679-1.679,0-1.049.553-1.469,1.622-1.469h8.357c.82,0,1.336.343,1.469,1.03a.438.438,0,0,0,.477.42h1.66a.388.388,0,0,0,.439-.42c0-2.118-1.088-3.339-3.759-3.339H26.242c-2.71,0-4.064,1.088-4.064,3.7,0,2.366,1.24,3.721,4.007,3.873l8.644.477c1.355.076,1.66.782,1.66,1.679,0,1.049-.553,1.469-1.622,1.469H26.223c-.84,0-1.336-.343-1.469-1.049a.435.435,0,0,0-.477-.4h-1.66c-.286,0-.439.134-.439.4C22.178-.384,23.266.837,25.918.837Zm18.967,0H55.016c2.366,0,3.53-1.278,3.53-3.473V-9.2c0-2.194-1.164-3.473-3.53-3.473H44.884c-2.366,0-3.53,1.278-3.53,3.473v6.564C41.354-.441,42.518.837,44.884.837Zm-.9-3.664V-9.008c0-.992.553-1.355,1.488-1.355h8.949c.954,0,1.507.363,1.507,1.355v6.182c0,.992-.553,1.355-1.507,1.355H45.476C44.541-1.471,43.988-1.834,43.988-2.826ZM64.366.837H74.5c2.366,0,3.53-1.278,3.53-3.473V-9.2c0-2.194-1.164-3.473-3.53-3.473H64.366c-2.366,0-3.53,1.278-3.53,3.473v6.564C60.836-.441,62,.837,64.366.837Zm-.9-3.664V-9.008c0-.992.553-1.355,1.488-1.355h8.949c.954,0,1.507.363,1.507,1.355v6.182c0,.992-.553,1.355-1.507,1.355H64.958C64.023-1.471,63.469-1.834,63.469-2.826ZM80.7.761h2.042a.267.267,0,0,0,.305-.286v-10h.229L93.98.551c.153.134.229.21.42.21h2.461a.267.267,0,0,0,.305-.286V-12.309a.267.267,0,0,0-.305-.286H94.819a.253.253,0,0,0-.286.286v10H94.3L83.6-12.386c-.172-.134-.248-.21-.42-.21H80.7a.253.253,0,0,0-.286.286V.475A.253.253,0,0,0,80.7.761Z" transform="translate(2981.629 -531.478)" fill="#c11212"/></g></svg>