<svg xmlns="http://www.w3.org/2000/svg" width="580.4" height="27.722" viewBox="0 0 580.4 27.722"><g transform="translate(-668.398 -222.045)"><g transform="translate(1032.396 924.09)"><g transform="translate(-363.997 -702.045)"><path d="M1851.7,33.838l-4.135-4.967a.9.9,0,0,1-.079-.127c.054-.1.132-.071.2-.074h42.743c.142-.142.094-.283.095-.425V23.853c0-.112-.013-.221-.018-.351a2.153,2.153,0,0,0-.254-.041h-38.288a6.01,6.01,0,0,1-1.016-.067,3.474,3.474,0,0,1-1.78-.905,5.274,5.274,0,0,1-1.723-3.422,10.088,10.088,0,0,1-.052-1.055V13.176a6.668,6.668,0,0,1,.142-1.416,5.229,5.229,0,0,1,1.827-3,3.518,3.518,0,0,1,2.295-.826h42.594a1.853,1.853,0,0,1,.489.023.313.313,0,0,1-.01.1l-4.174,5.034c-.126,0-.238.018-.351.02h-37.875a1.754,1.754,0,0,0-.609.041,9.989,9.989,0,0,0-.026,1.256v2.572c0,.425-.014.839.014,1.285.1.013.177.028.257.033h38.286a6.441,6.441,0,0,1,.969.065,3.419,3.419,0,0,1,1.76.85,5.221,5.221,0,0,1,1.727,3.013,5.468,5.468,0,0,1,.1,1q.014,2.841,0,5.684a5.256,5.256,0,0,1-.747,2.691,5.134,5.134,0,0,1-1.133,1.347,3.569,3.569,0,0,1-2.363.871h-38.887Z" transform="translate(-1684.849 -7.227)" fill="#dcb533"/><path d="M1293.643,8c-.2.334-3.881,4.785-4.278,5.18H1250.81a1.394,1.394,0,0,0-.2.037.616.616,0,0,0-.034.135v4.84a.631.631,0,0,0,.037.142c.076,0,.158.024.238.027h20.68a2.341,2.341,0,0,1,.482.016.207.207,0,0,1,.024.062.066.066,0,0,1-.017.038l-4.18,5.045h-16.673c-.177,0-.361,0-.567.01a1.5,1.5,0,0,0-.037.221v4.762a1.107,1.107,0,0,0,.02.142,1.483,1.483,0,0,0,.229.047h42.748c.052.16-.062.225-.127.3q-1.048,1.275-2.1,2.53l-1.64,1.983c-.1.118-.2.234-.309.36h-38.71a3.873,3.873,0,0,1-3.017-1.348,5.434,5.434,0,0,1-1.4-3.45V13.2a6.038,6.038,0,0,1,.425-2.344A5.238,5.238,0,0,1,1248,8.975,3.625,3.625,0,0,1,1250.583,8Z" transform="translate(-1136.616 -7.29)" fill="#dcb533"/><path d="M696.392,23.456a6.494,6.494,0,0,0,1.125.051h1.1c.365,0,.755-.016,1.159.014a2.551,2.551,0,0,1,.034.256v9.948c-.132.074-.16-.038-.2-.088q-1.163-1.391-2.323-2.785c-.521-.627-1.037-1.259-1.569-1.875a.863.863,0,0,1-.217-.609V24.014a1.131,1.131,0,0,0-.041-.47,1.592,1.592,0,0,0-.2-.033c-.979-.042-29.551-.013-29.9.033a1.6,1.6,0,0,0-.047.228v9.945c-.169.023-.2-.1-.283-.177q-1.123-1.34-2.232-2.691c-.528-.637-1.055-1.275-1.594-1.911a.812.812,0,0,1-.2-.567V23.589a.6.6,0,0,0-.425-.079h-3.248a2.013,2.013,0,0,0-.252,0,.623.623,0,0,1-.609-.276c-.769-.95-1.558-1.884-2.343-2.824l-1.452-1.746c-.067-.081-.164-.152-.17-.263.02-.028.027-.041.037-.047a.1.1,0,0,1,.041,0h42.85l.065-.02a1.12,1.12,0,0,0,.045-.224V13.434a1.824,1.824,0,0,0-.027-.215,1.689,1.689,0,0,0-.214-.038H657.274a1.416,1.416,0,0,1-.581-.045,1.518,1.518,0,0,1-.407-.425q-1.809-2.173-3.612-4.346l-.217-.3c.051-.108.13-.079.2-.088H695.25a6.234,6.234,0,0,1,.924.055,3.464,3.464,0,0,1,1.8.865,5.241,5.241,0,0,1,1.748,3.14,6.843,6.843,0,0,1,.088,1.091v5.286a5.975,5.975,0,0,1-.263,1.785,5.259,5.259,0,0,1-1.439,2.3,4.349,4.349,0,0,1-1.714.956Z" transform="translate(-595.06 -7.259)" fill="#dcb533"/><path d="M0,27.642c.167-.113.283-.2.407-.283l7.1-4.533L42.833.289A1.875,1.875,0,0,0,43,.176a.969.969,0,0,1,.626-.19H51.36c.126,0,.249.013.388.018.016.1.037.181.042.263s0,.2,0,.3V27.118a2.4,2.4,0,0,1-.024.528c-.341.052-5.684.062-6.166.014a1.878,1.878,0,0,1-.041-.231V17.023c0-.167,0-.331-.013-.52-.142-.013-.244-.03-.351-.03l-4.052-.014L37.3,16.447a3.733,3.733,0,0,1-.39-.016c.112-.113.17-.184.239-.242L40.835,13.1c.708-.586,1.407-1.17,2.1-1.761a.792.792,0,0,1,.567-.2c.52.014,1.041,0,1.558,0,.142,0,.283,0,.441-.013a1.4,1.4,0,0,0,.048-.249q0-.567,0-1.133V3.831c-.116-.132-.235-.1-.343-.1a1.584,1.584,0,0,0-1.327.378L8.01,27.386a1.3,1.3,0,0,1-1.055.306H.5a1.2,1.2,0,0,1-.5-.05Z" transform="translate(0 0.015)" fill="#dcb533"/></g></g><path d="M9.065.148H28.9C33.485.148,35.52-2.22,35.52-6.4v-.851a.491.491,0,0,0-.555-.555h-3.4a.491.491,0,0,0-.555.555v.481c0,2.109-.888,2.923-3.034,2.923H10.027c-2.146,0-3.293-.851-3.293-3.071V-18.981c0-2.22,1.147-3.071,3.293-3.071H27.972c2.146,0,3.034.851,3.034,3.071v1.221a.491.491,0,0,0,.555.555h3.4a.491.491,0,0,0,.555-.555v-1.591c0-4.292-2.035-6.7-6.623-6.7H9.065c-4.588,0-6.845,2.405-6.845,6.7v12.8C2.22-2.257,4.477.148,9.065.148ZM40.515,0H69.56a.491.491,0,0,0,.555-.555V-3.441A.491.491,0,0,0,69.56-4H44.474V-25.345a.491.491,0,0,0-.555-.555h-3.4a.491.491,0,0,0-.555.555V-.555A.491.491,0,0,0,40.515,0ZM94.091-25.9H90.317c-.37,0-.555.222-.777.592L73.556-.7c-.3.444-.037.7.333.7h4.033c.407,0,.592-.222.851-.629l2.479-3.848h21.9l2.479,3.848c.259.407.444.629.851.629h4.033c.37,0,.629-.259.333-.7L94.868-25.308C94.646-25.678,94.461-25.9,94.091-25.9ZM83.768-8.362l8.214-12.765h.444L100.64-8.362ZM115.4,0h3.4a.491.491,0,0,0,.555-.555v-24.79a.491.491,0,0,0-.555-.555h-3.4a.491.491,0,0,0-.555.555V-.555A.491.491,0,0,0,115.4,0Zm9.324,0h3.4a.491.491,0,0,0,.555-.555v-19.5h.37l11.988,19.5a.9.9,0,0,0,.814.555h3.108a.9.9,0,0,0,.814-.555l11.988-19.5h.37v19.5a.491.491,0,0,0,.555.555h3.4a.491.491,0,0,0,.555-.555v-24.79a.491.491,0,0,0-.555-.555H156.88c-.37,0-.555.185-.777.555L143.634-5.106h-.444L130.721-25.345c-.222-.37-.407-.555-.777-.555h-5.217a.491.491,0,0,0-.555.555V-.555A.491.491,0,0,0,124.727,0Zm50.69,0h3.4a.491.491,0,0,0,.555-.555v-19.5h.37l11.988,19.5a.9.9,0,0,0,.814.555h3.108a.9.9,0,0,0,.814-.555l11.988-19.5h.37v19.5a.491.491,0,0,0,.555.555h3.4a.491.491,0,0,0,.555-.555v-24.79a.491.491,0,0,0-.555-.555H207.57c-.37,0-.555.185-.777.555L194.324-5.106h-.444L181.411-25.345c-.222-.37-.407-.555-.777-.555h-5.217a.491.491,0,0,0-.555.555V-.555A.491.491,0,0,0,175.417,0Zm43.29,0h29.045a.491.491,0,0,0,.555-.555V-3.441A.491.491,0,0,0,247.752-4H222.666v-6.956H247.2a.491.491,0,0,0,.555-.555v-2.886a.491.491,0,0,0-.555-.555H222.666V-21.9h24.9a.491.491,0,0,0,.555-.555v-2.886a.491.491,0,0,0-.555-.555h-28.86a.491.491,0,0,0-.555.555V-.555A.491.491,0,0,0,218.707,0Zm34.6,0h3.4a.491.491,0,0,0,.555-.555V-7.03h17.834l4.366,6.475a1,1,0,0,0,.888.555h3.145c.555,0,.925-.37.592-.851l-4.292-6.512c2.738-.777,4.033-3,4.033-6.364V-19.2c0-4.292-2.072-6.7-6.66-6.7H253.3a.491.491,0,0,0-.555.555V-.555A.491.491,0,0,0,253.3,0Zm3.959-11.026V-21.9H276.2c2.146,0,3.108.851,3.108,3.071V-14.1c0,2.22-.962,3.071-3.108,3.071ZM295.482.148h19.832c4.588,0,6.623-2.368,6.623-6.549v-.851a.491.491,0,0,0-.555-.555h-3.4a.491.491,0,0,0-.555.555v.481c0,2.109-.888,2.923-3.034,2.923H296.444c-2.146,0-3.293-.851-3.293-3.071V-18.981c0-2.22,1.147-3.071,3.293-3.071h17.945c2.146,0,3.034.851,3.034,3.071v1.221a.491.491,0,0,0,.555.555h3.4a.491.491,0,0,0,.555-.555v-1.591c0-4.292-2.035-6.7-6.623-6.7H295.482c-4.588,0-6.845,2.405-6.845,6.7v12.8C288.637-2.257,290.894.148,295.482.148ZM326.932,0h3.4a.491.491,0,0,0,.555-.555v-10.4h22.792v10.4a.491.491,0,0,0,.555.555h3.4a.491.491,0,0,0,.555-.555v-24.79a.491.491,0,0,0-.555-.555h-3.4a.491.491,0,0,0-.555.555v10.4H330.891v-10.4a.491.491,0,0,0-.555-.555h-3.4a.491.491,0,0,0-.555.555V-.555A.491.491,0,0,0,326.932,0Z" transform="translate(890.602 249)" fill="#dcb533"/></g></svg>