<svg xmlns="http://www.w3.org/2000/svg" width="577.959" height="21.842" viewBox="0 0 577.959 21.842"><g transform="translate(-2721.319 544.15)"><g transform="translate(2721.319 -544.15)"><path d="M1.64,9.234H4.509a.414.414,0,0,0,.467-.468V-8.2H5.32L23.564,8.89c.249.219.374.344.655.344h3.618a.414.414,0,0,0,.468-.468V-12.129a.414.414,0,0,0-.117-.351.414.414,0,0,0-.351-.117H24.968a.414.414,0,0,0-.351.117.414.414,0,0,0-.117.351V4.836h-.344L5.911-12.254c-.249-.219-.374-.344-.655-.344H1.64a.414.414,0,0,0-.351.117.414.414,0,0,0-.117.351V8.765a.414.414,0,0,0,.468.468Zm31.971,0h2.869a.414.414,0,0,0,.468-.468V-.4H57.62a.414.414,0,0,0,.351-.117.414.414,0,0,0,.117-.351V-3.3a.414.414,0,0,0-.117-.351.414.414,0,0,0-.351-.117H36.943V-9.23H57.932a.414.414,0,0,0,.351-.117A.414.414,0,0,0,58.4-9.7v-2.433a.414.414,0,0,0-.117-.351.414.414,0,0,0-.351-.117H33.607a.414.414,0,0,0-.351.117.414.414,0,0,0-.117.351v20.9a.414.414,0,0,0,.468.468ZM62.765-9.23H74.148v18a.414.414,0,0,0,.468.468h2.807a.414.414,0,0,0,.468-.468v-18H89.275a.414.414,0,0,0,.351-.117.414.414,0,0,0,.117-.351v-2.433a.414.414,0,0,0-.117-.351.414.414,0,0,0-.351-.117H62.765a.414.414,0,0,0-.351.117.414.414,0,0,0-.117.351V-9.7a.414.414,0,0,0,.117.351.414.414,0,0,0,.351.117Z" transform="translate(181.066 12.604)" fill="#dcb533"/><path d="M1850.78,28.33l-3.256-3.912a.7.7,0,0,1-.063-.1c.042-.078.1-.056.16-.058h33.658c.11-.107.074-.224.075-.329V20.478c0-.088-.01-.174-.015-.277a1.709,1.709,0,0,0-.2-.032h-30.151a4.732,4.732,0,0,1-.8-.053,2.735,2.735,0,0,1-1.4-.713,4.154,4.154,0,0,1-1.357-2.7,7.91,7.91,0,0,1-.042-.831V12.06a5.253,5.253,0,0,1,.11-1.119,4.117,4.117,0,0,1,1.439-2.364,2.771,2.771,0,0,1,1.807-.651h33.541a1.459,1.459,0,0,1,.385.018.263.263,0,0,1-.008.08l-3.287,3.964c-.1,0-.187.014-.276.016h-29.825a1.38,1.38,0,0,0-.479.032,7.873,7.873,0,0,0-.02.989v2.025c0,.333-.011.66.011,1.012.078.01.139.022.2.026h30.149a5.071,5.071,0,0,1,.763.051,2.69,2.69,0,0,1,1.386.671,4.112,4.112,0,0,1,1.36,2.372,4.343,4.343,0,0,1,.083.79q.011,2.238,0,4.476a4.14,4.14,0,0,1-.588,2.117,4.041,4.041,0,0,1-.894,1.061,2.809,2.809,0,0,1-1.86.686h-30.622Z" transform="translate(-1719.395 -7.369)" fill="#dcb533"/><path d="M1283.57,8c-.16.264-3.057,3.768-3.368,4.08h-30.362a1.1,1.1,0,0,0-.16.029.478.478,0,0,0-.027.106v3.811a.513.513,0,0,0,.029.112c.061,0,.125.019.187.021h16.288a1.844,1.844,0,0,1,.379.013.161.161,0,0,1,.019.05.052.052,0,0,1-.013.03l-3.291,3.973h-13.129c-.139,0-.285,0-.443.008a1.184,1.184,0,0,0-.029.174v3.75a.835.835,0,0,0,.016.117,1.174,1.174,0,0,0,.181.037h33.663c.042.126-.05.177-.1.24q-.825,1-1.655,1.992l-1.292,1.565c-.078.093-.16.184-.243.283h-30.483a3.049,3.049,0,0,1-2.375-1.061,4.278,4.278,0,0,1-1.1-2.718V12.1a4.755,4.755,0,0,1,.338-1.846,4.126,4.126,0,0,1,1.039-1.482A2.855,2.855,0,0,1,1249.665,8Z" transform="translate(-1159.918 -7.434)" fill="#dcb533"/><path d="M687.054,20.166a5.114,5.114,0,0,0,.886.04h.863c.288,0,.595-.013.913.011.011.077.024.139.027.2v7.833c-.1.058-.126-.03-.16-.069q-.916-1.1-1.829-2.193c-.411-.494-.817-.991-1.236-1.477a.68.68,0,0,1-.171-.48V20.609a.9.9,0,0,0-.032-.371,1.254,1.254,0,0,0-.16-.026c-.771-.034-23.271-.01-23.549.026a1.276,1.276,0,0,0-.037.179v7.831c-.133.018-.16-.078-.219-.139q-.884-1.055-1.758-2.117c-.416-.5-.831-1.007-1.255-1.5a.639.639,0,0,1-.16-.449V20.273a.47.47,0,0,0-.339-.062h-2.558a1.585,1.585,0,0,0-.2,0,.491.491,0,0,1-.48-.217c-.606-.748-1.228-1.484-1.845-2.224l-1.146-1.378c-.053-.064-.129-.12-.134-.208.016-.022.021-.032.029-.037a.08.08,0,0,1,.032,0h33.743l.051-.016a.89.89,0,0,0,.035-.176V12.279a1.45,1.45,0,0,0-.021-.169,1.33,1.33,0,0,0-.168-.03H656.25a1.12,1.12,0,0,1-.457-.035c-.129-.062-.217-.213-.32-.331Q654.049,10,652.629,8.29l-.171-.233c.04-.085.1-.062.16-.069h33.538a4.909,4.909,0,0,1,.727.043,2.727,2.727,0,0,1,1.416.681,4.132,4.132,0,0,1,1.376,2.473,5.4,5.4,0,0,1,.069.858V16.2a4.705,4.705,0,0,1-.208,1.405,4.142,4.142,0,0,1-1.133,1.808,3.425,3.425,0,0,1-1.349.753Z" transform="translate(-607.258 -7.406)" fill="#dcb533"/><path d="M0,21.764c.131-.09.225-.16.32-.222l5.6-3.573L33.73.226a1.476,1.476,0,0,0,.131-.09.763.763,0,0,1,.5-.15h6.087c.1,0,.2.01.305.014.013.08.029.142.034.208s0,.16,0,.233V21.351a1.89,1.89,0,0,1-.019.416c-.269.042-4.476.05-4.855.011a1.478,1.478,0,0,1-.032-.182V13.4c0-.131,0-.261-.01-.409-.107-.01-.192-.024-.277-.024L32.4,12.957l-3.024-.01a2.941,2.941,0,0,1-.307-.013c.088-.09.134-.145.189-.19l2.9-2.433c.555-.462,1.108-.921,1.653-1.386a.623.623,0,0,1,.449-.16c.409.011.82,0,1.229,0,.109,0,.219,0,.347-.01a1.1,1.1,0,0,0,.038-.2V3.009c-.091-.1-.185-.077-.27-.078a1.247,1.247,0,0,0-1.045.3L6.308,21.562a1.021,1.021,0,0,1-.831.241H.392A.943.943,0,0,1,0,21.764Z" transform="translate(0 0.021)" fill="#dcb533"/></g><path d="M-81.125,9.17h16.6c3.825,0,5.491-2.036,5.491-5.584v-.8a.44.44,0,0,0-.494-.494h-3.239a.44.44,0,0,0-.494.494v.463c0,1.635-.617,2.19-2.129,2.19H-80.168c-1.512,0-2.406-.586-2.406-2.19v-10c0-1.6.895-2.19,2.406-2.19h14.777c1.512,0,2.129.586,2.129,2.19v1.2a.44.44,0,0,0,.494.494h3.239a.44.44,0,0,0,.494-.494V-7.057c0-3.548-1.666-5.615-5.491-5.615h-16.6c-3.825,0-5.707,2.067-5.707,5.615V3.555C-86.832,7.1-84.95,9.17-81.125,9.17Zm31.343,0H-33.4c3.825,0,5.707-2.067,5.707-5.615V-7.057c0-3.548-1.882-5.615-5.707-5.615H-49.781c-3.825,0-5.707,2.067-5.707,5.615V3.555C-55.489,7.1-53.607,9.17-49.781,9.17Zm-1.45-5.923v-10c0-1.6.895-2.19,2.406-2.19h14.469c1.542,0,2.437.586,2.437,2.19v10c0,1.6-.895,2.19-2.437,2.19H-48.825C-50.337,5.437-51.231,4.851-51.231,3.246Zm27.857,5.8h3.3a.432.432,0,0,0,.494-.463V-6.965h.309L-9.739,8.583a.762.762,0,0,0,.71.463h2.9a.762.762,0,0,0,.71-.463L4.113-6.965h.308V8.583a.432.432,0,0,0,.494.463h3.3a.409.409,0,0,0,.463-.463V-12.086a.409.409,0,0,0-.463-.463H3.28c-.308,0-.463.154-.648.463L-7.394,4.2h-.37L-17.79-12.086c-.185-.308-.339-.463-.648-.463h-4.936a.409.409,0,0,0-.463.463V8.583A.409.409,0,0,0-23.374,9.046Zm36.526,0h3.3a.432.432,0,0,0,.494-.463V-12.086a.432.432,0,0,0-.494-.463h-3.3a.409.409,0,0,0-.463.463V8.583A.409.409,0,0,0,13.152,9.046Zm8.268,0h3.3a.432.432,0,0,0,.494-.463V-7.582h.37L42.891,8.707c.247.216.37.339.679.339h3.98a.432.432,0,0,0,.494-.463V-12.086a.432.432,0,0,0-.494-.463h-3.3a.409.409,0,0,0-.463.463V4.079h-.37L26.109-12.209c-.278-.216-.4-.339-.679-.339H21.42a.409.409,0,0,0-.463.463V8.583A.409.409,0,0,0,21.42,9.046Zm36.187.123H74.173C78,9.17,79.695,7.1,79.695,3.555V-1.628a.585.585,0,0,0-.648-.648H66.83a.6.6,0,0,0-.679.648V.809a.6.6,0,0,0,.679.648h8.638V3.246c0,1.6-.71,2.19-2.221,2.19H58.563c-1.512,0-2.406-.586-2.406-2.19v-10c0-1.6.895-2.19,2.406-2.19H73.278c1.512,0,2.129.586,2.129,2.19v1.2a.44.44,0,0,0,.494.494h3.239a.44.44,0,0,0,.494-.494V-7.057c0-3.548-1.666-5.615-5.491-5.615H57.606c-3.825,0-5.707,2.067-5.707,5.615V3.555C51.9,7.1,53.781,9.17,57.606,9.17Zm37.853,0h14.715c4.35,0,6.54-1.758,6.54-6.016,0-3.795-1.974-6.016-6.478-6.262l-13.944-.74c-2.221-.123-2.715-1.3-2.715-2.715,0-1.7.895-2.375,2.622-2.375h13.512c1.327,0,2.159.555,2.375,1.666a.708.708,0,0,0,.771.679h2.684a.627.627,0,0,0,.71-.679c0-3.424-1.758-5.4-6.077-5.4H95.983c-4.381,0-6.571,1.758-6.571,5.985,0,3.825,2.005,6.016,6.478,6.262l13.975.771c2.19.123,2.684,1.265,2.684,2.715,0,1.7-.895,2.375-2.622,2.375H95.953c-1.357,0-2.159-.555-2.375-1.7a.7.7,0,0,0-.771-.648H90.122c-.463,0-.71.216-.71.648C89.412,7.2,91.171,9.17,95.459,9.17Zm30.665,0H142.5c3.825,0,5.707-2.067,5.707-5.615V-7.057c0-3.548-1.882-5.615-5.707-5.615H126.124c-3.825,0-5.707,2.067-5.707,5.615V3.555C120.416,7.1,122.3,9.17,126.124,9.17Zm-1.45-5.923v-10c0-1.6.895-2.19,2.406-2.19h14.469c1.542,0,2.437.586,2.437,2.19v10c0,1.6-.895,2.19-2.437,2.19H127.08C125.568,5.437,124.674,4.851,124.674,3.246ZM157.621,9.17H174c3.825,0,5.707-2.067,5.707-5.615V-7.057c0-3.548-1.882-5.615-5.707-5.615H157.621c-3.825,0-5.707,2.067-5.707,5.615V3.555C151.914,7.1,153.8,9.17,157.621,9.17Zm-1.45-5.923v-10c0-1.6.895-2.19,2.406-2.19h14.469c1.542,0,2.437.586,2.437,2.19v10c0,1.6-.895,2.19-2.437,2.19H158.577C157.066,5.437,156.171,4.851,156.171,3.246Zm27.857,5.8h3.3a.432.432,0,0,0,.494-.463V-7.582h.37L205.5,8.707c.247.216.37.339.679.339h3.98a.432.432,0,0,0,.494-.463V-12.086a.432.432,0,0,0-.494-.463h-3.3a.409.409,0,0,0-.463.463V4.079h-.37L188.718-12.209c-.278-.216-.4-.339-.679-.339h-4.01a.409.409,0,0,0-.463.463V8.583A.409.409,0,0,0,184.029,9.046Z" transform="translate(3088.626 -531.478)" fill="#dcb533"/></g></svg>