<svg xmlns="http://www.w3.org/2000/svg" width="286.493" height="10.827" viewBox="0 0 286.493 10.827"><g transform="translate(-2721.319 544.15)"><g transform="translate(2721.319 -544.15)"><path d="M1.4-1.779H2.824A.205.205,0,0,0,3-1.837a.205.205,0,0,0,.058-.174v-8.41h.17L12.27-1.949c.124.109.185.17.325.17h1.793a.205.205,0,0,0,.174-.058.205.205,0,0,0,.058-.174V-12.369a.205.205,0,0,0-.058-.174.205.205,0,0,0-.174-.058H12.965a.205.205,0,0,0-.174.058.205.205,0,0,0-.058.174v8.41h-.17L3.519-12.43c-.124-.109-.185-.17-.325-.17H1.4a.205.205,0,0,0-.174.058.205.205,0,0,0-.058.174V-2.011a.205.205,0,0,0,.058.174.205.205,0,0,0,.174.058Zm15.848,0h1.422a.205.205,0,0,0,.174-.058.205.205,0,0,0,.058-.174V-6.556H29.151a.205.205,0,0,0,.174-.058.205.205,0,0,0,.058-.174V-7.994a.205.205,0,0,0-.058-.174.205.205,0,0,0-.174-.058H18.9v-2.705h10.4a.205.205,0,0,0,.174-.058.205.205,0,0,0,.058-.174v-1.206a.205.205,0,0,0-.058-.174.205.205,0,0,0-.174-.058H17.247a.205.205,0,0,0-.174.058.205.205,0,0,0-.058.174V-2.011a.205.205,0,0,0,.058.174.205.205,0,0,0,.174.058ZM31.7-10.931h5.643v8.92a.205.205,0,0,0,.058.174.205.205,0,0,0,.174.058h1.391a.205.205,0,0,0,.174-.058.205.205,0,0,0,.058-.174v-8.92h5.643a.205.205,0,0,0,.174-.058.205.205,0,0,0,.058-.174v-1.206a.205.205,0,0,0-.058-.174.205.205,0,0,0-.174-.058H31.7a.205.205,0,0,0-.174.058.205.205,0,0,0-.058.174v1.206a.205.205,0,0,0,.058.174.205.205,0,0,0,.174.058Z" transform="translate(89.165 12.604)" fill="#dcb533"/><path d="M1849.07,18.038l-1.614-1.939a.377.377,0,0,1-.031-.05c.021-.039.052-.028.079-.029h16.684c.055-.053.036-.111.037-.163V14.145c0-.044,0-.086-.007-.137a.845.845,0,0,0-.1-.016h-14.946a2.346,2.346,0,0,1-.4-.026,1.356,1.356,0,0,1-.695-.353,2.06,2.06,0,0,1-.673-1.336,3.937,3.937,0,0,1-.021-.412V9.972a2.605,2.605,0,0,1,.055-.555,2.039,2.039,0,0,1,.713-1.172,1.373,1.373,0,0,1,.9-.322h16.626a.723.723,0,0,1,.191.009.124.124,0,0,1,0,.04l-1.629,1.965c-.049,0-.093.007-.137.008h-14.784a.683.683,0,0,0-.238.016,3.938,3.938,0,0,0-.01.49v1c0,.165-.006.327.005.5.039,0,.069.011.1.013h14.945a2.513,2.513,0,0,1,.378.025,1.333,1.333,0,0,1,.687.333,2.039,2.039,0,0,1,.674,1.176,2.13,2.13,0,0,1,.041.391q.005,1.109,0,2.219a2.053,2.053,0,0,1-.292,1.049,2.007,2.007,0,0,1-.443.526,1.393,1.393,0,0,1-.922.34h-15.18Z" transform="translate(-1783.943 -7.647)" fill="#dcb533"/><path d="M1264.755,8c-.079.131-1.515,1.868-1.67,2.022h-15.05a.543.543,0,0,0-.079.014.235.235,0,0,0-.013.052v1.889a.255.255,0,0,0,.014.055c.03,0,.062.01.093.01h8.074a.914.914,0,0,1,.188.006.081.081,0,0,1,.01.025.027.027,0,0,1-.006.015l-1.632,1.969h-6.508c-.069,0-.141,0-.219,0a.574.574,0,0,0-.014.086v1.859a.42.42,0,0,0,.008.058.584.584,0,0,0,.09.018h16.687c.021.063-.025.088-.05.119q-.409.5-.82.987l-.64.776c-.039.046-.079.091-.12.14h-15.11a1.512,1.512,0,0,1-1.177-.526,2.12,2.12,0,0,1-.545-1.347v-6.2a2.358,2.358,0,0,1,.167-.915,2.046,2.046,0,0,1,.515-.735,1.415,1.415,0,0,1,1-.38Z" transform="translate(-1203.461 -7.719)" fill="#dcb533"/><path d="M669.607,14.024a2.534,2.534,0,0,0,.439.02h.428c.143,0,.295-.006.452.006.006.038.012.069.014.1v3.883c-.052.029-.063-.015-.079-.034q-.454-.543-.906-1.087c-.2-.245-.4-.491-.612-.732a.336.336,0,0,1-.085-.238v-1.7a.444.444,0,0,0-.016-.184.621.621,0,0,0-.079-.013c-.382-.017-11.535,0-11.673.013a.654.654,0,0,0-.018.089v3.882c-.066.009-.079-.039-.109-.069q-.438-.523-.872-1.049c-.206-.249-.412-.5-.622-.746a.317.317,0,0,1-.079-.223V14.078a.233.233,0,0,0-.168-.031h-1.268a.787.787,0,0,0-.1,0,.243.243,0,0,1-.238-.108c-.3-.371-.609-.735-.914-1.1l-.568-.683c-.026-.032-.064-.059-.067-.1.008-.011.01-.016.014-.018a.039.039,0,0,1,.016,0h16.726l.025-.008a.446.446,0,0,0,.017-.087V10.115a.719.719,0,0,0-.01-.084.654.654,0,0,0-.083-.015H654.338a.555.555,0,0,1-.227-.017c-.064-.031-.108-.105-.158-.164q-.706-.848-1.41-1.7l-.085-.116c.02-.042.051-.031.079-.034h16.625a2.433,2.433,0,0,1,.361.021,1.352,1.352,0,0,1,.7.338,2.049,2.049,0,0,1,.682,1.226,2.685,2.685,0,0,1,.034.426v2.06a2.331,2.331,0,0,1-.1.7,2.054,2.054,0,0,1-.562.9,1.7,1.7,0,0,1-.669.373Z" transform="translate(-630.053 -7.699)" fill="#dcb533"/><path d="M0,10.781c.065-.044.112-.079.158-.11L2.932,8.9,16.72.1A.732.732,0,0,0,16.785.06a.378.378,0,0,1,.246-.074h3.017c.049,0,.1,0,.151.007.006.04.014.071.017.1s0,.079,0,.116V10.576a.937.937,0,0,1-.01.206c-.133.021-2.219.025-2.407.006a.733.733,0,0,1-.016-.09V6.636c0-.065,0-.129,0-.2-.053,0-.1-.012-.137-.012l-1.582-.006-1.5,0a1.458,1.458,0,0,1-.152-.006c.044-.044.067-.072.094-.094L15.941,5.1c.275-.229.549-.456.819-.687a.309.309,0,0,1,.223-.079c.2.006.407,0,.609,0,.054,0,.109,0,.172,0a.547.547,0,0,0,.019-.1V1.484c-.045-.052-.092-.038-.134-.039a.618.618,0,0,0-.518.147l-14,9.088a.506.506,0,0,1-.412.12H.194A.467.467,0,0,1,0,10.781Z" transform="translate(0 0.018)" fill="#dcb533"/></g><path d="M-84-1.845h8.227c1.9,0,2.722-1.009,2.722-2.768v-.4a.218.218,0,0,0-.245-.245H-74.9a.218.218,0,0,0-.245.245v.229c0,.81-.306,1.086-1.055,1.086h-7.325c-.749,0-1.193-.291-1.193-1.086V-9.736c0-.8.443-1.086,1.193-1.086H-76.2c.749,0,1.055.291,1.055,1.086v.6a.218.218,0,0,0,.245.245H-73.3a.218.218,0,0,0,.245-.245v-.749c0-1.759-.826-2.783-2.722-2.783H-84a2.516,2.516,0,0,0-2.829,2.783v5.26A2.516,2.516,0,0,0-84-1.845Zm15.537,0h8.12a2.516,2.516,0,0,0,2.829-2.783v-5.26a2.516,2.516,0,0,0-2.829-2.783h-8.12A2.516,2.516,0,0,0-71.3-9.889v5.26A2.516,2.516,0,0,0-68.466-1.845Zm-.719-2.936V-9.736c0-.8.443-1.086,1.193-1.086h7.172c.765,0,1.208.291,1.208,1.086v4.955c0,.8-.443,1.086-1.208,1.086h-7.172C-68.741-3.7-69.185-3.986-69.185-4.781Zm13.809,2.875h1.636a.214.214,0,0,0,.245-.229V-9.843h.153l4.725,7.707a.378.378,0,0,0,.352.229h1.437a.378.378,0,0,0,.352-.229l4.725-7.707h.153v7.707a.214.214,0,0,0,.245.229h1.636a.2.2,0,0,0,.229-.229V-12.381a.2.2,0,0,0-.229-.229h-2.447c-.153,0-.229.076-.321.229l-4.97,8.074h-.184l-4.97-8.074c-.092-.153-.168-.229-.321-.229h-2.447a.2.2,0,0,0-.229.229V-2.136A.2.2,0,0,0-55.376-1.906Zm18.106,0h1.636a.214.214,0,0,0,.245-.229V-12.381a.214.214,0,0,0-.245-.229H-37.27a.2.2,0,0,0-.229.229V-2.136A.2.2,0,0,0-37.27-1.906Zm4.1,0h1.636a.214.214,0,0,0,.245-.229v-8.013h.184l8.579,8.074c.122.107.184.168.336.168h1.973a.214.214,0,0,0,.245-.229V-12.381a.214.214,0,0,0-.245-.229h-1.636a.2.2,0,0,0-.229.229v8.013h-.184l-8.579-8.074c-.138-.107-.2-.168-.336-.168h-1.988a.2.2,0,0,0-.229.229V-2.136A.2.2,0,0,0-33.172-1.906Zm17.938.061h8.212A2.449,2.449,0,0,0-4.285-4.628V-7.2a.29.29,0,0,0-.321-.321h-6.056A.3.3,0,0,0-11-7.2v1.208a.3.3,0,0,0,.336.321H-6.38v.887c0,.8-.352,1.086-1.1,1.086H-14.76c-.749,0-1.193-.291-1.193-1.086V-9.736c0-.8.443-1.086,1.193-1.086h7.294c.749,0,1.055.291,1.055,1.086v.6a.218.218,0,0,0,.245.245H-4.56a.218.218,0,0,0,.245-.245v-.749c0-1.759-.826-2.783-2.722-2.783h-8.2a2.516,2.516,0,0,0-2.829,2.783v5.26A2.516,2.516,0,0,0-15.234-1.845Zm18.763,0h7.294c2.156,0,3.242-.872,3.242-2.982,0-1.881-.979-2.982-3.211-3.1L3.942-8.3C2.841-8.36,2.6-8.941,2.6-9.644c0-.841.443-1.177,1.3-1.177h6.7c.658,0,1.07.275,1.177.826a.351.351,0,0,0,.382.336h1.33A.311.311,0,0,0,13.836-10c0-1.7-.872-2.676-3.013-2.676H3.789c-2.171,0-3.257.872-3.257,2.967,0,1.9.994,2.982,3.211,3.1l6.927.382c1.086.061,1.33.627,1.33,1.346,0,.841-.443,1.177-1.3,1.177H3.774C3.1-3.7,2.7-3.971,2.6-4.537a.349.349,0,0,0-.382-.321H.884c-.229,0-.352.107-.352.321C.532-2.824,1.4-1.845,3.529-1.845Zm15.2,0h8.12a2.516,2.516,0,0,0,2.829-2.783v-5.26a2.516,2.516,0,0,0-2.829-2.783H18.73A2.516,2.516,0,0,0,15.9-9.889v5.26A2.516,2.516,0,0,0,18.73-1.845Zm-.719-2.936V-9.736c0-.8.443-1.086,1.193-1.086h7.172c.765,0,1.208.291,1.208,1.086v4.955c0,.8-.443,1.086-1.208,1.086H19.2C18.454-3.7,18.011-3.986,18.011-4.781ZM34.343-1.845h8.12a2.516,2.516,0,0,0,2.829-2.783v-5.26a2.516,2.516,0,0,0-2.829-2.783h-8.12a2.516,2.516,0,0,0-2.829,2.783v5.26A2.516,2.516,0,0,0,34.343-1.845Zm-.719-2.936V-9.736c0-.8.443-1.086,1.193-1.086h7.172c.765,0,1.208.291,1.208,1.086v4.955c0,.8-.443,1.086-1.208,1.086H34.817C34.068-3.7,33.624-3.986,33.624-4.781ZM47.433-1.906h1.636a.214.214,0,0,0,.245-.229v-8.013H49.5l8.579,8.074c.122.107.184.168.336.168h1.973a.214.214,0,0,0,.245-.229V-12.381a.214.214,0,0,0-.245-.229H58.749a.2.2,0,0,0-.229.229v8.013h-.184l-8.579-8.074c-.138-.107-.2-.168-.336-.168H47.433a.2.2,0,0,0-.229.229V-2.136A.2.2,0,0,0,47.433-1.906Z" transform="translate(2947.182 -531.478)" fill="#dcb533"/></g></svg>