<svg xmlns="http://www.w3.org/2000/svg" width="398.626" height="32.15" viewBox="0 0 398.626 32.15"><g transform="translate(-2756.538 56.7)"><path d="M1.863,19.54H6.087a.609.609,0,0,0,.687-.689V-6.122H7.28L34.135,19.034c.367.322.551.506.965.506h5.325a.609.609,0,0,0,.689-.689V-11.906a.609.609,0,0,0-.172-.517.609.609,0,0,0-.517-.172H36.2a.609.609,0,0,0-.517.172.609.609,0,0,0-.172.517V13.067h-.506L8.15-12.089c-.367-.322-.551-.506-.965-.506H1.863a.609.609,0,0,0-.517.172.609.609,0,0,0-.172.517V18.851a.609.609,0,0,0,.689.689Zm47.061,0h4.224a.609.609,0,0,0,.689-.689V5.354H84.264a.609.609,0,0,0,.689-.689V1.085A.609.609,0,0,0,84.264.4H53.827V-7.637h30.9a.609.609,0,0,0,.517-.172.609.609,0,0,0,.172-.517v-3.581a.609.609,0,0,0-.172-.517.609.609,0,0,0-.517-.172H48.917a.609.609,0,0,0-.517.172.609.609,0,0,0-.172.517V18.851a.609.609,0,0,0,.689.689ZM91.836-7.637h16.756V18.851a.609.609,0,0,0,.689.689h4.132a.609.609,0,0,0,.689-.689V-7.637h16.756a.609.609,0,0,0,.517-.172.609.609,0,0,0,.172-.517v-3.581a.609.609,0,0,0-.172-.517.609.609,0,0,0-.517-.172H91.836a.609.609,0,0,0-.517.172.609.609,0,0,0-.172.517v3.581a.609.609,0,0,0,.172.517.609.609,0,0,0,.517.172Z" transform="translate(3023.611 -44.097)" fill="#dcb533"/><g transform="translate(2756.538 -56.691)"><g transform="translate(0 0)"><path d="M1852.38,37.963l-4.793-5.758a1.029,1.029,0,0,1-.092-.148c.062-.115.153-.082.236-.085h49.543c.162-.158.108-.329.111-.485V26.4c0-.129-.014-.256-.021-.407a2.512,2.512,0,0,0-.294-.047h-44.38a6.966,6.966,0,0,1-1.177-.078,4.027,4.027,0,0,1-2.064-1.049,6.115,6.115,0,0,1-2-3.967,11.637,11.637,0,0,1-.062-1.224V14.014a7.729,7.729,0,0,1,.162-1.647,6.06,6.06,0,0,1,2.118-3.48,4.078,4.078,0,0,1,2.659-.958H1901.7a2.147,2.147,0,0,1,.567.026.39.39,0,0,1-.011.118l-4.838,5.836c-.146,0-.275.021-.407.024h-43.9a2.031,2.031,0,0,0-.706.047,11.553,11.553,0,0,0-.03,1.456v2.981c0,.489-.016.972.017,1.489.115.014.2.033.3.038h44.378a7.464,7.464,0,0,1,1.123.075,3.96,3.96,0,0,1,2.041.988,6.053,6.053,0,0,1,2,3.492,6.387,6.387,0,0,1,.122,1.162q.016,3.294,0,6.588a6.092,6.092,0,0,1-.866,3.116,5.949,5.949,0,0,1-1.316,1.562,4.135,4.135,0,0,1-2.739,1.01h-45.075Z" transform="translate(-1658.986 -7.118)" fill="#dcb533"/><path d="M1301.179,8c-.235.388-4.5,5.546-4.958,6H1251.53a1.62,1.62,0,0,0-.236.042.7.7,0,0,0-.04.155v5.61a.752.752,0,0,0,.042.165c.089,0,.183.028.275.031h23.975a2.713,2.713,0,0,1,.558.019.237.237,0,0,1,.028.073.077.077,0,0,1-.019.045l-4.845,5.847h-19.326c-.2,0-.419,0-.652.012a1.751,1.751,0,0,0-.042.256v5.52a1.234,1.234,0,0,0,.023.172,1.725,1.725,0,0,0,.266.054h49.55c.062.186-.073.261-.148.353q-1.215,1.471-2.436,2.932l-1.9,2.3c-.115.136-.235.271-.358.416h-44.87a4.489,4.489,0,0,1-3.5-1.562,6.3,6.3,0,0,1-1.619-4V14.029a7,7,0,0,1,.5-2.718,6.072,6.072,0,0,1,1.53-2.181A4.2,4.2,0,0,1,1251.271,8Z" transform="translate(-1119.167 -7.176)" fill="#dcb533"/><path d="M703.382,25.914a7.528,7.528,0,0,0,1.3.059h1.271c.423,0,.875-.019,1.343.016.017.113.035.2.04.3v11.53c-.153.085-.186-.045-.235-.1q-1.348-1.612-2.692-3.228c-.6-.727-1.2-1.459-1.819-2.174a1,1,0,0,1-.252-.706v-5.04a1.323,1.323,0,0,0-.047-.546,1.846,1.846,0,0,0-.235-.038c-1.134-.049-34.253-.014-34.663.038a1.88,1.88,0,0,0-.054.264V37.811c-.2.026-.235-.115-.322-.2q-1.3-1.553-2.588-3.115c-.612-.739-1.224-1.482-1.847-2.214a.941.941,0,0,1-.235-.661V26.072a.692.692,0,0,0-.5-.092h-3.765a2.332,2.332,0,0,0-.292,0,.722.722,0,0,1-.706-.32c-.892-1.1-1.807-2.184-2.715-3.273l-1.687-2.028c-.078-.094-.191-.176-.2-.306.024-.033.031-.047.042-.054a.118.118,0,0,1,.047,0h49.668l.075-.024a1.308,1.308,0,0,0,.052-.259V14.3a2.114,2.114,0,0,0-.031-.249,1.959,1.959,0,0,0-.247-.045H658.04a1.648,1.648,0,0,1-.673-.052c-.19-.092-.32-.313-.47-.487q-2.1-2.518-4.186-5.038l-.252-.344c.059-.125.151-.092.235-.1H702.06a7.226,7.226,0,0,1,1.071.064,4.013,4.013,0,0,1,2.085,1,6.082,6.082,0,0,1,2.026,3.64,7.95,7.95,0,0,1,.1,1.264v6.118a6.925,6.925,0,0,1-.306,2.068,6.1,6.1,0,0,1-1.668,2.661,5.042,5.042,0,0,1-1.986,1.108Z" transform="translate(-585.926 -7.14)" fill="#dcb533"/><path d="M0,32.042c.193-.132.332-.235.471-.327l8.236-5.259L49.649.34a2.173,2.173,0,0,0,.193-.132,1.122,1.122,0,0,1,.729-.221h8.96c.146,0,.289.014.449.021.019.118.042.209.049.306s0,.235,0,.344V31.435a2.782,2.782,0,0,1-.028.612c-.4.061-6.588.073-7.146.016a2.176,2.176,0,0,1-.047-.268V19.734c0-.193,0-.384-.014-.6-.158-.014-.282-.035-.407-.035l-4.7-.016-4.452-.014a4.328,4.328,0,0,1-.452-.019c.129-.132.2-.214.278-.28l4.271-3.581c.817-.68,1.631-1.355,2.433-2.04a.918.918,0,0,1,.661-.235c.6.016,1.207,0,1.809,0,.16,0,.322,0,.511-.014a1.625,1.625,0,0,0,.056-.289q0-.659,0-1.32V4.436c-.134-.153-.273-.113-.4-.115a1.835,1.835,0,0,0-1.539.438L9.285,31.746a1.5,1.5,0,0,1-1.224.355H.576A1.388,1.388,0,0,1,0,32.042Z" transform="translate(0 0.015)" fill="#dcb533"/></g></g></g></svg>