<svg xmlns="http://www.w3.org/2000/svg" xmlns:xlink="http://www.w3.org/1999/xlink" width="15.886" height="18.156" viewBox="0 0 15.886 18.156"><defs><linearGradient id="a" x1="0.95" y1="0.034" x2="0.082" y2="0.859" gradientUnits="objectBoundingBox"><stop offset="0" stop-color="#dcb533"/><stop offset="1" stop-color="#bc892d"/></linearGradient></defs><path d="M10.539,8.624a.936.936,0,1,1-.925-1,.968.968,0,0,1,.925,1ZM6.3,7.62a1.011,1.011,0,0,0,0,2.016.968.968,0,0,0,.926-1.008A.961.961,0,0,0,6.3,7.62Zm9.586-5.748V18.156C13.6,16.135,14.33,16.8,11.674,14.334l.481,1.679H1.862A1.871,1.871,0,0,1,0,14.143V1.871A1.871,1.871,0,0,1,1.861,0H14.026a1.871,1.871,0,0,1,1.861,1.871Zm-2.587,8.6a12.157,12.157,0,0,0-1.307-5.292,4.489,4.489,0,0,0-2.551-.953l-.134.146a6.042,6.042,0,0,1,2.26,1.152,7.713,7.713,0,0,0-6.781-.267c-.336.154-.535.267-.535.267A6.124,6.124,0,0,1,6.64,4.339l-.09-.108A4.489,4.489,0,0,0,4,5.184a12.157,12.157,0,0,0-1.307,5.292,3.291,3.291,0,0,0,2.772,1.38s.336-.409.608-.754a2.823,2.823,0,0,1-1.588-1.069c.134.094.354.215.372.227a6.617,6.617,0,0,0,5.665.318,5.2,5.2,0,0,0,1.044-.535,2.865,2.865,0,0,1-1.643,1.08c.267.345.6.735.6.735A3.318,3.318,0,0,0,13.3,10.476Z" fill="url(#a)"/></svg>