<svg xmlns="http://www.w3.org/2000/svg" xmlns:xlink="http://www.w3.org/1999/xlink" width="123.486" height="114.528" viewBox="0 0 123.486 114.528"><defs><linearGradient id="a" y1="0.5" x2="1" y2="0.5" gradientUnits="objectBoundingBox"><stop offset="0" stop-color="#edd32e"/><stop offset="1" stop-color="#e4b300"/></linearGradient></defs><path d="M14.278,980.725a1.452,1.452,0,0,1-.225.951,1.083,1.083,0,0,1-.819.245h-2.51a1.083,1.083,0,0,1-.819-.245,1.459,1.459,0,0,1-.225-.951v-2.669a1.452,1.452,0,0,1,.225-.951,1.094,1.094,0,0,1,.819-.245h2.51q.75,0,.93.422a4.014,4.014,0,0,1,.115,1.256l-.973.186v-.961H10.658v3.208H13.3v-1.089l.973.245Z" transform="translate(-8.634 -871.279)" fill="#e4b300"/><path d="M122.034,980.725a1.457,1.457,0,0,1-.224.951,1.085,1.085,0,0,1-.819.245h-3.1a1.083,1.083,0,0,1-.819-.245,1.46,1.46,0,0,1-.224-.951v-2.669a1.457,1.457,0,0,1,.224-.951,1.091,1.091,0,0,1,.819-.245h3.1a1.089,1.089,0,0,1,.819.245,1.451,1.451,0,0,1,.224.951Zm-.978.245v-3.208h-3.227v3.208Z" transform="translate(-104.221 -871.279)" fill="#e4b300"/><path d="M235.638,981.922h-1.405l-1.691-1.912h-.93v1.913h-.962V976.86h3.6q.946,0,.946.98v1.189q0,.736-.489.912a4.215,4.215,0,0,1-1.012.068Zm-1.383-3.179v-.607c0-.171-.04-.281-.122-.334a.54.54,0,0,0-.318-.068h-2.2v1.411h2.2a.54.54,0,0,0,.318-.069C234.212,979.025,234.255,978.914,234.255,978.743Z" transform="translate(-205.721 -871.279)" fill="#e4b300"/><path d="M342.441,978.969q0,.98-.946.981h-2.644v1.971h-.962V976.86h3.6q.946,0,.946.98Zm-.946-.294v-.54c0-.171-.04-.281-.122-.334a.54.54,0,0,0-.318-.068h-2.2v1.344h2.2a.54.54,0,0,0,.318-.068c.082-.052.122-.163.122-.333Z" transform="translate(-301.37 -871.279)" fill="#e4b300"/><path d="M445.034,980.725a1.457,1.457,0,0,1-.224.951,1.083,1.083,0,0,1-.819.245h-3.1a1.085,1.085,0,0,1-.819-.245,1.453,1.453,0,0,1-.224-.951v-2.669a1.457,1.457,0,0,1,.224-.951,1.089,1.089,0,0,1,.819-.245h3.1a1.087,1.087,0,0,1,.819.245,1.451,1.451,0,0,1,.224.951Zm-.978.245v-3.208h-3.227v3.208Z" transform="translate(-392.31 -871.279)" fill="#e4b300"/><path d="M558.639,981.922h-1.405l-1.693-1.912h-.93v1.913h-.962V976.86h3.6q.946,0,.945.98v1.189q0,.736-.489.912a4.208,4.208,0,0,1-1.011.068Zm-1.385-3.179v-.607a.371.371,0,0,0-.123-.334.54.54,0,0,0-.318-.068h-2.2v1.411h2.2a.54.54,0,0,0,.318-.069Q557.255,979,557.255,978.743Z" transform="translate(-493.81 -871.279)" fill="#e4b300"/><path d="M656.378,981.922h-1.1l-.506-1.108h-2.665l-.489,1.108h-.978l2.378-5.062h.946Zm-2.014-2.02-.9-2.061-.937,2.061Z" transform="translate(-580.318 -871.279)" fill="#e4b300"/><path d="M753.847,977.763H751.9v4.159h-.973v-4.159H749v-.9h4.85Z" transform="translate(-668.047 -871.279)" fill="#e4b300"/><path d="M852.713,981.922h-.973V976.86h.973Z" transform="translate(-759.682 -871.279)" fill="#e4b300"/><path d="M931.765,980.725a1.457,1.457,0,0,1-.225.951,1.087,1.087,0,0,1-.819.245h-3.1a1.08,1.08,0,0,1-.818-.245,1.459,1.459,0,0,1-.225-.951v-2.669a1.452,1.452,0,0,1,.225-.951,1.092,1.092,0,0,1,.818-.245h3.1a1.087,1.087,0,0,1,.819.245,1.457,1.457,0,0,1,.225.951Zm-.973.245v-3.208h-3.234v3.208Z" transform="translate(-826.433 -871.279)" fill="#e4b300"/><path d="M1045.257,981.922h-.668l-3.089-3.134a3.362,3.362,0,0,1-.351-.412c.028.324.041.585.041.775v2.766h-.88V976.86h.668l2.959,2.982a5.184,5.184,0,0,1,.481.549c-.028-.47-.041-.757-.041-.872V976.86h.88Z" transform="translate(-927.871 -871.279)" fill="#e4b300"/><path d="M526.9,893.531V887.68H524.47v2.926Z" transform="translate(-467.784 -791.738)" fill="#e4b300"/><path d="M323.788,806.44H299.47l2.435,2.929h21.883v2.926H299.47l2.435,2.926h2.431v2.926l2.433,2.926v-5.852h17.023a2.165,2.165,0,0,0,1.719-.857,3.124,3.124,0,0,0,.713-2.069v-2.926a3.135,3.135,0,0,0-.712-2.068A2.178,2.178,0,0,0,323.788,806.44Z" transform="translate(-267.103 -719.278)" fill="#e4b300"/><path d="M596.805,809.369l2.432-2.929H574.923a2.155,2.155,0,0,0-1.719.865,3.116,3.116,0,0,0-.713,2.068v8.777a3.134,3.134,0,0,0,.713,2.069,2.155,2.155,0,0,0,1.719.857h21.882l2.436-2.929H574.923v-2.926h9.727l2.431-2.926H574.923v-2.926Z" transform="translate(-510.614 -719.278)" fill="#e4b300"/><path d="M872.562,812.295H850.678v-2.926h21.883l2.432-2.929H850.675a2.157,2.157,0,0,0-1.719.865,3.116,3.116,0,0,0-.713,2.068V812.3a3.134,3.134,0,0,0,.713,2.069,2.155,2.155,0,0,0,1.719.857h21.883v2.926H848.24l2.432,2.926h21.883a2.164,2.164,0,0,0,1.72-.857,3.125,3.125,0,0,0,.712-2.069v-2.929a3.135,3.135,0,0,0-.712-2.068A2.151,2.151,0,0,0,872.562,812.295Z" transform="translate(-756.56 -719.278)" fill="#e4b300"/><path d="M0,818.364H4.306l20.832-13.543h.609v4.187H24.413l-3.571,3,4.9.022v6.338h3.511V802.71H24.482Z" transform="translate(0 -715.951)" fill="#e4b300"/><rect width="118.432" height="0.981" transform="translate(0 113.547)" fill="#edd32e"/><rect width="118.432" height="0.981" transform="translate(0 82.422)" fill="#edd32e"/><path d="M295.941,65.2l-7.624-10.831,2.955-21.941.058-.432-.271-.324L263.888,0l25.384,32.565-2.5,18.558-24.65-35.2-.478-.744-.012-.018-23.7,34.97L234.981,32.55,260.112.3,233.184,31.668,232.9,32l.077.452L236.5,53.441,228.3,65.2l-.639.918.973.5,29.2,15.131-27.324-16.29,6.927-9.935,21.453,18.959.086-2.471-6.4-5.676h0L239.459,54.69l9.886-14.526L250,49.6l.009-.123.8-11.457h-.006l1.393-2.054,7.85-11.535L261.625,47l.021-.3,1.565-22.423,8.908,12.664.781,1.111.806,11.552.009-.123.648-9.343L285.029,55.3,266.4,71.537c-.022-1.87-.047-3.907-.059-4.183q-.075-1.417-.174-2.83l-.108-1.413-.121-1.412-.012-.159-.108-.188-.706-1.254c-.232-.419-.477-.832-.715-1.247s-.479-.831-.724-1.243l-.736-1.238L262.119,55l-.068-.116-.821,1.521-.67,1.242c-.222.413-.438.825-.654,1.246s-.441.83-.648,1.251l-.648,1.256-.091.176-.017.138-.121,1.405c-.039.47-.071.94-.108,1.41q-.1,1.405-.173,2.825c-.018.361-.034,2.2-.048,3.834l.92.816c.108-1.816.665-6.357.829-7.285.08-.466.164-.93.24-1.394l.2-1.2.643-1.092c.24-.405.467-.817.7-1.226.184-.324.365-.64.54-.963l.01-.017q.306.5.62,1.005c.254.406.5.816.763,1.219l.688,1.081.192,1.182.24,1.4c.165.93.917,8,1.037,9.9l.748-.494,20.705-18.041,6.6,9.385L266.416,81.746l29.2-15.131.973-.5Z" transform="translate(-203.054)" fill="url(#a)"/><path d="M1106.652,808.751a2.187,2.187,0,1,0,0,1.7,2.206,2.206,0,0,0,0-1.7Zm-2.02,2.77a1.917,1.917,0,1,1,1.92-1.916A1.917,1.917,0,0,1,1104.632,811.521Z" transform="translate(-983.338 -720.145)" fill="#e4b300"/><path d="M1116.7,817.5a.909.909,0,0,0-.251-.351.665.665,0,0,0,.36-.617.64.64,0,0,0-.276-.54,1.208,1.208,0,0,0-.719-.195,3.771,3.771,0,0,0-.669.068l-.038.006v2.5h.42V817.3h.363c.3,0,.5.347.59,1.029v.04h.416l-.008-.053A3.642,3.642,0,0,0,1116.7,817.5Zm-.421-.659a.683.683,0,0,1-.407.1h-.343v-.757c.08-.008.177-.011.292-.011.4,0,.589.124.589.383A.335.335,0,0,1,1116.281,816.842Z" transform="translate(-994.587 -727.624)" fill="#e4b300"/></svg>