<svg xmlns="http://www.w3.org/2000/svg" width="35.103" height="41.633" viewBox="0 0 35.103 41.633">
                                                    <path
                                                        class="aresnft-slide-nav-fill"
                                                        d="M262.434,33.2l-3.883-5.516,1.5-11.174.03-.22-.138-.165L246.11,0l12.928,16.585-1.273,9.451L245.211,8.108l-.243-.379-.006-.009L232.891,25.53l-1.5-8.952L244.187.151,230.473,16.128l-.145.168.039.23,1.794,10.69-4.176,5.989-.325.467.5.254,14.87,7.706-13.916-8.3,3.528-5.06,10.926,9.655.044-1.258-3.258-2.891h0l-6.681-5.931,5.035-7.4.335,4.8,0-.063.407-5.835h0l.71-1.046,4-5.874.8,11.493.01-.152.8-11.419,4.537,6.45.4.566.411,5.883,0-.063.33-4.758,5.432,7.722-9.49,8.27c-.011-.952-.024-1.99-.03-2.13q-.038-.722-.089-1.441l-.055-.719-.062-.719-.006-.081-.055-.1-.359-.639c-.118-.214-.243-.424-.364-.635s-.244-.423-.369-.633l-.375-.63-.414-.7-.035-.059-.418.774-.341.632c-.113.21-.223.42-.333.635s-.225.423-.33.637l-.33.64-.046.09-.009.07-.062.716c-.02.239-.036.479-.055.718q-.052.716-.088,1.439c-.009.184-.017,1.12-.024,1.952l.468.416c.055-.925.339-3.238.422-3.71.041-.237.084-.473.122-.71l.1-.61.327-.556c.122-.206.238-.416.357-.624.094-.165.186-.326.275-.49l0-.009q.156.257.316.512c.129.207.256.416.389.621l.351.55.1.6.122.711c.084.473.467,4.073.528,5.04l.381-.252,10.545-9.188,3.364,4.779L247.4,41.632l14.87-7.706.5-.256Z"
                                                        transform="translate(-227.66)"
                                                        fill="#DCB533"
                                                    />
                                                </svg>