<svg xmlns="http://www.w3.org/2000/svg" xmlns:xlink="http://www.w3.org/1999/xlink" width="286" height="286" viewBox="0 0 286 286"><defs><clipPath id="a"><rect width="286" height="286" fill="#dcb533"/></clipPath></defs><g clip-path="url(#a)"><path d="M31.41,23.359a4.227,4.227,0,0,0,4.228-4.228V4.228a4.228,4.228,0,0,0-8.456,0v14.9A4.228,4.228,0,0,0,31.41,23.359Z" transform="translate(111.855)" fill="#dcb533"/><path d="M27.47,21.2a4.228,4.228,0,1,0,5.982-5.977L22.917,4.683a4.228,4.228,0,0,0-5.983,5.977Z" transform="translate(64.597 14.171)" fill="#dcb533"/><path d="M40.835,22.442A4.216,4.216,0,0,0,43.828,21.2L54.347,10.657A4.228,4.228,0,1,0,48.36,4.685L37.841,15.229a4.228,4.228,0,0,0,2.994,7.214Z" transform="translate(150.637 14.171)" fill="#dcb533"/><path d="M261.071,94.224A17.322,17.322,0,0,0,244.3,107.273H211.287a75.536,75.536,0,0,0,.388-7.763,80.41,80.41,0,0,0-3.224-22.864h42.164A11.452,11.452,0,0,0,262.051,65.2V39.782a17.311,17.311,0,1,0-8.456,0V65.2a3.023,3.023,0,0,1-2.98,2.987H205.352a68.693,68.693,0,0,0-14.745-21.355,71.633,71.633,0,0,0-51-20.376A72.426,72.426,0,0,0,99.744,37.933a4.228,4.228,0,0,0,4.586,7.1,63.944,63.944,0,0,1,35.228-10.122h.115c.293,0,.584-.007.876-.007A63.2,63.2,0,0,1,184.674,52.86a60.326,60.326,0,0,1,13.779,20.763,4.169,4.169,0,0,0,.229.595,70,70,0,0,1,4.537,25.3,63.131,63.131,0,0,1-.92,11.036,4.258,4.258,0,0,0-.074.421c-2.744,14.938-10.79,24.654-19.216,34.825-9.686,11.693-19.681,23.756-20.927,43.7H143.84V127.335h11.836a4.228,4.228,0,0,0,0-8.456H123.565a4.228,4.228,0,1,0,0,8.456h11.819V189.5H117.16c-1.246-19.939-11.24-32-20.927-43.7C85.828,133.242,76,121.379,76.023,99.518c.014-17.061,5.5-32.218,15.862-43.834a4.228,4.228,0,0,0-6.309-5.629,68.87,68.87,0,0,0-11.66,18.136H28.627a3.024,3.024,0,0,1-2.98-2.987V39.782a17.3,17.3,0,1,0-8.455,0V65.2A11.452,11.452,0,0,0,28.628,76.646H70.813A80.062,80.062,0,0,0,67.568,99.51a75.683,75.683,0,0,0,.388,7.763H34.944a17.276,17.276,0,1,0,0,8.456H69.367c3.6,15.236,12.084,25.483,20.356,35.467q.893,1.079,1.779,2.152H49.76a11.444,11.444,0,0,0-11.436,11.426V190.2a17.31,17.31,0,1,0,8.456,0V164.773a2.979,2.979,0,0,1,2.98-2.97H98.087c5.5,7.707,9.748,16.2,10.59,27.693h-5.04a12.38,12.38,0,0,0-12.371,12.362v22.514a12.389,12.389,0,0,0,12.371,12.377h8.937v8.773a17.258,17.258,0,0,0,17.234,17.245h19.564a17.251,17.251,0,0,0,17.218-17.245v-8.773h8.936A12.388,12.388,0,0,0,187.9,224.373V201.859A12.381,12.381,0,0,0,175.526,189.5h-4.96c.843-11.49,5.1-19.986,10.59-27.693h48.327a2.971,2.971,0,0,1,2.965,2.97V190.2a17.31,17.31,0,1,0,8.456,0V164.773a11.436,11.436,0,0,0-11.42-11.425H187.743q.885-1.074,1.779-2.152c8.272-9.984,16.751-20.231,20.355-35.467H244.3a17.294,17.294,0,1,0,16.77-21.5Zm-12.1-71.195a8.849,8.849,0,1,1,8.857,8.821A8.85,8.85,0,0,1,248.966,23.03Zm-236.388,0a8.842,8.842,0,1,1,8.842,8.821A8.842,8.842,0,0,1,12.578,23.03Zm5.595,97.292a8.821,8.821,0,1,1,8.842-8.821A8.842,8.842,0,0,1,18.172,120.321ZM51.41,206.964a8.849,8.849,0,1,1-8.857-8.837A8.85,8.85,0,0,1,51.41,206.964Zm106.725,38.56a8.786,8.786,0,0,1-8.763,8.789H129.808a8.794,8.794,0,0,1-8.778-8.789V236.75h37.106Zm17.392-47.571a3.915,3.915,0,0,1,3.915,3.906v7.029H150.227a4.228,4.228,0,1,0,0,8.456h29.214v7.03a3.923,3.923,0,0,1-3.915,3.922H103.638a3.923,3.923,0,0,1-3.915-3.922v-7.03H127.4a4.228,4.228,0,1,0,0-8.456H99.723v-7.029a3.916,3.916,0,0,1,3.915-3.906h71.889Zm70.006,9.011a8.85,8.85,0,1,1-8.857-8.837A8.85,8.85,0,0,1,245.532,206.964Zm15.538-86.643a8.821,8.821,0,1,1,8.842-8.821A8.842,8.842,0,0,1,261.071,120.321Z" transform="translate(3.601 23.674)" fill="#dcb533"/></g></svg>