<svg xmlns="http://www.w3.org/2000/svg" xmlns:xlink="http://www.w3.org/1999/xlink" width="18.161" height="18.156" viewBox="0 0 18.161 18.156"><defs><linearGradient id="a" x1="0.867" y1="0.082" x2="0.096" y2="0.912" gradientUnits="objectBoundingBox"><stop offset="0" stop-color="#dcb533"/><stop offset="1" stop-color="#bc892d"/></linearGradient></defs><path d="M9.076,6.661a4.648,4.648,0,1,0,4.648,4.648A4.648,4.648,0,0,0,9.076,6.661Zm0,7.68A3.027,3.027,0,1,1,12.1,11.316a3.027,3.027,0,0,1-3.027,3.025Zm5.93-7.871a1.081,1.081,0,1,1-.314-.773,1.086,1.086,0,0,1,.314.773Zm3.084,1.1a5.374,5.374,0,0,0-1.467-3.8,5.409,5.409,0,0,0-3.8-1.467c-1.5-.086-5.991-.086-7.49,0a5.4,5.4,0,0,0-3.8,1.463,5.39,5.39,0,0,0-1.466,3.8c-.086,1.5-.086,5.991,0,7.49a5.374,5.374,0,0,0,1.467,3.8,5.415,5.415,0,0,0,3.8,1.467c1.5.086,5.991.086,7.49,0a5.374,5.374,0,0,0,3.8-1.467,5.409,5.409,0,0,0,1.467-3.8c.086-1.5.086-5.987,0-7.486Zm-1.936,9.094a3.063,3.063,0,0,1-1.726,1.725,20.009,20.009,0,0,1-5.352.365,20.164,20.164,0,0,1-5.352-.365A3.063,3.063,0,0,1,2,16.667a20.009,20.009,0,0,1-.365-5.352A20.164,20.164,0,0,1,2,5.959,3.063,3.063,0,0,1,3.725,4.238a20.009,20.009,0,0,1,5.352-.365,20.164,20.164,0,0,1,5.352.365,3.063,3.063,0,0,1,1.724,1.721,20.009,20.009,0,0,1,.365,5.352,20,20,0,0,1-.365,5.355Z" transform="translate(0.005 -2.238)" fill="url(#a)"/></svg>