<svg xmlns="http://www.w3.org/2000/svg" width="232.571" height="232.587" viewBox="0 0 232.571 232.587"><g transform="translate(-1.994 -1.994)"><path d="M106.6,122.807l16.2-16.2a3.419,3.419,0,0,0,0-4.84l-8.631-8.631A52.1,52.1,0,0,0,118.415,82.9h12.2a3.423,3.423,0,0,0,3.423-3.423V56.562a3.423,3.423,0,0,0-3.423-3.423H118.442a51.716,51.716,0,0,0-4.257-10.245l8.617-8.619a3.422,3.422,0,0,0,0-4.842l-16.2-16.2a3.42,3.42,0,0,0-4.84,0L93.142,21.85A51.7,51.7,0,0,0,82.9,17.593V5.417a3.422,3.422,0,0,0-3.423-3.423H56.56a3.422,3.422,0,0,0-3.423,3.423v12.2A52.158,52.158,0,0,0,42.9,21.86l-8.629-8.631a3.421,3.421,0,0,0-4.842,0l-16.2,16.2a3.421,3.421,0,0,0,0,4.842L21.856,42.9a52.2,52.2,0,0,0-4.245,10.235H5.417a3.421,3.421,0,0,0-3.423,3.423V79.474A3.421,3.421,0,0,0,5.417,82.9H17.591A51.685,51.685,0,0,0,21.85,93.142l-8.621,8.621a3.42,3.42,0,0,0,0,4.84l16.2,16.2a3.428,3.428,0,0,0,4.842,0l8.619-8.621a51.8,51.8,0,0,0,10.247,4.259V130.62a3.424,3.424,0,0,0,3.423,3.424H79.474A3.424,3.424,0,0,0,82.9,130.62v-12.2a52.161,52.161,0,0,0,10.233-4.245l8.631,8.631a3.424,3.424,0,0,0,4.84,0ZM96.114,107.476a3.42,3.42,0,0,0-4.212-.5,45.323,45.323,0,0,1-13.224,5.478,3.426,3.426,0,0,0-2.627,3.325v11.4H59.983V115.813a3.422,3.422,0,0,0-2.631-3.325,45.04,45.04,0,0,1-13.215-5.5,3.426,3.426,0,0,0-4.22.493l-8.066,8.06L20.494,104.179l8.06-8.062a3.426,3.426,0,0,0,.493-4.218,45.008,45.008,0,0,1-5.5-13.223,3.424,3.424,0,0,0-3.326-2.631H8.841V59.983h11.4a3.426,3.426,0,0,0,3.326-2.627,45.225,45.225,0,0,1,5.478-13.22,3.429,3.429,0,0,0-.5-4.216l-8.056-8.068L31.852,20.494l8.068,8.068a3.425,3.425,0,0,0,4.213.5,45.314,45.314,0,0,1,13.223-5.478,3.428,3.428,0,0,0,2.627-3.326V8.841H76.05V20.224a3.422,3.422,0,0,0,2.631,3.326A45.025,45.025,0,0,1,91.9,29.043a3.415,3.415,0,0,0,4.217-.493l8.06-8.06,11.36,11.362-8.06,8.062a3.429,3.429,0,0,0-.493,4.22,44.953,44.953,0,0,1,5.493,13.22,3.424,3.424,0,0,0,3.326,2.631h11.383V76.05h-11.4a3.428,3.428,0,0,0-3.326,2.629A45.281,45.281,0,0,1,106.983,91.9a3.42,3.42,0,0,0,.5,4.212l8.062,8.07-11.36,11.358Z" transform="translate(0 0)" fill="#dcb533"/><path d="M39.766,10.132a29.668,29.668,0,1,0,20.946,8.689A29.637,29.637,0,0,0,39.766,10.132Zm0,52.428a22.822,22.822,0,1,1,16.106-6.686A22.787,22.787,0,0,1,39.766,62.56Z" transform="translate(28.248 28.252)" fill="#dcb533"/><path d="M153.1,75.621H140.923a51.662,51.662,0,0,0-4.257-10.245l8.62-8.621a3.419,3.419,0,0,0,0-4.839l-16.2-16.2a3.421,3.421,0,0,0-4.842,0l-8.619,8.617a51.836,51.836,0,0,0-10.243-4.259V27.9a3.423,3.423,0,0,0-3.423-3.423H79.043A3.424,3.424,0,0,0,75.619,27.9V40.1a52.147,52.147,0,0,0-10.235,4.245l-8.629-8.627a3.42,3.42,0,0,0-4.84,0l-16.2,16.2a3.424,3.424,0,0,0,0,4.839l8.633,8.631A51.982,51.982,0,0,0,40.1,75.621H27.9a3.424,3.424,0,0,0-3.423,3.423v22.912A3.424,3.424,0,0,0,27.9,105.38H40.074a51.743,51.743,0,0,0,4.257,10.245l-8.619,8.619a3.426,3.426,0,0,0,0,4.842l16.2,16.2a3.42,3.42,0,0,0,4.84,0l8.619-8.608a51.689,51.689,0,0,0,10.245,4.257v12.176a3.422,3.422,0,0,0,3.423,3.423h22.912a3.422,3.422,0,0,0,3.424-3.423v-12.2a52.129,52.129,0,0,0,10.235-4.247l8.629,8.629a3.422,3.422,0,0,0,4.842,0l16.2-16.2a3.422,3.422,0,0,0,0-4.842l-8.629-8.631a52.183,52.183,0,0,0,4.245-10.233h12.2a3.422,3.422,0,0,0,3.424-3.423V79.045a3.421,3.421,0,0,0-3.424-3.423Zm-3.423,22.914h-11.4a3.426,3.426,0,0,0-3.325,2.627,45.31,45.31,0,0,1-5.478,13.222,3.428,3.428,0,0,0,.5,4.214l8.07,8.07-11.36,11.358-8.067-8.067a3.431,3.431,0,0,0-4.214-.5,45.352,45.352,0,0,1-13.224,5.478,3.426,3.426,0,0,0-2.627,3.325v11.4H82.466V138.284a3.423,3.423,0,0,0-2.631-3.326,45,45,0,0,1-13.222-5.493,3.418,3.418,0,0,0-4.218.493l-8.06,8.06-11.36-11.352,8.06-8.062a3.422,3.422,0,0,0,.493-4.22,45,45,0,0,1-5.491-13.22,3.424,3.424,0,0,0-3.325-2.631H31.322V82.468h11.4a3.428,3.428,0,0,0,3.326-2.629,45.285,45.285,0,0,1,5.478-13.222,3.42,3.42,0,0,0-.5-4.212l-8.056-8.069,11.36-11.358L62.4,51.045a3.416,3.416,0,0,0,4.212.5,45.323,45.323,0,0,1,13.224-5.478,3.428,3.428,0,0,0,2.627-3.325V31.333H98.533V42.717a3.422,3.422,0,0,0,2.631,3.326,45.052,45.052,0,0,1,13.22,5.495,3.42,3.42,0,0,0,4.22-.493l8.06-8.068,11.36,11.36L129.962,62.4a3.424,3.424,0,0,0-.493,4.218,44.983,44.983,0,0,1,5.491,13.22,3.424,3.424,0,0,0,3.326,2.633H149.67Z" transform="translate(78.042 78.042)" fill="#dcb533"/><path d="M62.25,32.613A29.668,29.668,0,1,0,83.2,41.3,29.634,29.634,0,0,0,62.25,32.613Zm0,52.428a22.821,22.821,0,1,1,16.105-6.684A22.789,22.789,0,0,1,62.25,85.041Z" transform="translate(106.298 106.294)" fill="#dcb533"/><path d="M35.515,14.346A87.84,87.84,0,0,1,84.009,50.209a15.062,15.062,0,1,0,6-3.326,94.66,94.66,0,0,0-52.563-39.1,3.424,3.424,0,1,0-1.933,6.567ZM102.2,61.33a8.169,8.169,0,1,1-2.393-5.769A8.16,8.16,0,0,1,102.2,61.33Z" transform="translate(107.627 19.534)" fill="#dcb533"/><path d="M79.621,95.081A87.839,87.839,0,0,1,31.137,59.219a15.063,15.063,0,1,0-6,3.325,94.651,94.651,0,0,0,52.553,39.1,3.383,3.383,0,0,0,.969.139,3.424,3.424,0,0,0,.964-6.706ZM12.934,48.1a8.169,8.169,0,1,1,2.391,5.771A8.16,8.16,0,0,1,12.934,48.1Z" transform="translate(13.788 107.597)" fill="#dcb533"/></g></svg>