<svg xmlns="http://www.w3.org/2000/svg" xmlns:xlink="http://www.w3.org/1999/xlink" width="18.175" height="18.156" viewBox="0 0 18.175 18.156"><defs><linearGradient id="a" x1="1.068" y1="0.05" x2="0.052" y2="1" gradientUnits="objectBoundingBox"><stop offset="0" stop-color="#dcb533"/><stop offset="1" stop-color="#bc892d"/></linearGradient></defs><path d="M4.071,18.155H.3V6.044H4.071ZM2.189,4.389A2.195,2.195,0,1,1,4.366,2.195,2.195,2.195,0,0,1,2.189,4.389ZM18.152,18.155H14.394v-5.9c0-1.4-.028-3.207-1.956-3.207-1.956,0-2.255,1.526-2.255,3.106v6H6.428V6.044h3.606V7.7h.053a3.95,3.95,0,0,1,3.558-1.956c3.8,0,4.506,2.506,4.506,5.761v6.652Z" transform="translate(0.023)" fill="url(#a)"/></svg>