<svg xmlns="http://www.w3.org/2000/svg" width="409.149" height="50.97"><g fill="#dcb533"><path d="M409.149 11.852a2.4 2.4 0 00-.126.515 4.736 4.736 0 01-.352 1.579 8.513 8.513 0 01-6.685 5.609 8.758 8.758 0 116.823-11.208 10.411 10.411 0 01.2 1.06c.039.2.092.39.14.584zm-8.688-8.555a7.65 7.65 0 10-.03 15.3 7.65 7.65 0 00.03-15.3zM306.864 48.948q-3.819-4.586-7.605-9.138a1.737 1.737 0 01-.144-.235c.1-.181.242-.129.36-.134.285-.01.57 0 .854 0h77.761c.259-.251.173-.524.175-.77v-8.062c0-.2-.021-.408-.034-.647a3.983 3.983 0 00-.467-.076c-.285-.011-.57 0-.855 0h-69.568a11.057 11.057 0 01-1.852-.123 6.389 6.389 0 01-3.275-1.665 9.7 9.7 0 01-3.172-6.295 18.454 18.454 0 01-.1-1.942c-.009-2.973 0-5.944 0-8.916a12.262 12.262 0 01.257-2.609 9.616 9.616 0 013.361-5.521 6.472 6.472 0 014.22-1.518h78.344a3.4 3.4 0 01.9.042.633.633 0 01-.019.188l-7.675 9.259c-.232.015-.436.032-.647.037h-69.645a3.221 3.221 0 00-1.113.076 18.3 18.3 0 00-.05 2.311c-.013.8 0 1.6 0 2.4v2.327c0 .777-.026 1.544.026 2.364.183.023.323.053.471.058.259.008.518 0 .777 0h69.645a11.832 11.832 0 011.78.12 6.277 6.277 0 013.236 1.568 9.6 9.6 0 013.178 5.542 10.151 10.151 0 01.194 1.846q.024 5.233 0 10.466a9.681 9.681 0 01-1.374 4.945 9.435 9.435 0 01-2.087 2.481 6.567 6.567 0 01-4.345 1.6h-71.514zM288.803 1.3c-.366.617-7.14 8.8-7.866 9.53h-70.9a2.591 2.591 0 00-.369.066 1.171 1.171 0 00-.063.246v8.915a1.194 1.194 0 00.068.261c.142.016.29.044.438.049.257.008.516 0 .775 0h37.267a4.3 4.3 0 01.884.029c.029.068.047.092.045.117a.118.118 0 01-.029.071l-7.687 9.279c-.339 0-.673.018-1.008.018h-29.656c-.324 0-.664.011-1.036.019a2.657 2.657 0 00-.066.406v8.759a2.1 2.1 0 00.039.272 2.732 2.732 0 00.421.087c.285.015.57 0 .854 0h77.772c.1.3-.117.414-.236.558q-1.927 2.332-3.866 4.654l-3.018 3.654c-.182.217-.368.43-.567.662h-.784q-35.208 0-70.416.011a7.123 7.123 0 01-5.547-2.477 9.989 9.989 0 01-2.57-6.334c-.014-.285-.011-.568-.011-.853V10.922a11.1 11.1 0 01.789-4.314 9.644 9.644 0 012.427-3.463 6.668 6.668 0 014.722-1.845h79.2zM186.387 29.793a11.934 11.934 0 002.068.094c.691.006 1.345 0 2.018 0s1.39-.029 2.133.028c.026.18.057.324.063.469.01.207 0 .414 0 .62v17.66c-.241.134-.3-.07-.38-.162q-2.141-2.557-4.272-5.123c-.96-1.152-1.909-2.314-2.885-3.452a1.587 1.587 0 01-.4-1.121c.014-2.662.01-5.322 0-7.984a2.092 2.092 0 00-.076-.867 2.932 2.932 0 00-.37-.058c-1.8-.079-54.353-.023-55 .061a2.933 2.933 0 00-.087.417c-.016.231 0 .464 0 .7v17.591c-.311.04-.392-.184-.51-.324q-2.065-2.466-4.12-4.945c-.971-1.173-1.942-2.353-2.932-3.515a1.492 1.492 0 01-.38-1.049c.016-2.662 0-5.324 0-7.986 0-.282 0-.563-.013-.809a1.1 1.1 0 00-.791-.144h-5.983a3.7 3.7 0 00-.464 0 1.147 1.147 0 01-1.123-.508c-1.416-1.746-2.868-3.465-4.308-5.194q-1.34-1.608-2.677-3.22c-.125-.15-.3-.278-.314-.485.037-.052.049-.076.068-.087a.187.187 0 01.075-.018.65.65 0 01.076 0h78.586a.621.621 0 00.078 0 .636.636 0 00.076-.016l.12-.036a2.074 2.074 0 00.081-.409v-8.602a3.226 3.226 0 00-.047-.395 3.113 3.113 0 00-.393-.07c-.285-.01-.57 0-.853 0h-69.023a2.606 2.606 0 01-1.068-.081c-.3-.144-.507-.5-.738-.773l-6.643-7.994c-.151-.2-.277-.382-.4-.544.094-.2.239-.147.358-.162.205-.01.414 0 .621 0h77.716a11.468 11.468 0 011.7.1 6.371 6.371 0 013.309 1.592 9.649 9.649 0 013.215 5.775 12.577 12.577 0 01.162 2c.016 3.236 0 6.46.01 9.69a11 11 0 01-.485 3.283 9.677 9.677 0 01-2.649 4.222 7.994 7.994 0 01-3.149 1.831zM0 50.869c.306-.21.528-.372.757-.519q6.536-4.175 13.078-8.347L78.767.563a3.447 3.447 0 00.324-.208A1.78 1.78 0 0180.25.002q7.105.013 14.207.013c.23 0 .46.021.712.032.031.186.066.333.078.485.011.181 0 .362 0 .544v48.833a4.412 4.412 0 01-.044.971c-.628.1-10.468.117-11.339.026a3.454 3.454 0 01-.074-.424c-.013-.231 0-.464 0-.7V31.337c0-.306-.015-.61-.023-.956-.249-.023-.448-.057-.647-.057q-3.722-.016-7.444-.026l-7.065-.023c-.2 0-.393-.016-.715-.031.2-.209.312-.338.44-.445q3.385-2.842 6.779-5.681c1.295-1.079 2.589-2.152 3.861-3.236a1.456 1.456 0 011.05-.382c.956.024 1.914.008 2.872 0 .256 0 .511-.013.809-.021a2.578 2.578 0 00.089-.458c.01-.7 0-1.4 0-2.094V7.063c-.212-.244-.432-.18-.629-.183a2.912 2.912 0 00-2.443.694L14.735 50.4a2.387 2.387 0 01-1.942.565H.914A2.2 2.2 0 010 50.869z"/><path d="M402.881 16.055c-.152-.7-.246-1.317-.42-1.906a7.3 7.3 0 00-.594-1.421 1.6 1.6 0 00-1.588-.9c-.382.024-.767.01-1.193.013a5.079 5.079 0 00-.068.557v2.788c0 .254-.016.508-.024.749a2.822 2.822 0 01-1.577.074 2.767 2.767 0 01-.067-.429V6.599c0-.15.03-.3.042-.447a3.9 3.9 0 011.456-.282 7.8 7.8 0 012.854.094 4.128 4.128 0 011.334.6 2.771 2.771 0 01.3 4.207c-.154.138-.316.265-.505.422a1.132 1.132 0 00.136.248 4.14 4.14 0 011 1.9c.195.809.336 1.618.5 2.427a.994.994 0 01-.019.251 6.848 6.848 0 01-1.567.036zm-3.836-5.779a7.2 7.2 0 002.23 0 2.976 2.976 0 00.647-.254 1.086 1.086 0 00.523-.647 1.4 1.4 0 00-.955-1.9 2.647 2.647 0 00-.681-.136 18.057 18.057 0 00-1.317-.016 2.343 2.343 0 00-.443.1z"/></g></svg>