<svg xmlns="http://www.w3.org/2000/svg" width="68.927" height="81.749"><defs><linearGradient id="a" y1=".5" x2="1" y2=".5" gradientUnits="objectBoundingBox"><stop offset="0" stop-color="#edd32e"/><stop offset="1" stop-color="#e4b300"/></linearGradient></defs><path d="M295.941 65.2l-7.624-10.831 2.955-21.941.058-.432-.271-.324L263.888 0l25.384 32.565-2.5 18.558-24.65-35.2-.478-.744-.012-.018-23.7 34.97-2.951-17.581L260.112.3l-26.928 31.368-.284.332.077.452 3.523 20.989-8.2 11.759-.639.918.973.5 29.2 15.131-27.324-16.29 6.927-9.935 21.453 18.959.086-2.471-6.4-5.676-13.117-11.646 9.886-14.526L250 49.6l.009-.123.8-11.457h-.006l1.393-2.054 7.85-11.535L261.625 47l.021-.3 1.565-22.423 8.908 12.664.781 1.111.806 11.552.009-.123.648-9.343L285.029 55.3 266.4 71.537c-.022-1.87-.047-3.907-.059-4.183q-.075-1.417-.174-2.83l-.108-1.413-.121-1.412-.012-.159-.108-.188-.706-1.254c-.232-.419-.477-.832-.715-1.247s-.479-.831-.724-1.243l-.736-1.238-.818-1.37-.068-.116-.821 1.521-.67 1.242c-.222.413-.438.825-.654 1.246s-.441.83-.648 1.251l-.648 1.256-.091.176-.017.138-.121 1.405c-.039.47-.071.94-.108 1.41q-.1 1.405-.173 2.825c-.018.361-.034 2.2-.048 3.834l.92.816c.108-1.816.665-6.357.829-7.285.08-.466.164-.93.24-1.394l.2-1.2.643-1.092c.24-.405.467-.817.7-1.226.184-.324.365-.64.54-.963l.01-.017q.306.5.62 1.005c.254.406.5.816.763 1.219l.688 1.081.192 1.182.24 1.4c.165.93.917 8 1.037 9.9l.748-.494 20.705-18.041 6.6 9.385-27.311 16.282 29.2-15.131.973-.5z" transform="translate(-227.66)" fill="url(#a)"/></svg>