<svg xmlns="http://www.w3.org/2000/svg" width="407.481" height="50.762" viewBox="0 0 407.481 50.762"><g transform="translate(0 0)"><path d="M2438.241,23.059a2.379,2.379,0,0,0-.126.512,4.723,4.723,0,0,1-.35,1.573,8.479,8.479,0,0,1-6.658,5.586,8.722,8.722,0,1,1,6.795-11.162,10.328,10.328,0,0,1,.2,1.056c.039.2.092.388.139.582Zm-8.653-8.52a7.616,7.616,0,1,0-.029,15.233,7.616,7.616,0,0,0,.029-15.233Z" transform="translate(-2030.76 -11.257)" fill="#dcb533"/><path d="M1855.273,55.392q-3.8-4.567-7.574-9.1a1.688,1.688,0,0,1-.143-.234c.1-.181.241-.129.359-.134.283-.01.567,0,.851,0h77.444c.258-.25.172-.522.174-.767V37.127c0-.2-.021-.406-.034-.645a3.986,3.986,0,0,0-.466-.076c-.284-.011-.567,0-.851,0h-69.284a11.012,11.012,0,0,1-1.845-.122,6.363,6.363,0,0,1-3.262-1.658,9.654,9.654,0,0,1-3.159-6.269,18.337,18.337,0,0,1-.1-1.934c-.009-2.96,0-5.919,0-8.88a12.218,12.218,0,0,1,.256-2.6,9.578,9.578,0,0,1,3.348-5.5,6.445,6.445,0,0,1,4.2-1.512h78.025a3.382,3.382,0,0,1,.894.042.631.631,0,0,1-.019.187l-7.644,9.222c-.231.015-.434.032-.645.037h-69.361a3.208,3.208,0,0,0-1.109.076,18.174,18.174,0,0,0-.05,2.3c-.013.8,0,1.6,0,2.393V24.51c0,.774-.026,1.537.026,2.355.182.023.322.053.469.058.258.008.516,0,.774,0h69.361a11.785,11.785,0,0,1,1.773.119,6.251,6.251,0,0,1,3.223,1.562,9.557,9.557,0,0,1,3.165,5.52,10.112,10.112,0,0,1,.194,1.839q.024,5.212,0,10.424a9.644,9.644,0,0,1-1.368,4.925,9.4,9.4,0,0,1-2.079,2.471,6.54,6.54,0,0,1-4.327,1.6h-71.223Z" transform="translate(-1549.662 -6.643)" fill="#dcb533"/><path d="M1333.038,8c-.364.614-7.11,8.765-7.834,9.491h-70.611a2.585,2.585,0,0,0-.368.066,1.169,1.169,0,0,0-.063.245v8.878a1.191,1.191,0,0,0,.068.259c.142.016.288.044.437.048.256.008.514,0,.772,0h37.115a4.286,4.286,0,0,1,.88.029c.029.068.047.092.045.116a.117.117,0,0,1-.029.071l-7.655,9.241c-.338,0-.67.018-1,.018h-29.535c-.322,0-.661.011-1.032.019a2.636,2.636,0,0,0-.066.4v8.724a2.086,2.086,0,0,0,.039.271,2.726,2.726,0,0,0,.419.087c.283.015.567,0,.851,0h77.455c.1.295-.116.413-.235.556q-1.919,2.322-3.85,4.635l-3.005,3.639c-.181.216-.366.429-.564.659h-.781q-35.064,0-70.128.011A7.094,7.094,0,0,1,1248.831,53a9.948,9.948,0,0,1-2.559-6.308c-.014-.284-.011-.566-.011-.849V17.583a11.052,11.052,0,0,1,.786-4.3,9.6,9.6,0,0,1,2.417-3.449,6.641,6.641,0,0,1,4.7-1.84h78.879Z" transform="translate(-1045.414 -6.705)" fill="#dcb533"/><path d="M732.938,36.358a11.885,11.885,0,0,0,2.06.093c.688.006,1.339,0,2.01,0s1.384-.029,2.124.027c.026.179.056.322.063.467.01.206,0,.413,0,.617V55.152c-.24.134-.295-.069-.379-.161q-2.132-2.546-4.255-5.1c-.956-1.147-1.9-2.3-2.873-3.438a1.581,1.581,0,0,1-.4-1.117c.015-2.651.01-5.3,0-7.952a2.082,2.082,0,0,0-.076-.864,2.919,2.919,0,0,0-.369-.058c-1.79-.079-54.132-.023-54.78.061a2.926,2.926,0,0,0-.087.416c-.016.23,0,.463,0,.695V55.154c-.309.04-.39-.184-.508-.322q-2.056-2.456-4.1-4.925c-.967-1.168-1.934-2.343-2.92-3.5a1.485,1.485,0,0,1-.379-1.044c.016-2.651,0-5.3,0-7.953,0-.28,0-.561-.013-.806a1.1,1.1,0,0,0-.788-.143h-5.955a3.69,3.69,0,0,0-.463,0,1.142,1.142,0,0,1-1.118-.506c-1.41-1.739-2.856-3.45-4.29-5.173q-1.334-1.6-2.666-3.207c-.124-.15-.3-.277-.313-.483.037-.052.048-.076.068-.087a.185.185,0,0,1,.074-.018.645.645,0,0,1,.076,0h78.265a.617.617,0,0,0,.077,0,.637.637,0,0,0,.076-.016l.119-.035a2.066,2.066,0,0,0,.081-.408v-8.57a3.2,3.2,0,0,0-.047-.393,3.1,3.1,0,0,0-.392-.069c-.284-.01-.567,0-.849,0H661.272a2.6,2.6,0,0,1-1.063-.081c-.3-.143-.5-.495-.735-.77q-3.312-3.979-6.615-7.961c-.15-.2-.276-.38-.4-.541.093-.2.238-.147.356-.161.2-.01.412,0,.619,0h77.4a11.42,11.42,0,0,1,1.694.1,6.345,6.345,0,0,1,3.3,1.586,9.61,9.61,0,0,1,3.2,5.752,12.525,12.525,0,0,1,.161,2c.016,3.223,0,6.433.01,9.65a10.952,10.952,0,0,1-.483,3.27,9.639,9.639,0,0,1-2.638,4.2A7.962,7.962,0,0,1,732.938,36.358Z" transform="translate(-547.311 -6.686)" fill="#dcb533"/><path d="M0,50.646c.3-.21.525-.371.754-.517q6.509-4.158,13.025-8.313L78.446.545a3.432,3.432,0,0,0,.322-.206,1.773,1.773,0,0,1,1.154-.351Q87,0,94.072,0c.229,0,.458.021.709.032.031.185.066.332.077.483.011.18,0,.361,0,.541V49.691a4.393,4.393,0,0,1-.044.967c-.625.1-10.425.116-11.292.026a3.44,3.44,0,0,1-.074-.422c-.013-.23,0-.463,0-.695V31.194c0-.3-.015-.608-.023-.952-.248-.023-.446-.056-.645-.056q-3.707-.016-7.413-.026l-7.036-.023c-.2,0-.392-.016-.712-.031.2-.208.311-.337.438-.443q3.371-2.83,6.751-5.658c1.289-1.075,2.579-2.143,3.845-3.223A1.45,1.45,0,0,1,79.7,20.4c.952.024,1.907.008,2.861,0,.255,0,.509-.013.806-.021a2.568,2.568,0,0,0,.089-.456c.01-.695,0-1.391,0-2.085V7.019c-.211-.243-.43-.179-.627-.182a2.9,2.9,0,0,0-2.433.691L14.675,50.179a2.377,2.377,0,0,1-1.934.562H.911A2.195,2.195,0,0,1,0,50.646Z" transform="translate(0 0.015)" fill="#dcb533"/><path d="M2461.039,45.962c-.152-.7-.245-1.312-.419-1.9a7.263,7.263,0,0,0-.592-1.415,1.591,1.591,0,0,0-1.581-.9c-.381.024-.764.01-1.188.013a5.038,5.038,0,0,0-.068.554v2.777c0,.253-.016.506-.024.746a2.81,2.81,0,0,1-1.571.074,2.774,2.774,0,0,1-.066-.427V36.54c0-.15.029-.3.042-.445a3.888,3.888,0,0,1,1.451-.28,7.77,7.77,0,0,1,2.842.093,4.111,4.111,0,0,1,1.329.595,2.76,2.76,0,0,1,.294,4.19c-.153.137-.315.264-.5.421a1.134,1.134,0,0,0,.136.247,4.119,4.119,0,0,1,1,1.89c.194.806.335,1.612.5,2.417a.975.975,0,0,1-.02.25A6.817,6.817,0,0,1,2461.039,45.962Zm-3.821-5.755a7.176,7.176,0,0,0,2.221,0,2.962,2.962,0,0,0,.645-.253,1.082,1.082,0,0,0,.521-.645,1.393,1.393,0,0,0-.951-1.892,2.631,2.631,0,0,0-.678-.135c-.435-.024-.873-.024-1.312-.016a2.334,2.334,0,0,0-.441.1Z" transform="translate(-2059.801 -29.969)" fill="#dcb533"/></g></svg>