<svg xmlns="http://www.w3.org/2000/svg" xmlns:xlink="http://www.w3.org/1999/xlink" width="222.136" height="206.819" viewBox="0 0 222.136 206.819"><defs><linearGradient id="linear-gradient" y1="0.5" x2="1" y2="0.5" gradientUnits="objectBoundingBox"><stop offset="0" stop-color="#edd32e"/><stop offset="1" stop-color="#e4b300"/></linearGradient></defs><g id="logo-preloader" transform="translate(8523.684 -7048.87)"><g id="logo-preloader-stroke" transform="translate(-8523 7049)"><path id="text" d="M18.261,984.073a2.71,2.71,0,0,1-.42,1.775,2.021,2.021,0,0,1-1.529.458H11.629a2.021,2.021,0,0,1-1.529-.458,2.723,2.723,0,0,1-.42-1.775v-4.98a2.709,2.709,0,0,1,.42-1.775,2.041,2.041,0,0,1,1.529-.458h4.684q1.4,0,1.735.787a7.491,7.491,0,0,1,.214,2.344l-1.815.347v-1.793h-4.94v5.987h4.93V982.5l1.815.458Z" transform="translate(-7.728 -779.819)" fill="none" stroke="#dcb533" stroke-width="0.4"/><path id="text-2" data-name="text" d="M126.524,984.073a2.72,2.72,0,0,1-.418,1.775,2.025,2.025,0,0,1-1.529.458H118.8a2.021,2.021,0,0,1-1.529-.458,2.725,2.725,0,0,1-.418-1.775v-4.98a2.719,2.719,0,0,1,.418-1.775,2.037,2.037,0,0,1,1.529-.458h5.781a2.033,2.033,0,0,1,1.529.458,2.708,2.708,0,0,1,.418,1.775Zm-1.825.458v-5.987h-6.023v5.987Z" transform="translate(-93.28 -779.819)" fill="none" stroke="#dcb533" stroke-width="0.4"/><path id="text-3" data-name="text" d="M239.959,986.306h-2.622l-3.157-3.568h-1.735v3.57h-1.8V976.86h6.727q1.765,0,1.765,1.829v2.219q0,1.374-.912,1.7a7.868,7.868,0,0,1-1.888.127Zm-2.582-5.932V979.24c0-.319-.075-.524-.228-.623a1.007,1.007,0,0,0-.593-.127h-4.111v2.634h4.107a1.008,1.008,0,0,0,.593-.129C237.3,980.9,237.377,980.693,237.377,980.374Z" transform="translate(-184.126 -779.819)" fill="none" stroke="#dcb533" stroke-width="0.4"/><path id="text-4" data-name="text" d="M346.384,980.8q0,1.83-1.765,1.832h-4.934v3.679h-1.8V976.86h6.723q1.765,0,1.765,1.829Zm-1.765-.549v-1.008c0-.319-.075-.525-.228-.623a1.008,1.008,0,0,0-.593-.127h-4.113v2.507h4.107a1.008,1.008,0,0,0,.593-.127c.153-.1.228-.3.228-.621Z" transform="translate(-269.734 -779.819)" fill="none" stroke="#dcb533" stroke-width="0.4"/><path id="text-5" data-name="text" d="M449.524,984.073a2.719,2.719,0,0,1-.418,1.775,2.022,2.022,0,0,1-1.529.458H441.8a2.025,2.025,0,0,1-1.529-.458,2.712,2.712,0,0,1-.418-1.775v-4.98a2.719,2.719,0,0,1,.418-1.775,2.033,2.033,0,0,1,1.529-.458h5.781a2.029,2.029,0,0,1,1.529.458,2.707,2.707,0,0,1,.418,1.775Zm-1.826.458v-5.987h-6.023v5.987Z" transform="translate(-351.129 -779.819)" fill="none" stroke="#dcb533" stroke-width="0.4"/><path id="text-6" data-name="text" d="M562.961,986.306h-2.622l-3.159-3.568h-1.735v3.57h-1.8V976.86h6.727q1.765,0,1.763,1.829v2.219q0,1.374-.912,1.7a7.854,7.854,0,0,1-1.886.127Zm-2.584-5.932V979.24a.693.693,0,0,0-.23-.623,1.008,1.008,0,0,0-.593-.127h-4.109v2.634h4.107a1.008,1.008,0,0,0,.593-.129Q560.377,980.852,560.377,980.374Z" transform="translate(-441.974 -779.819)" fill="none" stroke="#dcb533" stroke-width="0.4"/><path id="text-7" data-name="text" d="M661.349,986.306H659.3l-.944-2.068h-4.974l-.912,2.068H650.64l4.438-9.446h1.765Zm-3.758-3.77-1.688-3.847-1.749,3.847Z" transform="translate(-519.4 -779.819)" fill="none" stroke="#dcb533" stroke-width="0.4"/><path id="text-8" data-name="text" d="M758.047,978.544h-3.631v7.762H752.6v-7.762H749V976.86h9.051Z" transform="translate(-597.921 -779.819)" fill="none" stroke="#dcb533" stroke-width="0.4"/><path id="text-9" data-name="text" d="M853.555,986.306H851.74V976.86h1.815Z" transform="translate(-679.937 -779.819)" fill="none" stroke="#dcb533" stroke-width="0.4"/><path id="text-10" data-name="text" d="M936.256,984.073a2.719,2.719,0,0,1-.42,1.775,2.03,2.03,0,0,1-1.529.458h-5.781a2.016,2.016,0,0,1-1.527-.458,2.723,2.723,0,0,1-.42-1.775v-4.98a2.709,2.709,0,0,1,.42-1.775,2.037,2.037,0,0,1,1.527-.458h5.781a2.029,2.029,0,0,1,1.529.458,2.719,2.719,0,0,1,.42,1.775Zm-1.815.458v-5.987h-6.035v5.987Z" transform="translate(-739.681 -779.819)" fill="none" stroke="#dcb533" stroke-width="0.4"/><path id="text-11" data-name="text" d="M1049.542,986.306H1048.3l-5.765-5.85a6.274,6.274,0,0,1-.656-.769c.052.605.077,1.091.077,1.446V986.3h-1.642V976.86h1.246l5.523,5.565a9.688,9.688,0,0,1,.9,1.025c-.052-.877-.077-1.412-.077-1.628V976.86h1.642Z" transform="translate(-830.471 -779.819)" fill="none" stroke="#dcb533" stroke-width="0.4"/><path id="title" d="M8663.127-7025.905v-5.46h-31.762v10.92l-4.542-5.46v-5.46h-4.535l-4.544-5.46h45.383v-5.46h-40.839l-4.544-5.467h45.383a4.061,4.061,0,0,1,3.216,1.608,5.838,5.838,0,0,1,1.329,3.859v5.46a5.815,5.815,0,0,1-1.332,3.859,4.033,4.033,0,0,1-3.206,1.6h4.531v10.92Z" transform="translate(-8557.339 7210.417)" fill="none" stroke="#dcb533" stroke-width="0.4"/><path id="title-2" data-name="title" d="M617.869,811.906l4.538-5.466H577.031a4.022,4.022,0,0,0-3.207,1.614,5.816,5.816,0,0,0-1.331,3.859v16.381a5.85,5.85,0,0,0,1.331,3.861,4.022,4.022,0,0,0,3.207,1.6h40.838l4.546-5.466H577.031v-5.46h18.154l4.536-5.46h-22.69v-5.46Z" transform="translate(-457.014 -643.774)" fill="none" stroke="#dcb533" stroke-width="0.4"/><path id="title-3" data-name="title" d="M893.63,817.367h-40.84v-5.46h40.84l4.538-5.466H852.784a4.025,4.025,0,0,0-3.207,1.614,5.815,5.815,0,0,0-1.331,3.859v5.46a5.849,5.849,0,0,0,1.331,3.861,4.022,4.022,0,0,0,3.207,1.6h40.84v5.46H848.24l4.538,5.46h40.84a4.039,4.039,0,0,0,3.209-1.6,5.833,5.833,0,0,0,1.329-3.861v-5.466a5.85,5.85,0,0,0-1.329-3.859A4.015,4.015,0,0,0,893.63,817.367Z" transform="translate(-677.143 -643.774)" fill="none" stroke="#dcb533" stroke-width="0.4"/><path id="title-4" data-name="title" d="M0,831.923H8.036l38.877-25.274h1.136v7.814H45.56L38.9,820.055l9.154.04v11.828H54.6V802.71H45.689Z" transform="translate(0 -640.796)" fill="none" stroke="#dcb533" stroke-width="0.4"/><path id="shape" d="M355.089,121.673l-14.228-20.213,5.515-40.947.109-.807-.506-.605L295.271,0l47.373,60.775L337.98,95.408l-46-65.7-.892-1.388-.022-.034L246.83,93.552l-5.507-32.806L288.223.555,237.969,59.1l-.533.617.143.843,6.574,39.174-15.3,21.946-1.192,1.712,1.815.932,54.491,28.239-50.994-30.4L245.9,103.622,285.938,139l.161-4.611L274.162,123.8h0L249.68,102.064l18.45-27.11,1.228,17.607.016-.23,1.493-21.381h-.012l2.6-3.832,14.65-21.526,2.941,42.115.038-.557L294.006,45.3l16.625,23.634,1.458,2.074,1.5,21.559.016-.23L314.82,74.9l19.9,28.3L299.95,133.507c-.04-3.49-.087-7.292-.111-7.806q-.139-2.644-.325-5.281l-.2-2.636-.226-2.634-.022-.3-.2-.351-1.317-2.34c-.434-.783-.89-1.553-1.335-2.328s-.894-1.551-1.352-2.32l-1.374-2.31-1.517-2.56-.127-.216-1.533,2.838-1.251,2.318c-.413.771-.817,1.539-1.22,2.326s-.823,1.549-1.21,2.334l-1.21,2.344-.169.329-.032.258-.226,2.622c-.073.877-.133,1.755-.2,2.632q-.192,2.622-.323,5.273c-.034.674-.062,4.1-.089,7.155l1.716,1.523c.2-3.389,1.241-11.865,1.547-13.6.149-.869.307-1.735.448-2.6l.365-2.237,1.2-2.037c.448-.756.871-1.525,1.307-2.287.343-.605.682-1.194,1.009-1.8l.018-.032q.571.94,1.158,1.876c.474.758.938,1.523,1.424,2.275l1.285,2.017.359,2.207.448,2.606c.309,1.735,1.71,14.926,1.934,18.47l1.4-.922,38.641-33.669,12.326,17.514-50.97,30.391,54.491-28.239,1.815-.938Z" transform="translate(-181.739)" fill="none" stroke="#dcb533" stroke-width="0.4"/></g><g id="logo-preloader-fill" transform="translate(-8523 7049)"><path id="text-12" data-name="text" d="M18.261,984.073a2.71,2.71,0,0,1-.42,1.775,2.021,2.021,0,0,1-1.529.458H11.629a2.021,2.021,0,0,1-1.529-.458,2.723,2.723,0,0,1-.42-1.775v-4.98a2.709,2.709,0,0,1,.42-1.775,2.041,2.041,0,0,1,1.529-.458h4.684q1.4,0,1.735.787a7.491,7.491,0,0,1,.214,2.344l-1.815.347v-1.793h-4.94v5.987h4.93V982.5l1.815.458Z" transform="translate(-7.728 -779.819)" fill="#e4b300"/><path id="text-13" data-name="text" d="M126.524,984.073a2.72,2.72,0,0,1-.418,1.775,2.025,2.025,0,0,1-1.529.458H118.8a2.021,2.021,0,0,1-1.529-.458,2.725,2.725,0,0,1-.418-1.775v-4.98a2.719,2.719,0,0,1,.418-1.775,2.037,2.037,0,0,1,1.529-.458h5.781a2.033,2.033,0,0,1,1.529.458,2.708,2.708,0,0,1,.418,1.775Zm-1.825.458v-5.987h-6.023v5.987Z" transform="translate(-93.28 -779.819)" fill="#e4b300"/><path id="text-14" data-name="text" d="M239.959,986.306h-2.622l-3.157-3.568h-1.735v3.57h-1.8V976.86h6.727q1.765,0,1.765,1.829v2.219q0,1.374-.912,1.7a7.868,7.868,0,0,1-1.888.127Zm-2.582-5.932V979.24c0-.319-.075-.524-.228-.623a1.007,1.007,0,0,0-.593-.127h-4.111v2.634h4.107a1.008,1.008,0,0,0,.593-.129C237.3,980.9,237.377,980.693,237.377,980.374Z" transform="translate(-184.126 -779.819)" fill="#e4b300"/><path id="text-15" data-name="text" d="M346.384,980.8q0,1.83-1.765,1.832h-4.934v3.679h-1.8V976.86h6.723q1.765,0,1.765,1.829Zm-1.765-.549v-1.008c0-.319-.075-.525-.228-.623a1.008,1.008,0,0,0-.593-.127h-4.113v2.507h4.107a1.008,1.008,0,0,0,.593-.127c.153-.1.228-.3.228-.621Z" transform="translate(-269.734 -779.819)" fill="#e4b300"/><path id="text-16" data-name="text" d="M449.524,984.073a2.719,2.719,0,0,1-.418,1.775,2.022,2.022,0,0,1-1.529.458H441.8a2.025,2.025,0,0,1-1.529-.458,2.712,2.712,0,0,1-.418-1.775v-4.98a2.719,2.719,0,0,1,.418-1.775,2.033,2.033,0,0,1,1.529-.458h5.781a2.029,2.029,0,0,1,1.529.458,2.707,2.707,0,0,1,.418,1.775Zm-1.826.458v-5.987h-6.023v5.987Z" transform="translate(-351.129 -779.819)" fill="#e4b300"/><path id="text-17" data-name="text" d="M562.961,986.306h-2.622l-3.159-3.568h-1.735v3.57h-1.8V976.86h6.727q1.765,0,1.763,1.829v2.219q0,1.374-.912,1.7a7.854,7.854,0,0,1-1.886.127Zm-2.584-5.932V979.24a.693.693,0,0,0-.23-.623,1.008,1.008,0,0,0-.593-.127h-4.109v2.634h4.107a1.008,1.008,0,0,0,.593-.129Q560.377,980.852,560.377,980.374Z" transform="translate(-441.974 -779.819)" fill="#e4b300"/><path id="text-18" data-name="text" d="M661.349,986.306H659.3l-.944-2.068h-4.974l-.912,2.068H650.64l4.438-9.446h1.765Zm-3.758-3.77-1.688-3.847-1.749,3.847Z" transform="translate(-519.4 -779.819)" fill="#e4b300"/><path id="text-19" data-name="text" d="M758.047,978.544h-3.631v7.762H752.6v-7.762H749V976.86h9.051Z" transform="translate(-597.921 -779.819)" fill="#e4b300"/><path id="text-20" data-name="text" d="M853.555,986.306H851.74V976.86h1.815Z" transform="translate(-679.937 -779.819)" fill="#e4b300"/><path id="text-21" data-name="text" d="M936.256,984.073a2.719,2.719,0,0,1-.42,1.775,2.03,2.03,0,0,1-1.529.458h-5.781a2.016,2.016,0,0,1-1.527-.458,2.723,2.723,0,0,1-.42-1.775v-4.98a2.709,2.709,0,0,1,.42-1.775,2.037,2.037,0,0,1,1.527-.458h5.781a2.029,2.029,0,0,1,1.529.458,2.719,2.719,0,0,1,.42,1.775Zm-1.815.458v-5.987h-6.035v5.987Z" transform="translate(-739.681 -779.819)" fill="#e4b300"/><path id="text-22" data-name="text" d="M1049.542,986.306H1048.3l-5.765-5.85a6.274,6.274,0,0,1-.656-.769c.052.605.077,1.091.077,1.446V986.3h-1.642V976.86h1.246l5.523,5.565a9.688,9.688,0,0,1,.9,1.025c-.052-.877-.077-1.412-.077-1.628V976.86h1.642Z" transform="translate(-830.471 -779.819)" fill="#e4b300"/><path id="title-5" data-name="title" d="M8663.127-7025.905v-5.46h-31.762v10.92l-4.542-5.46v-5.46h-4.535l-4.544-5.46h45.383v-5.46h-40.839l-4.544-5.467h45.383a4.061,4.061,0,0,1,3.216,1.608,5.838,5.838,0,0,1,1.329,3.859v5.46a5.815,5.815,0,0,1-1.332,3.859,4.033,4.033,0,0,1-3.206,1.6h4.531v10.92Z" transform="translate(-8557.339 7210.417)" fill="#e4b300"/><path id="title-6" data-name="title" d="M617.869,811.906l4.538-5.466H577.031a4.022,4.022,0,0,0-3.207,1.614,5.816,5.816,0,0,0-1.331,3.859v16.381a5.85,5.85,0,0,0,1.331,3.861,4.022,4.022,0,0,0,3.207,1.6h40.838l4.546-5.466H577.031v-5.46h18.154l4.536-5.46h-22.69v-5.46Z" transform="translate(-457.014 -643.774)" fill="#e4b300"/><path id="title-7" data-name="title" d="M893.63,817.367h-40.84v-5.46h40.84l4.538-5.466H852.784a4.025,4.025,0,0,0-3.207,1.614,5.815,5.815,0,0,0-1.331,3.859v5.46a5.849,5.849,0,0,0,1.331,3.861,4.022,4.022,0,0,0,3.207,1.6h40.84v5.46H848.24l4.538,5.46h40.84a4.039,4.039,0,0,0,3.209-1.6,5.833,5.833,0,0,0,1.329-3.861v-5.466a5.85,5.85,0,0,0-1.329-3.859A4.015,4.015,0,0,0,893.63,817.367Z" transform="translate(-677.143 -643.774)" fill="#e4b300"/><path id="title-8" data-name="title" d="M0,831.923H8.036l38.877-25.274h1.136v7.814H45.56L38.9,820.055l9.154.04v11.828H54.6V802.71H45.689Z" transform="translate(0 -640.796)" fill="#e4b300"/><path id="shape-2" data-name="shape" d="M355.089,121.673l-14.228-20.213,5.515-40.947.109-.807-.506-.605L295.271,0l47.373,60.775L337.98,95.408l-46-65.7-.892-1.388-.022-.034L246.83,93.552l-5.507-32.806L288.223.555,237.969,59.1l-.533.617.143.843,6.574,39.174-15.3,21.946-1.192,1.712,1.815.932,54.491,28.239-50.994-30.4L245.9,103.622,285.938,139l.161-4.611L274.162,123.8h0L249.68,102.064l18.45-27.11,1.228,17.607.016-.23,1.493-21.381h-.012l2.6-3.832,14.65-21.526,2.941,42.115.038-.557L294.006,45.3l16.625,23.634,1.458,2.074,1.5,21.559.016-.23L314.82,74.9l19.9,28.3L299.95,133.507c-.04-3.49-.087-7.292-.111-7.806q-.139-2.644-.325-5.281l-.2-2.636-.226-2.634-.022-.3-.2-.351-1.317-2.34c-.434-.783-.89-1.553-1.335-2.328s-.894-1.551-1.352-2.32l-1.374-2.31-1.517-2.56-.127-.216-1.533,2.838-1.251,2.318c-.413.771-.817,1.539-1.22,2.326s-.823,1.549-1.21,2.334l-1.21,2.344-.169.329-.032.258-.226,2.622c-.073.877-.133,1.755-.2,2.632q-.192,2.622-.323,5.273c-.034.674-.062,4.1-.089,7.155l1.716,1.523c.2-3.389,1.241-11.865,1.547-13.6.149-.869.307-1.735.448-2.6l.365-2.237,1.2-2.037c.448-.756.871-1.525,1.307-2.287.343-.605.682-1.194,1.009-1.8l.018-.032q.571.94,1.158,1.876c.474.758.938,1.523,1.424,2.275l1.285,2.017.359,2.207.448,2.606c.309,1.735,1.71,14.926,1.934,18.47l1.4-.922,38.641-33.669,12.326,17.514-50.97,30.391,54.491-28.239,1.815-.938Z" transform="translate(-181.739)" fill="url(#linear-gradient)"/></g></g></svg>