<svg xmlns="http://www.w3.org/2000/svg" width="103.432" height="13.651" viewBox="0 0 103.432 13.651"><g transform="translate(0 0.015)"><g transform="translate(0 -0.015)"><path d="M1849.505,20.688l-2.037-2.447a.461.461,0,0,1-.039-.063c.026-.049.065-.035.1-.036.076,0,.153,0,.229,0h20.826c.069-.067.046-.14.047-.206V15.776c0-.055-.006-.109-.009-.173a1.064,1.064,0,0,0-.125-.02c-.076,0-.152,0-.229,0h-18.632a2.962,2.962,0,0,1-.5-.033,1.711,1.711,0,0,1-.877-.446,2.6,2.6,0,0,1-.849-1.686,4.933,4.933,0,0,1-.026-.52c0-.8,0-1.592,0-2.388a3.284,3.284,0,0,1,.069-.7,2.575,2.575,0,0,1,.9-1.479,1.733,1.733,0,0,1,1.13-.407h20.982a.911.911,0,0,1,.241.011.172.172,0,0,1-.005.05l-2.056,2.48c-.062,0-.117.009-.173.01H1849.82a.863.863,0,0,0-.3.02,4.924,4.924,0,0,0-.013.619c0,.215,0,.429,0,.644v.623c0,.208-.007.413.007.633.049.006.087.014.126.016.069,0,.139,0,.208,0H1868.5a3.171,3.171,0,0,1,.477.032,1.682,1.682,0,0,1,.867.42,2.57,2.57,0,0,1,.851,1.484,2.713,2.713,0,0,1,.052.494q.007,1.4,0,2.8a2.592,2.592,0,0,1-.368,1.324,2.526,2.526,0,0,1-.559.664,1.758,1.758,0,0,1-1.164.429h-19.153Z" transform="translate(-1767.321 -7.579)" fill="#fff"/><path d="M1269.6,8c-.1.165-1.912,2.357-2.107,2.552H1248.5a.694.694,0,0,0-.1.018.314.314,0,0,0-.017.066V13.02a.32.32,0,0,0,.018.07c.038,0,.078.012.117.013.069,0,.138,0,.208,0h9.981a1.153,1.153,0,0,1,.237.008c.008.018.012.025.012.031a.032.032,0,0,1-.008.019l-2.059,2.485c-.091,0-.18,0-.27,0h-7.943c-.087,0-.178,0-.277.005a.713.713,0,0,0-.018.109v2.346a.563.563,0,0,0,.01.073.73.73,0,0,0,.113.023c.076,0,.153,0,.229,0h20.829c.026.079-.031.111-.063.15q-.516.625-1.035,1.246l-.808.979c-.049.058-.1.115-.152.177h-.21q-9.429,0-18.859,0a1.908,1.908,0,0,1-1.486-.664,2.676,2.676,0,0,1-.688-1.7c0-.076,0-.152,0-.228v-7.6a2.973,2.973,0,0,1,.211-1.155,2.582,2.582,0,0,1,.65-.927A1.786,1.786,0,0,1,1248.385,8H1269.6Z" transform="translate(-1192.248 -7.649)" fill="#fff"/><path d="M674.1,15.606a3.2,3.2,0,0,0,.554.025c.185,0,.36,0,.54,0s.372-.008.571.007c.007.048.015.087.017.126,0,.055,0,.111,0,.166v4.73c-.065.036-.079-.019-.1-.043q-.573-.685-1.144-1.372c-.257-.309-.511-.62-.773-.924a.425.425,0,0,1-.107-.3c0-.713,0-1.425,0-2.138a.559.559,0,0,0-.02-.232.784.784,0,0,0-.1-.016c-.482-.021-14.557-.006-14.731.016a.785.785,0,0,0-.023.112c0,.062,0,.124,0,.187v4.712c-.083.011-.1-.049-.137-.087q-.553-.66-1.1-1.324c-.26-.314-.52-.63-.785-.941a.4.4,0,0,1-.1-.281c0-.713,0-1.426,0-2.139,0-.075,0-.151,0-.217a.294.294,0,0,0-.212-.039h-1.6a.991.991,0,0,0-.124,0,.307.307,0,0,1-.3-.136c-.379-.468-.768-.928-1.154-1.391l-.717-.862c-.033-.04-.081-.075-.084-.13.01-.014.013-.02.018-.023a.05.05,0,0,1,.02,0h21.088l.02,0,.032-.01a.559.559,0,0,0,.022-.11v-2.3a.867.867,0,0,0-.013-.106.834.834,0,0,0-.105-.019c-.076,0-.153,0-.228,0H654.83a.7.7,0,0,1-.286-.022c-.081-.039-.136-.133-.2-.207q-.891-1.07-1.779-2.141c-.04-.054-.074-.1-.107-.146.025-.053.064-.039.1-.043.055,0,.111,0,.166,0h20.814a3.071,3.071,0,0,1,.455.027,1.706,1.706,0,0,1,.886.426,2.585,2.585,0,0,1,.861,1.547,3.367,3.367,0,0,1,.043.537c0,.867,0,1.73,0,2.6a2.945,2.945,0,0,1-.13.879,2.592,2.592,0,0,1-.709,1.131A2.141,2.141,0,0,1,674.1,15.606Z" transform="translate(-624.183 -7.627)" fill="#fff"/><path d="M0,13.609c.082-.056.141-.1.2-.139l3.5-2.235L21.1.136A.923.923,0,0,0,21.182.08a.477.477,0,0,1,.31-.094q1.9,0,3.805,0c.062,0,.123.006.191.009.008.05.018.089.021.13s0,.1,0,.146v13.08a1.182,1.182,0,0,1-.012.26c-.168.026-2.8.031-3.037.007a.925.925,0,0,1-.02-.114c0-.062,0-.124,0-.187V8.378c0-.082,0-.163-.006-.256-.067-.006-.12-.015-.173-.015L20.268,8.1l-1.892-.006c-.053,0-.105,0-.192-.008.055-.056.084-.091.118-.119l1.815-1.522c.347-.289.693-.576,1.034-.867a.39.39,0,0,1,.281-.1c.256.007.513,0,.769,0,.068,0,.137,0,.217-.006a.691.691,0,0,0,.024-.123c0-.187,0-.374,0-.561V1.877c-.057-.065-.116-.048-.169-.049a.78.78,0,0,0-.654.186L3.946,13.483a.639.639,0,0,1-.52.151H.245A.59.59,0,0,1,0,13.609Z" transform="translate(0 0.015)" fill="#fff"/></g></g></svg>