<svg xmlns="http://www.w3.org/2000/svg" width="295.912" height="13.656" viewBox="0 0 295.912 13.656"><g transform="translate(5001 -9057)"><path d="M1.459.907H3.234A.256.256,0,0,0,3.523.618V-12.306a.256.256,0,0,0-.289-.289H1.459a.256.256,0,0,0-.289.289V.618A.256.256,0,0,0,1.459.907ZM6.8.907H8.577A.256.256,0,0,0,8.866.618V-9.875h.212L20.362.7c.154.135.231.212.405.212H23a.256.256,0,0,0,.289-.289V-12.306A.256.256,0,0,0,23-12.595H21.23a.256.256,0,0,0-.289.289V-1.812h-.212L9.445-12.383c-.154-.135-.231-.212-.405-.212H6.8a.256.256,0,0,0-.289.289V.618A.256.256,0,0,0,6.8.907ZM34.6.907h1.967c.193,0,.289-.116.405-.309L45.3-12.228c.154-.231.019-.366-.174-.366h-2.1c-.212,0-.309.116-.444.328L35.7-1.581h-.231L28.579-12.267c-.135-.212-.231-.328-.444-.328h-2.1c-.193,0-.328.135-.174.366L34.192.6C34.308.791,34.4.907,34.6.907Zm13.56,0H63.3a.256.256,0,0,0,.289-.289v-1.5a.256.256,0,0,0-.289-.289H50.221V-4.8H63.009a.256.256,0,0,0,.289-.289V-6.6a.256.256,0,0,0-.289-.289H50.221v-3.626H63.2a.256.256,0,0,0,.289-.289v-1.5a.256.256,0,0,0-.289-.289H48.157a.256.256,0,0,0-.289.289V.618A.256.256,0,0,0,48.157.907ZM69.818.984h9.239c2.662,0,4.012-1.1,4.012-3.7,0-2.392-1.292-3.684-3.993-3.838l-8.776-.5c-1.427-.077-1.89-.772-1.89-1.852,0-1.2.617-1.678,1.852-1.678h8.506c1.042,0,1.562.405,1.7,1.234a.4.4,0,0,0,.444.386h1.466a.352.352,0,0,0,.405-.386c0-2.1-1.08-3.318-3.723-3.318h-8.95c-2.662,0-4.012,1.1-4.012,3.7,0,2.392,1.292,3.684,3.993,3.838l8.776.5c1.427.077,1.89.772,1.89,1.852,0,1.2-.617,1.678-1.852,1.678h-8.8c-1.042,0-1.562-.405-1.7-1.234a.4.4,0,0,0-.444-.386H66.5a.352.352,0,0,0-.405.386C66.1-.231,67.176.984,69.818.984Zm16.048-11.5h7.04V.618A.256.256,0,0,0,93.2.907h1.736a.256.256,0,0,0,.289-.289v-11.13h7.04a.256.256,0,0,0,.289-.289v-1.5a.256.256,0,0,0-.289-.289h-16.4a.256.256,0,0,0-.289.289v1.5A.256.256,0,0,0,85.867-10.512ZM105.445.907h1.775a.256.256,0,0,0,.289-.289V-9.547h.193L113.951.618a.47.47,0,0,0,.424.289H116a.47.47,0,0,0,.424-.289l6.25-10.165h.193V.618a.256.256,0,0,0,.289.289h1.775a.256.256,0,0,0,.289-.289V-12.306a.256.256,0,0,0-.289-.289h-2.72c-.193,0-.289.1-.405.289L115.3-1.755h-.231l-6.5-10.551c-.116-.193-.212-.289-.405-.289h-2.72a.256.256,0,0,0-.289.289V.618A.256.256,0,0,0,105.445.907Zm23.05,0h15.142a.256.256,0,0,0,.289-.289v-1.5a.256.256,0,0,0-.289-.289H130.558V-4.8h12.788a.256.256,0,0,0,.289-.289V-6.6a.256.256,0,0,0-.289-.289H130.558v-3.626H143.54a.256.256,0,0,0,.289-.289v-1.5a.256.256,0,0,0-.289-.289H128.494a.256.256,0,0,0-.289.289V.618A.256.256,0,0,0,128.494.907Zm18.517,0h1.775a.256.256,0,0,0,.289-.289V-9.875h.212L160.572.7c.154.135.231.212.405.212h2.237A.256.256,0,0,0,163.5.618V-12.306a.256.256,0,0,0-.289-.289H161.44a.256.256,0,0,0-.289.289V-1.812h-.212l-11.284-10.57c-.154-.135-.231-.212-.405-.212h-2.237a.256.256,0,0,0-.289.289V.618A.256.256,0,0,0,147.012.907ZM166.4-10.512h7.04V.618a.256.256,0,0,0,.289.289h1.736a.256.256,0,0,0,.289-.289v-11.13h7.04a.256.256,0,0,0,.289-.289v-1.5a.256.256,0,0,0-.289-.289H166.4a.256.256,0,0,0-.289.289v1.5A.256.256,0,0,0,166.4-10.512Z" transform="translate(-4888.17 9069.672)" fill="#fff"/><g transform="translate(-5001 9057.015)"><g transform="translate(0 -0.015)"><path d="M1849.51,20.688l-2.037-2.447a.459.459,0,0,1-.039-.063c.026-.049.065-.035.1-.036h21.055c.069-.067.046-.14.047-.206v-2.16c0-.055-.006-.109-.009-.173a1.07,1.07,0,0,0-.125-.02h-18.861a2.961,2.961,0,0,1-.5-.033,1.711,1.711,0,0,1-.877-.446,2.6,2.6,0,0,1-.849-1.686,4.932,4.932,0,0,1-.026-.52V10.51a3.289,3.289,0,0,1,.069-.7,2.575,2.575,0,0,1,.9-1.479,1.733,1.733,0,0,1,1.13-.407h20.982a.912.912,0,0,1,.241.011.168.168,0,0,1-.005.05l-2.056,2.48c-.062,0-.117.009-.173.01H1849.82a.864.864,0,0,0-.3.02,4.918,4.918,0,0,0-.013.619v1.267c0,.208-.007.413.007.633.049.006.087.014.126.016h18.86a3.17,3.17,0,0,1,.477.032,1.682,1.682,0,0,1,.867.42,2.57,2.57,0,0,1,.851,1.484,2.718,2.718,0,0,1,.052.494q.007,1.4,0,2.8a2.589,2.589,0,0,1-.368,1.324,2.528,2.528,0,0,1-.559.664,1.758,1.758,0,0,1-1.164.429H1849.5Z" transform="translate(-1767.321 -7.579)" fill="#fff"/><path d="M1269.6,8c-.1.165-1.912,2.357-2.107,2.552H1248.5a.692.692,0,0,0-.1.018.308.308,0,0,0-.017.066V13.02a.315.315,0,0,0,.018.07c.038,0,.078.012.117.013h10.189a1.153,1.153,0,0,1,.237.008.1.1,0,0,1,.012.031.032.032,0,0,1-.008.019l-2.059,2.485h-8.213c-.087,0-.178,0-.277.005a.716.716,0,0,0-.018.109v2.346a.545.545,0,0,0,.01.073.73.73,0,0,0,.113.023h21.058c.026.079-.031.111-.063.15q-.516.625-1.035,1.246l-.808.979c-.049.058-.1.115-.152.177h-19.069a1.908,1.908,0,0,1-1.486-.664,2.676,2.676,0,0,1-.688-1.7V10.562a2.973,2.973,0,0,1,.211-1.155,2.581,2.581,0,0,1,.65-.927A1.786,1.786,0,0,1,1248.39,8Z" transform="translate(-1192.248 -7.649)" fill="#fff"/><path d="M674.1,15.606a3.2,3.2,0,0,0,.554.025h.54c.18,0,.372-.008.571.007.007.048.015.087.017.126v4.9c-.065.036-.079-.019-.1-.043q-.573-.685-1.144-1.372c-.257-.309-.511-.62-.773-.924a.425.425,0,0,1-.107-.3V15.883a.561.561,0,0,0-.02-.232.785.785,0,0,0-.1-.016c-.482-.021-14.557-.006-14.731.016a.779.779,0,0,0-.023.112c0,.062,0,.124,0,.187v4.712c-.083.011-.1-.049-.137-.087q-.553-.66-1.1-1.324c-.26-.314-.52-.63-.785-.941a.4.4,0,0,1-.1-.281V15.673a.294.294,0,0,0-.212-.039h-1.6a.991.991,0,0,0-.124,0,.307.307,0,0,1-.3-.136c-.379-.468-.768-.928-1.154-1.391l-.717-.862c-.033-.04-.081-.075-.084-.13.01-.014.013-.02.018-.023a.05.05,0,0,1,.02,0h21.108l.032-.01a.558.558,0,0,0,.022-.11v-2.3a.871.871,0,0,0-.013-.106.834.834,0,0,0-.105-.019H654.83a.7.7,0,0,1-.286-.022c-.081-.039-.136-.133-.2-.207q-.891-1.07-1.779-2.141l-.107-.146c.025-.053.064-.039.1-.043h20.98a3.071,3.071,0,0,1,.455.027,1.706,1.706,0,0,1,.886.426,2.585,2.585,0,0,1,.861,1.547,3.367,3.367,0,0,1,.043.537v2.6a2.944,2.944,0,0,1-.13.879,2.592,2.592,0,0,1-.709,1.131,2.142,2.142,0,0,1-.844.471Z" transform="translate(-624.183 -7.627)" fill="#fff"/><path d="M0,13.609c.082-.056.141-.1.2-.139l3.5-2.235L21.1.136A.923.923,0,0,0,21.182.08a.477.477,0,0,1,.31-.094H25.3c.062,0,.123.006.191.009.008.05.018.089.021.13s0,.1,0,.146v13.08a1.182,1.182,0,0,1-.012.26c-.168.026-2.8.031-3.037.007a.925.925,0,0,1-.02-.114V8.378c0-.082,0-.163-.006-.256-.067-.006-.12-.015-.173-.015L20.268,8.1l-1.892-.006a1.839,1.839,0,0,1-.192-.008c.055-.056.084-.091.118-.119l1.815-1.522c.347-.289.693-.576,1.034-.867a.39.39,0,0,1,.281-.1c.256.007.513,0,.769,0,.068,0,.137,0,.217-.006a.691.691,0,0,0,.024-.123q0-.28,0-.561V1.877c-.057-.065-.116-.048-.169-.049a.78.78,0,0,0-.654.186L3.946,13.483a.639.639,0,0,1-.52.151H.245A.59.59,0,0,1,0,13.609Z" transform="translate(0 0.015)" fill="#fff"/></g></g></g></svg>