<svg xmlns="http://www.w3.org/2000/svg" xmlns:xlink="http://www.w3.org/1999/xlink" width="227.049" height="76.359" viewBox="0 0 227.049 76.359"><defs><filter id="a" x="0" y="0" width="227.049" height="76.359" filterUnits="userSpaceOnUse"><feOffset input="SourceAlpha"/><feGaussianBlur stdDeviation="9.5" result="b"/><feFlood flood-color="#dcb533"/><feComposite operator="in" in2="b"/><feComposite in="SourceGraphic"/></filter></defs><g transform="matrix(1, 0, 0, 1, 0, 0)" filter="url(#a)"><path d="M2.913-7.241H6.37a.387.387,0,0,0,.415-.443V-20.847h.3L15.137-7.683a.742.742,0,0,0,.636.443H18.76a.748.748,0,0,0,.664-.443l8.02-13.164h.3V-7.683a.407.407,0,0,0,.443.443h3.457a.387.387,0,0,0,.415-.443V-26.157a.387.387,0,0,0-.415-.443H26.614a.674.674,0,0,0-.608.415L17.46-12.219h-.387L8.527-26.185a.674.674,0,0,0-.608-.415H2.913a.407.407,0,0,0-.443.443V-7.683A.407.407,0,0,0,2.913-7.241Zm33.188,0H57.949a.367.367,0,0,0,.415-.415v-2.959a.367.367,0,0,0-.415-.415H39.972v-4.01H57.534a.367.367,0,0,0,.415-.415v-2.932a.367.367,0,0,0-.415-.415H39.972v-4.01H57.81a.367.367,0,0,0,.415-.415v-2.959a.367.367,0,0,0-.415-.415H36.1a.407.407,0,0,0-.443.443V-7.683A.407.407,0,0,0,36.1-7.241Zm26.025,0h3.457A.387.387,0,0,0,66-7.683V-20.847h.3L74.349-7.683a.742.742,0,0,0,.636.443h2.987a.748.748,0,0,0,.664-.443l8.02-13.164h.3V-7.683a.407.407,0,0,0,.443.443h3.457a.387.387,0,0,0,.415-.443V-26.157a.387.387,0,0,0-.415-.443H85.826a.674.674,0,0,0-.608.415L76.672-12.219h-.387L67.739-26.185a.674.674,0,0,0-.608-.415H62.125a.407.407,0,0,0-.443.443V-7.683A.407.407,0,0,0,62.125-7.241Zm33.16,0H113.4c4.093,0,5.863-1.964,5.863-5.31v-1.162a3.419,3.419,0,0,0-2.517-3.374v-.36c1.327-.664,1.825-1.908,1.825-3.678v-.5c0-3.429-1.659-4.978-5.338-4.978H95.284a.367.367,0,0,0-.415.415v18.53A.367.367,0,0,0,95.284-7.241Zm3.9-3.789V-15.4H113.1c1.3,0,1.936.47,1.936,1.687v1.023c0,1.272-.636,1.659-1.936,1.659Zm0-7.8v-3.983h13.5c.913,0,1.659.028,1.659,1.687v.581c0,1.576-.747,1.715-1.687,1.715Zm23.84,11.588h21.848a.367.367,0,0,0,.415-.415v-2.959a.367.367,0,0,0-.415-.415H126.9v-4.01h17.562a.367.367,0,0,0,.415-.415v-2.932a.367.367,0,0,0-.415-.415H126.9v-4.01h17.838a.367.367,0,0,0,.415-.415v-2.959a.367.367,0,0,0-.415-.415h-21.71a.407.407,0,0,0-.442.443V-7.683A.407.407,0,0,0,123.024-7.241Zm26.025,0h3.457a.387.387,0,0,0,.415-.443v-4.591H164.9l3.1,4.563a.886.886,0,0,0,.774.47h3.125c.47,0,.8-.332.525-.719l-3.07-4.619c1.936-.664,2.793-2.351,2.793-4.757v-4.2c0-3.153-1.493-5.061-4.923-5.061h-18.17a.407.407,0,0,0-.443.443V-7.683A.407.407,0,0,0,149.048-7.241Zm3.872-8.822v-6.748h13.3c1.079,0,1.6.387,1.6,1.576v3.6c0,1.162-.525,1.576-1.6,1.576Z" transform="translate(26.03 55.1)" fill="#dcb533"/></g></svg>