<svg xmlns="http://www.w3.org/2000/svg" width="163.249" height="18.903" viewBox="0 0 163.249 18.903"><path d="M2.615-4.9H5.1A.358.358,0,0,0,5.5-5.3V-19.533h.27L14.524-5.3a.658.658,0,0,0,.594.405h2.268A.658.658,0,0,0,17.98-5.3l8.749-14.231H27V-5.3A.358.358,0,0,0,27.4-4.9h2.484a.358.358,0,0,0,.405-.405V-23.395a.358.358,0,0,0-.405-.405H26.081c-.27,0-.405.135-.567.405l-9.1,14.771H16.09L6.99-23.395c-.162-.27-.3-.405-.567-.405H2.615a.358.358,0,0,0-.405.405V-5.3A.358.358,0,0,0,2.615-4.9Zm31.594,0h21.2a.358.358,0,0,0,.405-.405V-7.409a.358.358,0,0,0-.405-.405H37.1V-12.89H55a.358.358,0,0,0,.405-.405V-15.4A.358.358,0,0,0,55-15.807H37.1v-5.077H55.272a.358.358,0,0,0,.405-.405v-2.106a.358.358,0,0,0-.405-.405H34.209a.358.358,0,0,0-.405.405V-5.3A.358.358,0,0,0,34.209-4.9Zm25.249,0h2.484a.358.358,0,0,0,.405-.405V-19.533h.27L71.367-5.3a.658.658,0,0,0,.594.405h2.268a.658.658,0,0,0,.594-.405l8.749-14.231h.27V-5.3a.358.358,0,0,0,.405.405h2.484a.358.358,0,0,0,.405-.405V-23.395a.358.358,0,0,0-.405-.405H82.924c-.27,0-.405.135-.567.405l-9.1,14.771h-.324l-9.1-14.771c-.162-.27-.3-.405-.567-.405H59.458a.358.358,0,0,0-.405.405V-5.3A.358.358,0,0,0,59.458-4.9Zm31.594,0h17.363c3.781,0,5.59-1.674,5.59-5.077v-.972a3.5,3.5,0,0,0-2.43-3.619v-.324c1.269-.648,1.755-1.863,1.755-3.592v-.513c0-3.321-1.566-4.807-5-4.807H91.052a.358.358,0,0,0-.405.405V-5.3A.358.358,0,0,0,91.052-4.9Zm2.889-2.916v-5.428H108.2c1.7,0,2.565.513,2.565,2.3v.891c0,1.782-.864,2.241-2.565,2.241Zm0-8.074v-5H107.93c1.35,0,2.16.3,2.16,2.214v.567c0,1.809-.81,2.214-2.16,2.214ZM117.651-4.9h21.2a.358.358,0,0,0,.405-.405V-7.409a.358.358,0,0,0-.405-.405H120.541V-12.89h17.9a.358.358,0,0,0,.405-.405V-15.4a.358.358,0,0,0-.405-.405h-17.9v-5.077h18.174a.358.358,0,0,0,.405-.405v-2.106a.358.358,0,0,0-.405-.405H117.651a.358.358,0,0,0-.405.405V-5.3A.358.358,0,0,0,117.651-4.9Zm25.249,0h2.484a.358.358,0,0,0,.405-.405v-4.726H158.8L161.991-5.3a.732.732,0,0,0,.648.405h2.3c.405,0,.675-.27.432-.621l-3.132-4.753c2-.567,2.943-2.187,2.943-4.645v-4c0-3.132-1.512-4.888-4.861-4.888H142.9a.358.358,0,0,0-.405.405V-5.3A.358.358,0,0,0,142.9-4.9Zm2.889-8.047v-7.939h13.826c1.566,0,2.268.621,2.268,2.241v3.456c0,1.62-.7,2.241-2.268,2.241Z" transform="translate(-2.21 23.8)" fill="#dcb533"/></svg>