<svg xmlns="http://www.w3.org/2000/svg" width="829.749" height="35.401" viewBox="0 0 829.749 35.401"><g transform="translate(-2365.175 -72.895)"><g transform="translate(7757 -8950.101)"><path d="M1.933,22.79H6.584a.671.671,0,0,0,.757-.759v-27.5H7.9l29.57,27.7c.4.355.606.557,1.062.557h5.863a.671.671,0,0,0,.759-.759V-11.835a.671.671,0,0,0-.19-.569.671.671,0,0,0-.569-.19H39.742a.671.671,0,0,0-.569.19.671.671,0,0,0-.19.569v27.5h-.557l-29.57-27.7c-.4-.355-.606-.557-1.062-.557H1.933a.671.671,0,0,0-.569.19.671.671,0,0,0-.19.569V22.031a.671.671,0,0,0,.759.759Zm51.818,0H58.4a.671.671,0,0,0,.759-.759V7.169h33.5a.671.671,0,0,0,.759-.759V2.469a.671.671,0,0,0-.759-.759H59.151V-7.135H93.169a.671.671,0,0,0,.569-.19.671.671,0,0,0,.19-.569v-3.943a.671.671,0,0,0-.19-.569.671.671,0,0,0-.569-.19H53.744a.671.671,0,0,0-.569.19.671.671,0,0,0-.19.569V22.031a.671.671,0,0,0,.759.759ZM101-7.135h18.45V22.031a.671.671,0,0,0,.759.759h4.55a.671.671,0,0,0,.759-.759V-7.135h18.45a.671.671,0,0,0,.569-.19.671.671,0,0,0,.19-.569v-3.943a.671.671,0,0,0-.19-.569.671.671,0,0,0-.569-.19H101a.671.671,0,0,0-.569.19.671.671,0,0,0-.19.569v3.943a.671.671,0,0,0,.19.569.671.671,0,0,0,.569.19Z" transform="translate(-4706.811 9035.6)" fill="#dcb533"/><g transform="translate(-5001 9023.006)"><g transform="translate(0 0)"><path d="M1852.884,41l-5.278-6.34a1.144,1.144,0,0,1-.1-.163c.068-.127.169-.091.259-.093h54.552c.179-.174.119-.363.122-.534v-5.6c0-.142-.015-.282-.023-.448a2.769,2.769,0,0,0-.324-.052h-48.867a7.669,7.669,0,0,1-1.3-.085,4.433,4.433,0,0,1-2.272-1.156,6.733,6.733,0,0,1-2.2-4.368,12.734,12.734,0,0,1-.068-1.347V14.63a8.492,8.492,0,0,1,.178-1.814,6.671,6.671,0,0,1,2.332-3.832,4.491,4.491,0,0,1,2.928-1.054h54.362a2.364,2.364,0,0,1,.624.028.429.429,0,0,1-.013.13l-5.327,6.425c-.161,0-.3.023-.448.026h-48.339a2.237,2.237,0,0,0-.777.052,12.784,12.784,0,0,0-.033,1.6v3.283c0,.539-.018,1.07.018,1.64.127.016.225.036.326.041h48.865a8.215,8.215,0,0,1,1.236.083,4.359,4.359,0,0,1,2.247,1.088,6.663,6.663,0,0,1,2.2,3.845,7.02,7.02,0,0,1,.135,1.28q.018,3.627,0,7.255a6.7,6.7,0,0,1-.953,3.431,6.547,6.547,0,0,1-1.448,1.72,4.553,4.553,0,0,1-3.015,1.112h-49.631Z" transform="translate(-1639.941 -7.037)" fill="#dcb533"/><path d="M1306.731,8c-.259.427-4.954,6.107-5.459,6.612h-49.209a1.784,1.784,0,0,0-.259.047.781.781,0,0,0-.044.171v6.177a.816.816,0,0,0,.047.181c.1,0,.2.031.3.034h26.4a2.988,2.988,0,0,1,.614.021.26.26,0,0,1,.031.08.084.084,0,0,1-.021.049l-5.334,6.439h-21.279c-.225,0-.461,0-.718.013a1.9,1.9,0,0,0-.047.282v6.078a1.371,1.371,0,0,0,.026.189,1.9,1.9,0,0,0,.293.06h54.559c.068.2-.08.288-.163.389q-1.337,1.619-2.682,3.228l-2.093,2.536c-.127.15-.259.3-.394.459h-49.406a4.943,4.943,0,0,1-3.85-1.72,6.935,6.935,0,0,1-1.783-4.4V14.639a7.7,7.7,0,0,1,.547-2.992,6.685,6.685,0,0,1,1.684-2.4A4.627,4.627,0,0,1,1251.778,8Z" transform="translate(-1106.319 -7.093)" fill="#dcb533"/><path d="M708.53,27.726a8.289,8.289,0,0,0,1.435.065h1.4c.466,0,.964-.021,1.479.018.018.124.039.225.044.326v12.7c-.168.093-.2-.049-.259-.111q-1.485-1.775-2.964-3.555c-.666-.8-1.324-1.606-2-2.394a1.1,1.1,0,0,1-.277-.777v-5.55a1.455,1.455,0,0,0-.052-.6,2.034,2.034,0,0,0-.259-.042c-1.249-.054-37.716-.016-38.167.041a2.051,2.051,0,0,0-.06.29V40.826c-.215.028-.259-.127-.355-.225q-1.433-1.71-2.85-3.43c-.674-.814-1.347-1.632-2.034-2.438A1.036,1.036,0,0,1,663.35,34V27.9a.761.761,0,0,0-.549-.1h-4.145a2.568,2.568,0,0,0-.321,0,.8.8,0,0,1-.777-.352c-.982-1.213-1.99-2.4-2.99-3.6l-1.858-2.233c-.086-.1-.21-.194-.218-.337.026-.036.034-.052.047-.06a.13.13,0,0,1,.052,0h54.689l.083-.026a1.431,1.431,0,0,0,.057-.285V14.943a2.307,2.307,0,0,0-.034-.275,2.159,2.159,0,0,0-.272-.049H658.6a1.814,1.814,0,0,1-.741-.057c-.21-.1-.352-.345-.518-.536q-2.308-2.772-4.609-5.547l-.277-.378c.065-.137.166-.1.259-.111h54.357a7.954,7.954,0,0,1,1.179.07,4.419,4.419,0,0,1,2.3,1.1,6.7,6.7,0,0,1,2.231,4.008,8.743,8.743,0,0,1,.111,1.391V21.3a7.625,7.625,0,0,1-.337,2.277,6.713,6.713,0,0,1-1.837,2.93,5.552,5.552,0,0,1-2.187,1.22Z" transform="translate(-579.2 -7.054)" fill="#dcb533"/><path d="M0,35.283c.212-.145.365-.259.518-.36l9.068-5.791L54.668.376A2.393,2.393,0,0,0,54.88.231a1.236,1.236,0,0,1,.8-.244H65.55c.161,0,.319.016.495.023.021.13.047.231.054.337s0,.259,0,.378V34.614a3.063,3.063,0,0,1-.031.674c-.435.067-7.255.08-7.869.018a2.4,2.4,0,0,1-.052-.3V21.73c0-.212,0-.422-.016-.663-.174-.016-.311-.039-.448-.039l-5.171-.018-4.9-.016a4.765,4.765,0,0,1-.5-.021c.143-.145.218-.236.306-.308l4.7-3.943c.9-.749,1.8-1.492,2.679-2.246a1.01,1.01,0,0,1,.728-.259c.663.018,1.329,0,1.992,0,.176,0,.355,0,.562-.016a1.79,1.79,0,0,0,.062-.319q0-.725,0-1.453V4.886c-.148-.168-.3-.124-.438-.127a2.021,2.021,0,0,0-1.694.482L10.224,34.956a1.656,1.656,0,0,1-1.347.391H.635A1.529,1.529,0,0,1,0,35.283Z" transform="translate(0 0.015)" fill="#dcb533"/></g></g></g><path d="M-190.075,0h4.6a.663.663,0,0,0,.75-.75V-27.1h.5l16.2,26.35a1.218,1.218,0,0,0,1.1.75h4.2a1.218,1.218,0,0,0,1.1-.75l16.2-26.35h.5V-.75a.663.663,0,0,0,.75.75h4.6a.663.663,0,0,0,.75-.75v-33.5a.663.663,0,0,0-.75-.75h-7.05c-.5,0-.75.25-1.05.75L-164.525-6.9h-.6l-16.85-27.35c-.3-.5-.55-.75-1.05-.75h-7.05a.663.663,0,0,0-.75.75V-.75A.663.663,0,0,0-190.075,0Zm58.5,0h4.6a.663.663,0,0,0,.75-.75v-33.5a.663.663,0,0,0-.75-.75h-4.6a.663.663,0,0,0-.75.75V-.75A.663.663,0,0,0-131.575,0Zm12.6,0h4.6a.663.663,0,0,0,.75-.75v-27.2h.55l29.25,27.4c.4.35.6.55,1.05.55h5.8a.663.663,0,0,0,.75-.75v-33.5a.663.663,0,0,0-.75-.75h-4.6a.663.663,0,0,0-.75.75v27.2h-.55l-29.25-27.4c-.4-.35-.6-.55-1.05-.55h-5.8a.663.663,0,0,0-.75.75V-.75A.663.663,0,0,0-118.975,0Zm49-29.6h18.25V-.75a.663.663,0,0,0,.75.75h4.5a.663.663,0,0,0,.75-.75V-29.6h18.25a.663.663,0,0,0,.75-.75v-3.9a.663.663,0,0,0-.75-.75h-42.5a.663.663,0,0,0-.75.75v3.9A.663.663,0,0,0-69.975-29.6ZM7.675,0h4.5a.663.663,0,0,0,.75-.75v-12.8l19.15-20.6c.5-.5.15-.85-.35-.85h-5.4a1.884,1.884,0,0,0-1.4.75L10.175-18.4h-.5L-5.075-34.25a1.884,1.884,0,0,0-1.4-.75h-5.4c-.5,0-.85.35-.35.85l19.15,20.6V-.75A.663.663,0,0,0,7.675,0Zm37.4.2h26.5c6.2,0,9.25-3.25,9.25-9.05v-17.3c0-5.8-3.05-9.05-9.25-9.05h-26.5c-6.2,0-9.25,3.25-9.25,9.05v17.3C35.825-3.05,38.875.2,45.075.2Zm-3.15-9.55v-16.3c0-3,1.55-4.15,4.45-4.15h23.9c2.9,0,4.45,1.15,4.45,4.15v16.3c0,3-1.55,4.15-4.45,4.15h-23.9C43.475-5.2,41.925-6.35,41.925-9.35ZM96.075,0h27c6.2,0,9-3.25,9-9.05v-25.2a.663.663,0,0,0-.75-.75h-4.6a.663.663,0,0,0-.75.75v24.7c0,3-1.3,4.15-4.2,4.15h-24.4c-2.9,0-4.2-1.15-4.2-4.15v-24.7a.663.663,0,0,0-.75-.75h-4.6a.663.663,0,0,0-.75.75v25.2C87.075-3.25,89.875,0,96.075,0Zm43.25,0h4.6a.663.663,0,0,0,.75-.75V-9.5h24.1l5.9,8.75a1.356,1.356,0,0,0,1.2.75h4.25c.75,0,1.25-.5.8-1.15l-5.8-8.8c3.7-1.05,5.45-4.05,5.45-8.6v-7.4c0-5.8-2.8-9.05-9-9.05h-32.25a.663.663,0,0,0-.75.75V-.75A.663.663,0,0,0,139.325,0Zm5.35-14.9V-29.6h25.6c2.9,0,4.2,1.15,4.2,4.15v6.4c0,3-1.3,4.15-4.2,4.15Z" transform="translate(2556 108.096)" fill="#fff"/></g></svg>