<svg xmlns="http://www.w3.org/2000/svg" width="504.24" height="630.132" viewBox="0 0 504.24 630.132">
                                        <g id="slider-shape" transform="translate(7833.237 -7515.773)">
                                            <path id="slider-shape-fill-bg" d="M-8680.712,8389.211l203.157-248.8,205.431,245.955-19.54,159.27,9.829,28.219,27.9,33.292,15.22,27.269-238.842,136.128-241.188-136.128,67.1-88.779Z" transform="translate(896 -624.638)" fill="#141414" />
                                            <path
                                                id="slider-shape-fill"
                                                d="M725.708,475.549l-55.611-79,21.554-160.038.425-3.153L690.1,230.99,491.911,0,677.066,237.534,658.84,372.9l-179.8-256.77-3.485-5.424-.086-.134L302.586,365.643,281.064,237.423,464.366,2.168,267.953,230.99l-2.081,2.412.56,3.3,25.693,153.108L232.319,475.58l-4.659,6.693,7.1,3.642L447.731,596.286,248.425,477.464,298.952,405,455.434,543.285l.631-18.022-46.656-41.4h0l-95.684-84.946,72.112-105.956,4.8,68.816.063-.9,5.834-83.567h-.047l10.162-14.979,57.259-84.134L475.4,342.8l.15-2.176,11.416-163.554,64.977,92.373,5.7,8.1,5.881,84.26.063-.9,4.73-68.146,77.8,110.592L510.2,521.8c-.158-13.639-.339-28.5-.434-30.51q-.544-10.335-1.269-20.639l-.789-10.3-.883-10.3-.086-1.159-.789-1.372-5.148-9.145c-1.695-3.059-3.477-6.07-5.219-9.1s-3.492-6.062-5.282-9.066l-5.369-9.027-5.929-10-.5-.844-5.992,11.092-4.888,9.058c-1.616,3.012-3.193,6.015-4.77,9.09s-3.217,6.055-4.73,9.121l-4.73,9.161-.662,1.285-.126,1.009-.883,10.249c-.284,3.429-.52,6.859-.789,10.288q-.749,10.249-1.261,20.608c-.134,2.633-.244,16.043-.347,27.963l6.709,5.952c.789-13.245,4.848-46.372,6.047-53.136.583-3.4,1.2-6.78,1.75-10.17l1.427-8.743,4.691-7.962c1.75-2.956,3.406-5.96,5.108-8.94,1.34-2.365,2.665-4.667,3.942-7.024l.071-.126q2.231,3.674,4.525,7.332c1.853,2.964,3.666,5.952,5.566,8.893l5.022,7.884,1.4,8.625,1.75,10.186c1.206,6.78,6.685,58.339,7.56,72.19l5.455-3.6L661.386,409.026l48.177,68.454L510.351,596.263,723.327,485.892l7.1-3.666Z"
                                                transform="translate(-8059.768 7532.893)"
                                                fill="#1a1a1a"
                                            />
                                            <path
                                                id="slider-shape-stroke-1"
                                                d="M725.708,475.549l-55.611-79,21.554-160.038.425-3.153L690.1,230.99,491.911,0,677.066,237.534,658.84,372.9l-179.8-256.77-3.485-5.424-.086-.134L302.586,365.643,281.064,237.423,464.366,2.168,267.953,230.99l-2.081,2.412.56,3.3,25.693,153.108L232.319,475.58l-4.659,6.693,7.1,3.642L447.731,596.286,248.425,477.464,298.952,405,455.434,543.285l.631-18.022-46.656-41.4h0l-95.684-84.946,72.112-105.956,4.8,68.816.063-.9,5.834-83.567h-.047l10.162-14.979,57.259-84.134L475.4,342.8l.15-2.176,11.416-163.554,64.977,92.373,5.7,8.1,5.881,84.26.063-.9,4.73-68.146,77.8,110.592L510.2,521.8c-.158-13.639-.339-28.5-.434-30.51q-.544-10.335-1.269-20.639l-.789-10.3-.883-10.3-.086-1.159-.789-1.372-5.148-9.145c-1.695-3.059-3.477-6.07-5.219-9.1s-3.492-6.062-5.282-9.066l-5.369-9.027-5.929-10-.5-.844-5.992,11.092-4.888,9.058c-1.616,3.012-3.193,6.015-4.77,9.09s-3.217,6.055-4.73,9.121l-4.73,9.161-.662,1.285-.126,1.009-.883,10.249c-.284,3.429-.52,6.859-.789,10.288q-.749,10.249-1.261,20.608c-.134,2.633-.244,16.043-.347,27.963l6.709,5.952c.789-13.245,4.848-46.372,6.047-53.136.583-3.4,1.2-6.78,1.75-10.17l1.427-8.743,4.691-7.962c1.75-2.956,3.406-5.96,5.108-8.94,1.34-2.365,2.665-4.667,3.942-7.024l.071-.126q2.231,3.674,4.525,7.332c1.853,2.964,3.666,5.952,5.566,8.893l5.022,7.884,1.4,8.625,1.75,10.186c1.206,6.78,6.685,58.339,7.56,72.19l5.455-3.6L661.386,409.026l48.177,68.454L510.351,596.263,723.327,485.892l7.1-3.666Z"
                                                transform="translate(-8060.16 7532.5)"
                                                fill="none"
                                                stroke="#dcb533"
                                                stroke-width="1"
                                            />
                                            <path
                                                id="slider-shape-stroke-2"
                                                d="M725.708,475.549l-55.611-79,21.554-160.038.425-3.153L690.1,230.99,491.911,0,677.066,237.534,658.84,372.9l-179.8-256.77-3.485-5.424-.086-.134L302.586,365.643,281.064,237.423,464.366,2.168,267.953,230.99l-2.081,2.412.56,3.3,25.693,153.108L232.319,475.58l-4.659,6.693,7.1,3.642L447.731,596.286,248.425,477.464,298.952,405,455.434,543.285l.631-18.022-46.656-41.4h0l-95.684-84.946,72.112-105.956,4.8,68.816.063-.9,5.834-83.567h-.047l10.162-14.979,57.259-84.134L475.4,342.8l.15-2.176,11.416-163.554,64.977,92.373,5.7,8.1,5.881,84.26.063-.9,4.73-68.146,77.8,110.592L510.2,521.8c-.158-13.639-.339-28.5-.434-30.51q-.544-10.335-1.269-20.639l-.789-10.3-.883-10.3-.086-1.159-.789-1.372-5.148-9.145c-1.695-3.059-3.477-6.07-5.219-9.1s-3.492-6.062-5.282-9.066l-5.369-9.027-5.929-10-.5-.844-5.992,11.092-4.888,9.058c-1.616,3.012-3.193,6.015-4.77,9.09s-3.217,6.055-4.73,9.121l-4.73,9.161-.662,1.285-.126,1.009-.883,10.249c-.284,3.429-.52,6.859-.789,10.288q-.749,10.249-1.261,20.608c-.134,2.633-.244,16.043-.347,27.963l6.709,5.952c.789-13.245,4.848-46.372,6.047-53.136.583-3.4,1.2-6.78,1.75-10.17l1.427-8.743,4.691-7.962c1.75-2.956,3.406-5.96,5.108-8.94,1.34-2.365,2.665-4.667,3.942-7.024l.071-.126q2.231,3.674,4.525,7.332c1.853,2.964,3.666,5.952,5.566,8.893l5.022,7.884,1.4,8.625,1.75,10.186c1.206,6.78,6.685,58.339,7.56,72.19l5.455-3.6L661.386,409.026l48.177,68.454L510.351,596.263,723.327,485.892l7.1-3.666Z"
                                                transform="translate(-8060.16 7532.5)"
                                                fill="none"
                                                stroke="#dcb533"
                                                stroke-width="1"
                                            />
                                            <path
                                                id="slider-shape-stroke-3"
                                                d="M725.708,475.549l-55.611-79,21.554-160.038.425-3.153L690.1,230.99,491.911,0,677.066,237.534,658.84,372.9l-179.8-256.77-3.485-5.424-.086-.134L302.586,365.643,281.064,237.423,464.366,2.168,267.953,230.99l-2.081,2.412.56,3.3,25.693,153.108L232.319,475.58l-4.659,6.693,7.1,3.642L447.731,596.286,248.425,477.464,298.952,405,455.434,543.285l.631-18.022-46.656-41.4h0l-95.684-84.946,72.112-105.956,4.8,68.816.063-.9,5.834-83.567h-.047l10.162-14.979,57.259-84.134L475.4,342.8l.15-2.176,11.416-163.554,64.977,92.373,5.7,8.1,5.881,84.26.063-.9,4.73-68.146,77.8,110.592L510.2,521.8c-.158-13.639-.339-28.5-.434-30.51q-.544-10.335-1.269-20.639l-.789-10.3-.883-10.3-.086-1.159-.789-1.372-5.148-9.145c-1.695-3.059-3.477-6.07-5.219-9.1s-3.492-6.062-5.282-9.066l-5.369-9.027-5.929-10-.5-.844-5.992,11.092-4.888,9.058c-1.616,3.012-3.193,6.015-4.77,9.09s-3.217,6.055-4.73,9.121l-4.73,9.161-.662,1.285-.126,1.009-.883,10.249c-.284,3.429-.52,6.859-.789,10.288q-.749,10.249-1.261,20.608c-.134,2.633-.244,16.043-.347,27.963l6.709,5.952c.789-13.245,4.848-46.372,6.047-53.136.583-3.4,1.2-6.78,1.75-10.17l1.427-8.743,4.691-7.962c1.75-2.956,3.406-5.96,5.108-8.94,1.34-2.365,2.665-4.667,3.942-7.024l.071-.126q2.231,3.674,4.525,7.332c1.853,2.964,3.666,5.952,5.566,8.893l5.022,7.884,1.4,8.625,1.75,10.186c1.206,6.78,6.685,58.339,7.56,72.19l5.455-3.6L661.386,409.026l48.177,68.454L510.351,596.263,723.327,485.892l7.1-3.666Z"
                                                transform="translate(-8060.16 7532.5)"
                                                fill="none"
                                                stroke="#dcb533"
                                                stroke-width="1"
                                            />
                                        </g>
                                    </svg>