<svg xmlns="http://www.w3.org/2000/svg" xmlns:xlink="http://www.w3.org/1999/xlink" width="19.088" height="19.029" viewBox="0 0 19.088 19.029"><defs><linearGradient id="a" x1="0.805" y1="0.11" x2="0.213" y2="0.894" gradientUnits="objectBoundingBox"><stop offset="0" stop-color="#dcb533"/><stop offset="1" stop-color="#bc892d"/></linearGradient></defs><g transform="translate(0 0)"><path d="M4200.543-1321.021a9.539,9.539,0,0,1-9.543-9.515,9.537,9.537,0,0,1,9.543-9.515,9.54,9.54,0,0,1,9.545,9.515A9.54,9.54,0,0,1,4200.543-1321.021Zm-5.448-8a.086.086,0,0,0-.087.085v.057a3.2,3.2,0,0,0,3.192,3.192h4.974c.932,0,1.466-.853,1.98-1.679.135-.215.288-.461.443-.675a3.031,3.031,0,0,1,1.124-.767.088.088,0,0,0,.054-.08v-.614a.088.088,0,0,0-.087-.086h-.022l-2.9.837a.1.1,0,0,0-.04.025,7.887,7.887,0,0,1-.649.637.994.994,0,0,1-.642.238h-1.051v-1.074h.833a.083.083,0,0,0,.06-.023l.109-.1.028-.024c.04-.039.085-.08.138-.132l.042-.043.013-.014.069-.074c.044-.043.086-.091.125-.135s.121-.134.177-.2l.016-.018a2.057,2.057,0,0,0,.131-.167c.036-.043.072-.089.107-.134l.008-.013.023-.029c.031-.044.063-.091.1-.138a1.553,1.553,0,0,0,.092-.154,2.76,2.76,0,0,0,.21-.4,1.791,1.791,0,0,0,.077-.2,1.946,1.946,0,0,0,.06-.2,1.606,1.606,0,0,0,.026-.488v-.018a.675.675,0,0,0-.018-.129v-.008a.868.868,0,0,0-.022-.106,2.37,2.37,0,0,0-.155-.471c-.02-.053-.045-.107-.074-.17-.068-.127-.135-.24-.2-.347l-.042-.063-.013-.018-.03-.045c-.047-.072-.1-.141-.155-.216l-.028-.038-.048-.058-.028-.035-.075-.092c-.051-.061-.1-.12-.153-.178-.193-.216-.392-.406-.545-.55-.035-.035-.068-.066-.1-.094-.112-.1-.229-.206-.353-.307-.033-.024-.061-.048-.085-.069l-.009-.009-.018-.014-.019-.017c-.041-.029-.082-.058-.119-.088a.06.06,0,0,0-.022-.011l-.115-.032v-.921a.536.536,0,0,0-.155-.384.528.528,0,0,0-.381-.153.542.542,0,0,0-.54.543v.622l-.056-.017-.156-.042-.137-.038-1.057-.284h-.016a.054.054,0,0,0-.045.028.046.046,0,0,0,0,.052l.165.307c.012.026.024.051.037.077l.022.045.054.112.027.058v.017l.034.072.033.066c.057.121.115.247.17.386l.017.039v.01c.033.075.065.154.092.232.1.253.188.513.261.767.024.067.041.138.057.2l.014.055.009.047a3.136,3.136,0,0,1,.079.372,2.3,2.3,0,0,1,.04.248c.007.081.023.184.025.278s.015.179.015.259a2.65,2.65,0,0,1-.067.623v.026l-.008.034c-.012.045-.022.081-.036.118s-.03.1-.048.144l-.025.069-.007.02c-.015.035-.029.071-.043.106a6.268,6.268,0,0,1-.341.681c-.225.393-.42.68-.5.786l-.019.028-.011.017-.02.029a.088.088,0,0,0,0,.09.08.08,0,0,0,.076.047h1.357v1.074h-1.371a.97.97,0,0,1-.875-.542.953.953,0,0,1-.1-.531.1.1,0,0,0-.024-.075.086.086,0,0,0-.064-.029Zm3.208-5.17a.081.081,0,0,0-.071.038l-2.482,3.872-.042.064a.085.085,0,0,0,0,.085.087.087,0,0,0,.077.045h2.555a.083.083,0,0,0,.069-.037c.033-.053.066-.107.093-.153a4.268,4.268,0,0,0,.486-1.063,5.474,5.474,0,0,0-.607-2.8.082.082,0,0,0-.086-.051Z" transform="translate(-4191 1340.05)" fill="url(#a)"/></g></svg>