<svg xmlns="http://www.w3.org/2000/svg" xmlns:xlink="http://www.w3.org/1999/xlink" width="230" height="229" viewBox="0 0 230 229"><defs><clipPath id="a"><rect width="230" height="229" fill="#dcb533"/></clipPath></defs><g clip-path="url(#a)"><path d="M196.686,39.508A383.613,383.613,0,0,1,104.644.669a4.856,4.856,0,0,0-4.918,0A373.109,373.109,0,0,1,7.681,39.508,4.816,4.816,0,0,0,4.122,44.15V93.326c0,50.64,23.482,84.16,43.181,103.363C68.512,217.363,93.216,228.8,102.185,228.8s33.673-11.433,54.88-32.107c19.7-19.2,43.18-52.722,43.18-103.363V44.149A4.816,4.816,0,0,0,196.686,39.508ZM190.57,93.325c0,47.3-21.9,78.576-40.276,96.487-20.855,20.33-43.153,29.357-48.109,29.357s-27.255-9.027-48.111-29.357C35.7,171.9,13.8,140.623,13.8,93.325V47.8A382.041,382.041,0,0,0,102.186,10.39,394.13,394.13,0,0,0,190.57,47.8Z" transform="translate(12.806 0)" fill="#dcb533"/><path d="M44.815,13.872a4.845,4.845,0,0,0-6.275-2.714c-8.642,3.387-17.512,6.506-26.364,9.268a4.816,4.816,0,0,0-3.39,4.592V43.6a4.838,4.838,0,0,0,9.675,0V28.536c7.941-2.556,15.873-5.383,23.625-8.423A4.8,4.8,0,0,0,44.815,13.872Z" transform="translate(27.297 33.393)" fill="#dcb533"/><path d="M23.465,19.084a4.862,4.862,0,0,0,1.94-.4l.089-.039a4.793,4.793,0,0,0,2.477-6.336,4.858,4.858,0,0,0-6.383-2.47l-.078.034A4.792,4.792,0,0,0,19.025,16.2,4.842,4.842,0,0,0,23.465,19.084Z" transform="translate(57.836 29.093)" fill="#dcb533"/><path d="M69.556,38.576a4.854,4.854,0,0,0-6.7,1.4,117.241,117.241,0,0,1-13.9,17.276A123.319,123.319,0,0,1,35.081,69.53a4.822,4.822,0,0,0,5.867,7.654A133.1,133.1,0,0,0,55.913,63.938a126.79,126.79,0,0,0,15.047-18.7A4.8,4.8,0,0,0,69.556,38.576Z" transform="translate(103.071 116.612)" fill="#dcb533"/><path d="M32.942,47.906l-.278.163A4.818,4.818,0,0,0,37.51,56.4l.32-.187a4.8,4.8,0,0,0,1.73-6.585A4.853,4.853,0,0,0,32.942,47.906Z" transform="translate(93.974 145.784)" fill="#dcb533"/><path d="M40.281,52.4A15.691,15.691,0,0,0,18.034,74.533L46.6,102.951a15.793,15.793,0,0,0,22.247,0l59.632-59.327a15.691,15.691,0,0,0-22.248-22.132L57.723,69.751Zm72.791-24.1a6.04,6.04,0,1,1,8.564,8.52L62.005,96.144a6.082,6.082,0,0,1-8.565,0L24.876,67.727a6.041,6.041,0,0,1,8.564-8.521L54.3,79.961a4.856,4.856,0,0,0,6.841,0Z" transform="translate(41.738 52.176)" fill="#dcb533"/></g></svg>