<svg xmlns="http://www.w3.org/2000/svg" width="484.459" height="24.071" viewBox="0 0 484.459 24.071"><g transform="translate(-2650 355.936)"><g transform="translate(7837 -9378.932)"><path d="M1.688,11.463H4.851a.456.456,0,0,0,.514-.516v-18.7h.379L25.851,11.084c.275.241.412.379.722.379H30.56a.456.456,0,0,0,.516-.516V-12.081a.456.456,0,0,0-.129-.387.456.456,0,0,0-.387-.129H27.4a.456.456,0,0,0-.387.129.456.456,0,0,0-.129.387v18.7H26.5L6.4-12.218c-.275-.241-.412-.379-.722-.379H1.688a.456.456,0,0,0-.387.129.456.456,0,0,0-.129.387V10.947a.456.456,0,0,0,.516.516Zm35.235,0h3.162a.456.456,0,0,0,.516-.516V.841H63.383A.456.456,0,0,0,63.9.325v-2.68a.456.456,0,0,0-.129-.387.456.456,0,0,0-.387-.129H40.595V-8.885H63.727a.456.456,0,0,0,.387-.129.456.456,0,0,0,.129-.387v-2.681a.456.456,0,0,0-.129-.387.456.456,0,0,0-.387-.129H36.918a.456.456,0,0,0-.387.129.456.456,0,0,0-.129.387v23.03a.456.456,0,0,0,.516.516ZM69.053-8.885H81.6V10.947a.456.456,0,0,0,.516.516h3.094a.456.456,0,0,0,.516-.516V-8.885H98.27a.456.456,0,0,0,.387-.129.456.456,0,0,0,.129-.387v-2.681a.456.456,0,0,0-.129-.387.456.456,0,0,0-.387-.129H69.053a.456.456,0,0,0-.387.129.456.456,0,0,0-.129.387V-9.4a.456.456,0,0,0,.129.387.456.456,0,0,0,.387.129Z" transform="translate(-4801.331 9035.6)" fill="#dcb533"/><g transform="translate(-5001 9023.003)"><g transform="translate(0 0)"><path d="M1851.126,30.414l-3.589-4.311a.775.775,0,0,1-.069-.111c.046-.086.115-.062.176-.063h37.094c.121-.118.081-.247.083-.363V21.76c0-.1-.01-.192-.016-.3a1.881,1.881,0,0,0-.22-.035h-33.228a5.214,5.214,0,0,1-.881-.058,3.014,3.014,0,0,1-1.545-.786,4.577,4.577,0,0,1-1.5-2.97,8.633,8.633,0,0,1-.046-.916V12.483a5.781,5.781,0,0,1,.121-1.233,4.537,4.537,0,0,1,1.586-2.606,3.053,3.053,0,0,1,1.991-.717h36.965a1.608,1.608,0,0,1,.425.019.289.289,0,0,1-.009.088l-3.622,4.369c-.109,0-.206.016-.3.018h-32.87a1.521,1.521,0,0,0-.529.035,8.693,8.693,0,0,0-.022,1.09v2.232c0,.366-.012.728.012,1.115.086.011.153.025.222.028h33.227a5.587,5.587,0,0,1,.84.056,2.966,2.966,0,0,1,1.528.74,4.53,4.53,0,0,1,1.5,2.615,4.758,4.758,0,0,1,.092.87q.012,2.466,0,4.933a4.56,4.56,0,0,1-.648,2.333,4.456,4.456,0,0,1-.985,1.17,3.1,3.1,0,0,1-2.051.756h-33.748Z" transform="translate(-1706.328 -7.319)" fill="#dcb533"/><path d="M1287.379,8c-.176.291-3.369,4.152-3.712,4.5h-33.461a1.212,1.212,0,0,0-.176.032.532.532,0,0,0-.03.116v4.2a.545.545,0,0,0,.032.123c.067,0,.137.021.206.023h17.951a2.031,2.031,0,0,1,.418.014.179.179,0,0,1,.021.055.058.058,0,0,1-.014.033l-3.627,4.378h-14.469c-.153,0-.313,0-.488.009a1.293,1.293,0,0,0-.032.192V25.8a.932.932,0,0,0,.017.129,1.29,1.29,0,0,0,.2.041h37.1c.046.139-.055.2-.111.264q-.909,1.1-1.824,2.2l-1.423,1.725c-.086.1-.176.2-.268.312h-33.595a3.361,3.361,0,0,1-2.618-1.17,4.716,4.716,0,0,1-1.212-2.995V12.514a5.238,5.238,0,0,1,.372-2.035,4.545,4.545,0,0,1,1.145-1.633A3.146,3.146,0,0,1,1250.012,8Z" transform="translate(-1151.103 -7.383)" fill="#dcb533"/><path d="M690.586,21.409a5.637,5.637,0,0,0,.976.044h.951c.317,0,.655-.014,1.006.012.012.085.026.153.03.222V30.32c-.115.063-.139-.033-.176-.076q-1.009-1.207-2.015-2.417c-.453-.544-.9-1.092-1.362-1.628a.749.749,0,0,1-.189-.529V21.9a.989.989,0,0,0-.035-.409,1.381,1.381,0,0,0-.176-.028c-.849-.037-25.646-.011-25.953.028a1.392,1.392,0,0,0-.041.2v8.631c-.146.019-.176-.086-.241-.153q-.974-1.163-1.938-2.333c-.458-.553-.916-1.11-1.383-1.658a.7.7,0,0,1-.176-.5V21.527a.518.518,0,0,0-.374-.069h-2.819a1.746,1.746,0,0,0-.218,0,.541.541,0,0,1-.529-.24c-.668-.825-1.353-1.635-2.033-2.451l-1.263-1.519c-.058-.07-.143-.132-.148-.229.018-.025.023-.035.032-.041a.088.088,0,0,1,.035,0h37.187l.056-.018a.976.976,0,0,0,.039-.194V12.717a1.574,1.574,0,0,0-.023-.187,1.469,1.469,0,0,0-.185-.033H656.637a1.234,1.234,0,0,1-.5-.039c-.143-.069-.24-.234-.352-.365q-1.57-1.885-3.134-3.772l-.188-.257c.044-.093.113-.069.176-.076H689.6a5.409,5.409,0,0,1,.8.048,3.005,3.005,0,0,1,1.561.751,4.554,4.554,0,0,1,1.517,2.725,5.946,5.946,0,0,1,.076.946v4.581a5.185,5.185,0,0,1-.229,1.549,4.565,4.565,0,0,1-1.249,1.993,3.775,3.775,0,0,1-1.487.83Z" transform="translate(-602.644 -7.353)" fill="#dcb533"/><path d="M0,23.987c.144-.1.248-.176.352-.245L6.519,19.8,37.173.251a1.627,1.627,0,0,0,.144-.1.84.84,0,0,1,.546-.166h6.709c.109,0,.217.011.336.016.014.088.032.157.037.229s0,.176,0,.257V23.532a2.083,2.083,0,0,1-.021.458c-.3.046-4.933.055-5.35.012a1.63,1.63,0,0,1-.035-.2V14.771c0-.144,0-.287-.011-.451-.118-.011-.211-.026-.3-.026l-3.516-.012-3.333-.011a3.24,3.24,0,0,1-.338-.014c.1-.1.148-.16.208-.21l3.2-2.681c.611-.509,1.221-1.015,1.822-1.527a.687.687,0,0,1,.5-.176c.451.012.9,0,1.355,0,.12,0,.241,0,.382-.011a1.217,1.217,0,0,0,.042-.217q0-.493,0-.988V3.318c-.1-.115-.2-.085-.3-.086a1.374,1.374,0,0,0-1.152.328L6.952,23.765a1.126,1.126,0,0,1-.916.266H.432A1.039,1.039,0,0,1,0,23.987Z" transform="translate(0 0.015)" fill="#dcb533"/></g></g></g><path d="M-78.4.28h-3.145q-.824,0-.824-.786V-19.261a.364.364,0,0,0-.412-.412h-4.268a.7.7,0,0,1-.786-.786V-23a.7.7,0,0,1,.786-.786H-72.9a.7.7,0,0,1,.786.786v2.546a.7.7,0,0,1-.786.786h-4.268q-.449,0-.449.412V-.506A.7.7,0,0,1-78.4.28Zm13.1,0h-3.182a.7.7,0,0,1-.786-.786V-23a.7.7,0,0,1,.786-.786H-65.3a.7.7,0,0,1,.786.786v8.8q0,.412.449.412h6.327a.364.364,0,0,0,.412-.412V-23a.7.7,0,0,1,.786-.786h3.182a.7.7,0,0,1,.786.786v22.5A.7.7,0,0,1-53.36.28h-3.182a.7.7,0,0,1-.786-.786v-8.76a.364.364,0,0,0-.412-.412h-6.327q-.449,0-.449.412v8.76A.7.7,0,0,1-65.3.28Zm30.623,0H-46.921a.7.7,0,0,1-.786-.786V-23a.7.7,0,0,1,.786-.786h12.242q.749,0,.749.786v2.546q0,.786-.749.786H-42.5q-.449,0-.449.412v4.867q0,.412.449.412h6.4a.7.7,0,0,1,.786.786v2.546a.7.7,0,0,1-.786.786h-6.4q-.449,0-.449.412v5.2q0,.412.449.412h7.824q.749,0,.749.786V-.506Q-33.93.28-34.679.28Zm17.108,0h-3.182a.7.7,0,0,1-.786-.786V-23a.7.7,0,0,1,.786-.786h8.91a6.256,6.256,0,0,1,4.567,1.61,6.044,6.044,0,0,1,1.647,4.53v2.92q0,4.23-3.332,5.615v.15L-4.955-.618q.337.9-.636.9H-8.624A2.32,2.32,0,0,1-9.6.131a1.113,1.113,0,0,1-.487-.636l-3.744-8.086h-2.508q-.449,0-.449.412V-.506A.7.7,0,0,1-17.571.28Zm1.2-12.691H-12.7a2.577,2.577,0,0,0,1.759-.505,2.093,2.093,0,0,0,.562-1.628v-2.92a2.211,2.211,0,0,0-.562-1.685,2.513,2.513,0,0,0-1.759-.524h-3.669a.364.364,0,0,0-.412.412v6.439A.364.364,0,0,0-16.373-12.41ZM3.88-23v22.5A.7.7,0,0,1,3.094.28H-.088A.7.7,0,0,1-.874-.506V-23a.7.7,0,0,1,.786-.786H3.094A.7.7,0,0,1,3.88-23ZM8.335-5.859v-.749a.7.7,0,0,1,.786-.786H12.3a.7.7,0,0,1,.786.786v.3a2.628,2.628,0,0,0,.562,1.947,3.051,3.051,0,0,0,2.059.524h1.759a2.913,2.913,0,0,0,2.04-.562,2.9,2.9,0,0,0,.58-2.1v-.449a1.877,1.877,0,0,0-.88-1.666A4.637,4.637,0,0,0,17.02-9.3a23.668,23.668,0,0,1-2.826-.431,18.279,18.279,0,0,1-2.826-.824,4.435,4.435,0,0,1-2.19-1.984,7.35,7.35,0,0,1-.88-3.8v-1.31a6.044,6.044,0,0,1,1.647-4.53,6.256,6.256,0,0,1,4.567-1.61h3.744a6.309,6.309,0,0,1,4.6,1.61,6.044,6.044,0,0,1,1.647,4.53v.711a.7.7,0,0,1-.786.786H20.539a.7.7,0,0,1-.786-.786v-.225a2.692,2.692,0,0,0-.562-1.984,3.051,3.051,0,0,0-2.059-.524h-1.46a2.831,2.831,0,0,0-2.078.58,3.417,3.417,0,0,0-.543,2.265v.711q0,1.759,3.07,2.022a19,19,0,0,1,5.653,1.273,4.794,4.794,0,0,1,2.19,2,6.984,6.984,0,0,1,.88,3.687v1.273A6.044,6.044,0,0,1,23.2-1.329,6.256,6.256,0,0,1,18.63.28H14.549a6.256,6.256,0,0,1-4.567-1.61A6.044,6.044,0,0,1,8.335-5.859ZM42.139.28H29.9a.7.7,0,0,1-.786-.786V-23a.7.7,0,0,1,.786-.786H42.139q.749,0,.749.786v2.546q0,.786-.749.786H34.315q-.449,0-.449.412v4.867q0,.412.449.412h6.4a.7.7,0,0,1,.786.786v2.546a.7.7,0,0,1-.786.786h-6.4q-.449,0-.449.412v5.2q0,.412.449.412h7.824q.749,0,.749.786V-.506Q42.888.28,42.139.28ZM61.831-3.838h2.658a2.355,2.355,0,0,0,1.7-.505,2.355,2.355,0,0,0,.505-1.7V-17.464a2.355,2.355,0,0,0-.505-1.7,2.355,2.355,0,0,0-1.7-.505H61.831a2.284,2.284,0,0,0-1.685.505,2.416,2.416,0,0,0-.487,1.7V-6.046a2.416,2.416,0,0,0,.487,1.7A2.284,2.284,0,0,0,61.831-3.838ZM65.275.28H61.082a6.265,6.265,0,0,1-4.567-1.572,6.048,6.048,0,0,1-1.61-4.53V-17.689a6.048,6.048,0,0,1,1.61-4.53,6.265,6.265,0,0,1,4.567-1.572h4.193a6.265,6.265,0,0,1,4.567,1.572,6.048,6.048,0,0,1,1.61,4.53V-5.822a6.048,6.048,0,0,1-1.61,4.53A6.265,6.265,0,0,1,65.275.28Zm14.637,0H76.73a.7.7,0,0,1-.786-.786V-23a.7.7,0,0,1,.786-.786H88.672q.749,0,.749.786v2.546q0,.786-.749.786H81.148q-.449,0-.449.412v5.8a.4.4,0,0,0,.449.449h6.4a.7.7,0,0,1,.786.786v2.508q0,.824-.786.824h-6.4q-.449,0-.449.412V-.506A.7.7,0,0,1,79.912.28Z" transform="translate(2737.838 -332.145)" fill="#fff"/></g></svg>