<svg xmlns="http://www.w3.org/2000/svg" width="587.459" height="24.072" viewBox="0 0 587.459 24.072"><g transform="translate(-2547 299.936)"><g transform="translate(-5.009 -91.236)"><path d="M1.688,11.464H4.851a.456.456,0,0,0,.514-.516v-18.7h.379L25.851,11.085c.275.241.412.379.722.379h3.987a.456.456,0,0,0,.516-.516V-12.081a.456.456,0,0,0-.129-.387.456.456,0,0,0-.387-.129H27.4a.456.456,0,0,0-.387.129.456.456,0,0,0-.129.387v18.7H26.5L6.4-12.218c-.275-.241-.412-.379-.722-.379H1.688a.456.456,0,0,0-.387.129.456.456,0,0,0-.129.387V10.948a.456.456,0,0,0,.516.516Zm35.236,0h3.162a.456.456,0,0,0,.516-.516V.842H63.385A.456.456,0,0,0,63.9.326v-2.68a.456.456,0,0,0-.129-.387.456.456,0,0,0-.387-.129H40.6V-8.885H63.729a.456.456,0,0,0,.387-.129.456.456,0,0,0,.129-.387v-2.681a.456.456,0,0,0-.129-.387.456.456,0,0,0-.387-.129H36.919a.456.456,0,0,0-.387.129.456.456,0,0,0-.129.387v23.03a.456.456,0,0,0,.516.516ZM69.055-8.885H81.6V10.948a.456.456,0,0,0,.516.516H85.21a.456.456,0,0,0,.516-.516V-8.885H98.272a.456.456,0,0,0,.387-.129.456.456,0,0,0,.129-.387v-2.681a.456.456,0,0,0-.129-.387.456.456,0,0,0-.387-.129H69.055a.456.456,0,0,0-.387.129.456.456,0,0,0-.129.387V-9.4a.456.456,0,0,0,.129.387.456.456,0,0,0,.387.129Z" transform="translate(3040.675 -196.097)" fill="#dcb533"/><g transform="translate(2841 -208.694)"><g transform="translate(0 0)"><path d="M1851.126,30.414l-3.589-4.311a.775.775,0,0,1-.069-.111c.046-.086.115-.062.176-.063h37.1c.122-.118.081-.247.083-.363V21.76c0-.1-.01-.192-.016-.3a1.885,1.885,0,0,0-.22-.035h-33.229a5.216,5.216,0,0,1-.881-.058,3.014,3.014,0,0,1-1.545-.786,4.579,4.579,0,0,1-1.5-2.97,8.7,8.7,0,0,1-.046-.916V12.483a5.765,5.765,0,0,1,.121-1.233,4.536,4.536,0,0,1,1.586-2.606,3.054,3.054,0,0,1,1.991-.717h36.966a1.608,1.608,0,0,1,.425.019.3.3,0,0,1-.009.088l-3.622,4.369c-.109,0-.206.016-.3.018h-32.871a1.521,1.521,0,0,0-.529.035,8.693,8.693,0,0,0-.022,1.091v2.232c0,.366-.012.728.012,1.115.086.011.153.025.222.028h33.228a5.585,5.585,0,0,1,.84.056,2.964,2.964,0,0,1,1.528.74,4.531,4.531,0,0,1,1.5,2.615,4.758,4.758,0,0,1,.092.87q.012,2.467,0,4.933a4.56,4.56,0,0,1-.648,2.333,4.452,4.452,0,0,1-.985,1.17,3.1,3.1,0,0,1-2.05.756h-33.749Z" transform="translate(-1706.324 -7.319)" fill="#dcb533"/><path d="M1287.38,8c-.176.291-3.369,4.153-3.712,4.5h-33.462a1.214,1.214,0,0,0-.177.032.532.532,0,0,0-.03.116v4.2a.559.559,0,0,0,.032.123c.067,0,.137.021.206.023h17.951a2.031,2.031,0,0,1,.418.014.176.176,0,0,1,.021.055.057.057,0,0,1-.014.033l-3.627,4.378h-14.47c-.153,0-.313,0-.488.009a1.293,1.293,0,0,0-.032.192v4.133a.932.932,0,0,0,.017.129,1.292,1.292,0,0,0,.2.041h37.1c.046.139-.055.2-.111.264q-.909,1.1-1.824,2.2l-1.423,1.725c-.086.1-.176.2-.268.312h-33.6a3.361,3.361,0,0,1-2.618-1.17,4.715,4.715,0,0,1-1.212-3V12.514a5.239,5.239,0,0,1,.372-2.035,4.545,4.545,0,0,1,1.145-1.633A3.146,3.146,0,0,1,1250.012,8Z" transform="translate(-1151.1 -7.383)" fill="#dcb533"/><path d="M690.587,21.41a5.637,5.637,0,0,0,.976.044h.951c.317,0,.655-.014,1.006.012.012.085.026.153.03.222v8.633c-.115.063-.139-.033-.176-.076q-1.01-1.207-2.015-2.417c-.453-.544-.9-1.092-1.362-1.628a.749.749,0,0,1-.189-.529V21.9a.99.99,0,0,0-.035-.409,1.385,1.385,0,0,0-.176-.028c-.849-.037-25.647-.011-25.953.028a1.4,1.4,0,0,0-.041.2v8.631c-.146.019-.176-.086-.241-.153q-.974-1.163-1.938-2.333c-.458-.553-.916-1.11-1.383-1.658a.7.7,0,0,1-.176-.5V21.528a.518.518,0,0,0-.374-.069h-2.819a1.746,1.746,0,0,0-.218,0,.541.541,0,0,1-.529-.24c-.668-.825-1.353-1.635-2.033-2.451l-1.263-1.519c-.058-.07-.143-.132-.148-.229.018-.025.023-.035.032-.041a.088.088,0,0,1,.035,0h37.188l.056-.018a.971.971,0,0,0,.039-.194V12.717a1.561,1.561,0,0,0-.023-.187,1.468,1.468,0,0,0-.185-.033H656.637a1.234,1.234,0,0,1-.5-.039c-.143-.069-.24-.234-.352-.365q-1.57-1.885-3.134-3.772l-.188-.257c.044-.093.113-.069.176-.076H689.6a5.409,5.409,0,0,1,.8.048,3,3,0,0,1,1.561.751,4.555,4.555,0,0,1,1.517,2.726,5.947,5.947,0,0,1,.076.946v4.581a5.186,5.186,0,0,1-.229,1.549,4.565,4.565,0,0,1-1.249,1.993,3.775,3.775,0,0,1-1.487.83Z" transform="translate(-602.643 -7.353)" fill="#dcb533"/><path d="M0,23.988c.144-.1.248-.176.352-.245l6.166-3.938L37.174.251a1.627,1.627,0,0,0,.144-.1.84.84,0,0,1,.546-.166h6.709c.109,0,.217.011.337.016.014.088.032.157.037.229s0,.176,0,.257V23.533a2.083,2.083,0,0,1-.021.458c-.3.046-4.933.055-5.351.012a1.63,1.63,0,0,1-.035-.2V14.772c0-.144,0-.287-.011-.451-.118-.011-.211-.026-.3-.026l-3.517-.012-3.333-.011a3.241,3.241,0,0,1-.338-.014c.1-.1.148-.16.208-.21l3.2-2.681c.611-.509,1.221-1.015,1.822-1.527a.687.687,0,0,1,.5-.176c.451.012.9,0,1.355,0,.12,0,.241,0,.382-.011a1.216,1.216,0,0,0,.042-.217q0-.493,0-.988V3.318c-.1-.115-.2-.085-.3-.086a1.374,1.374,0,0,0-1.152.328L6.952,23.766a1.126,1.126,0,0,1-.916.266H.432A1.039,1.039,0,0,1,0,23.988Z" transform="translate(0 0.015)" fill="#dcb533"/></g></g></g><path d="M-129.815.281h-3.145q-.824,0-.824-.786V-19.261a.364.364,0,0,0-.412-.412h-4.268a.7.7,0,0,1-.786-.786V-23a.7.7,0,0,1,.786-.786h14.151a.7.7,0,0,1,.786.786v2.546a.7.7,0,0,1-.786.786h-4.268q-.449,0-.449.412V-.505A.7.7,0,0,1-129.815.281Zm13.1,0h-3.182a.7.7,0,0,1-.786-.786V-23a.7.7,0,0,1,.786-.786h3.182a.7.7,0,0,1,.786.786v8.8q0,.412.449.412h6.327a.364.364,0,0,0,.412-.412V-23a.7.7,0,0,1,.786-.786h3.182a.7.7,0,0,1,.786.786v22.5a.7.7,0,0,1-.786.786h-3.182a.7.7,0,0,1-.786-.786v-8.76a.364.364,0,0,0-.412-.412h-6.327q-.449,0-.449.412v8.76A.7.7,0,0,1-116.712.281Zm30.623,0H-98.331a.7.7,0,0,1-.786-.786V-23a.7.7,0,0,1,.786-.786h12.242q.749,0,.749.786v2.546q0,.786-.749.786h-7.824q-.449,0-.449.412v4.867q0,.412.449.412h6.4a.7.7,0,0,1,.786.786v2.546a.7.7,0,0,1-.786.786h-6.4q-.449,0-.449.412v5.2q0,.412.449.412h7.824q.749,0,.749.786V-.505Q-85.34.281-86.089.281Zm12.541-6.14v-.749a.7.7,0,0,1,.786-.786h3.182a.7.7,0,0,1,.786.786v.3a2.628,2.628,0,0,0,.562,1.947,3.051,3.051,0,0,0,2.059.524h1.76a2.913,2.913,0,0,0,2.04-.562,2.9,2.9,0,0,0,.58-2.1v-.449a1.877,1.877,0,0,0-.88-1.666,4.637,4.637,0,0,0-2.19-.693,23.668,23.668,0,0,1-2.826-.431,18.28,18.28,0,0,1-2.826-.824,4.435,4.435,0,0,1-2.19-1.984,7.351,7.351,0,0,1-.88-3.8v-1.31a6.044,6.044,0,0,1,1.647-4.53,6.256,6.256,0,0,1,4.567-1.61h3.744a6.31,6.31,0,0,1,4.6,1.61,6.044,6.044,0,0,1,1.647,4.53v.711a.7.7,0,0,1-.786.786h-3.182a.7.7,0,0,1-.786-.786v-.225a2.692,2.692,0,0,0-.562-1.984,3.051,3.051,0,0,0-2.059-.524h-1.46a2.831,2.831,0,0,0-2.078.58,3.417,3.417,0,0,0-.543,2.265v.711q0,1.76,3.07,2.022a19.005,19.005,0,0,1,5.653,1.273,4.794,4.794,0,0,1,2.19,2,6.984,6.984,0,0,1,.88,3.688v1.273a6.044,6.044,0,0,1-1.647,4.53A6.256,6.256,0,0,1-63.252.281h-4.081A6.256,6.256,0,0,1-71.9-1.329,6.044,6.044,0,0,1-73.548-5.859ZM-45.32.281h-3.145q-.824,0-.824-.786V-19.261a.364.364,0,0,0-.412-.412h-4.268a.7.7,0,0,1-.786-.786V-23a.7.7,0,0,1,.786-.786h14.151a.7.7,0,0,1,.786.786v2.546a.7.7,0,0,1-.786.786h-4.268q-.449,0-.449.412V-.505A.7.7,0,0,1-45.32.281Zm15.686-4.118h2.658a2.355,2.355,0,0,0,1.7-.505,2.355,2.355,0,0,0,.505-1.7V-17.464a2.355,2.355,0,0,0-.505-1.7,2.355,2.355,0,0,0-1.7-.505h-2.658a2.284,2.284,0,0,0-1.685.505,2.416,2.416,0,0,0-.487,1.7V-6.046a2.416,2.416,0,0,0,.487,1.7A2.284,2.284,0,0,0-29.634-3.837ZM-26.19.281h-4.193A6.265,6.265,0,0,1-34.95-1.291a6.048,6.048,0,0,1-1.61-4.53V-17.689a6.048,6.048,0,0,1,1.61-4.53,6.265,6.265,0,0,1,4.567-1.572h4.193a6.265,6.265,0,0,1,4.567,1.572,6.048,6.048,0,0,1,1.61,4.53V-5.821a6.048,6.048,0,0,1-1.61,4.53A6.265,6.265,0,0,1-26.19.281Zm14.638,0h-3.182a.7.7,0,0,1-.786-.786V-23a.7.7,0,0,1,.786-.786h8.91a6.256,6.256,0,0,1,4.567,1.61,6.044,6.044,0,0,1,1.647,4.53v2.92q0,4.23-3.332,5.616v.15L1.064-.617q.337.9-.636.9H-2.6a2.32,2.32,0,0,1-.973-.15,1.113,1.113,0,0,1-.487-.636L-7.808-8.592h-2.508q-.449,0-.449.412V-.505A.7.7,0,0,1-11.552.281Zm1.2-12.691h3.669a2.577,2.577,0,0,0,1.76-.505,2.093,2.093,0,0,0,.562-1.629v-2.92a2.212,2.212,0,0,0-.562-1.685,2.513,2.513,0,0,0-1.76-.524h-3.669a.364.364,0,0,0-.412.412v6.439A.364.364,0,0,0-10.354-12.41ZM13.793.281H10.611a.7.7,0,0,1-.786-.786V-8.517L2.974-22.967a.563.563,0,0,1,.019-.58.574.574,0,0,1,.505-.243H7.466q.6,0,.9.786l3.744,9.1h.262L16.039-23q.262-.786.9-.786h3.968a.634.634,0,0,1,.543.225.548.548,0,0,1-.019.6L14.579-8.517V-.505A.7.7,0,0,1,13.793.281ZM37.715-3.687h4.193a2.566,2.566,0,0,0,1.778-.505,2.192,2.192,0,0,0,.543-1.666V-8.03a2.084,2.084,0,0,0-.562-1.647,2.783,2.783,0,0,0-1.834-.487H37.715a.364.364,0,0,0-.412.412V-4.1A.364.364,0,0,0,37.715-3.687Zm0-10.333h3.819a2.577,2.577,0,0,0,1.76-.505,2.147,2.147,0,0,0,.562-1.666v-1.46a2.192,2.192,0,0,0-.543-1.666,2.5,2.5,0,0,0-1.741-.505H37.715a.364.364,0,0,0-.412.412v4.979A.364.364,0,0,0,37.715-14.02ZM32.549-.505V-23a.7.7,0,0,1,.786-.786H42.32a6.265,6.265,0,0,1,4.567,1.572,6,6,0,0,1,1.61,4.492v1.535a3.926,3.926,0,0,1-2.958,4.118,3.894,3.894,0,0,1,2.4,1.217,4.067,4.067,0,0,1,.9,2.826v2.246a6,6,0,0,1-1.61,4.492A6.211,6.211,0,0,1,42.694.281H33.335A.7.7,0,0,1,32.549-.505ZM66.355.281H54.113a.7.7,0,0,1-.786-.786V-23a.7.7,0,0,1,.786-.786H66.355q.749,0,.749.786v2.546q0,.786-.749.786H58.53q-.449,0-.449.412v4.867q0,.412.449.412h6.4a.7.7,0,0,1,.786.786v2.546a.7.7,0,0,1-.786.786h-6.4q-.449,0-.449.412v5.2q0,.412.449.412h7.824q.749,0,.749.786V-.505Q67.1.281,66.355.281Zm8.873,0H72.045a.7.7,0,0,1-.786-.786V-23a.7.7,0,0,1,.786-.786h3.182a.7.7,0,0,1,.786.786v8.8q0,.412.449.412h6.327a.364.364,0,0,0,.412-.412V-23a.7.7,0,0,1,.786-.786h3.182a.7.7,0,0,1,.786.786v22.5a.7.7,0,0,1-.786.786H83.987A.7.7,0,0,1,83.2-.505v-8.76a.364.364,0,0,0-.412-.412H76.462q-.449,0-.449.412v8.76A.7.7,0,0,1,75.227.281ZM97.764-23v22.5a.7.7,0,0,1-.786.786H93.8a.7.7,0,0,1-.786-.786V-23a.7.7,0,0,1,.786-.786h3.182A.7.7,0,0,1,97.764-23ZM106.712.281H103.6a.7.7,0,0,1-.786-.786V-23a.7.7,0,0,1,.786-.786h2.808a1.056,1.056,0,0,1,1.048.524l7.562,14.189h.15V-23a.7.7,0,0,1,.786-.786h3.107a.7.7,0,0,1,.786.786v22.5a.7.7,0,0,1-.786.786h-2.733a1.252,1.252,0,0,1-1.2-.749l-7.487-13.927h-.15V-.505A.7.7,0,0,1,106.712.281Zm23.174-4.118h4.081a2.355,2.355,0,0,0,1.7-.505,2.355,2.355,0,0,0,.505-1.7V-17.464a2.355,2.355,0,0,0-.505-1.7,2.355,2.355,0,0,0-1.7-.505h-4.081a.364.364,0,0,0-.412.412V-4.249A.364.364,0,0,0,129.885-3.837ZM124.719-.505V-23a.7.7,0,0,1,.786-.786h9.247A6.233,6.233,0,0,1,139.3-22.2a6.02,6.02,0,0,1,1.629,4.511V-5.821A6.02,6.02,0,0,1,139.3-1.31,6.233,6.233,0,0,1,134.752.281H125.5A.7.7,0,0,1,124.719-.505Z" transform="translate(2686.25 -276.145)" fill="#fff"/></g></svg>