<svg xmlns="http://www.w3.org/2000/svg" width="920.516" height="29.818" viewBox="0 0 920.516 29.818"><path d="M-460.054-19.142h11.9v18.6A.5.5,0,0,0-447.61,0h4.148a.476.476,0,0,0,.51-.544v-18.6h11.934a.5.5,0,0,0,.544-.544v-3.57a.5.5,0,0,0-.544-.544h-29.036a.5.5,0,0,0-.544.544v3.57A.5.5,0,0,0-460.054-19.142ZM-426.19,0h4.25a.476.476,0,0,0,.51-.544V-9.588h19.176V-.544A.5.5,0,0,0-401.71,0h4.25a.5.5,0,0,0,.544-.544V-23.256a.5.5,0,0,0-.544-.544h-4.25a.5.5,0,0,0-.544.544v9.044H-421.43v-9.044a.476.476,0,0,0-.51-.544h-4.25a.5.5,0,0,0-.544.544V-.544A.5.5,0,0,0-426.19,0Zm39.746,0h18.6c4.216,0,6.052-2.346,6.052-6.222V-23.256a.5.5,0,0,0-.544-.544h-4.25a.476.476,0,0,0-.51.544V-6.6c0,1.462-.68,1.938-1.972,1.938h-16.15c-1.292,0-1.972-.476-1.972-1.938v-16.66a.476.476,0,0,0-.51-.544h-4.25a.5.5,0,0,0-.544.544V-6.222C-392.5-2.346-390.66,0-386.444,0Zm35.7.136h16.082c4.964,0,7.412-1.9,7.412-6.732,0-4.148-2.074-6.766-7.276-7.038l-15.266-.816c-2.346-.068-2.55-1.428-2.55-2.618,0-1.564.85-2.21,2.448-2.21h14.722A1.98,1.98,0,0,1-333-17.816a.86.86,0,0,0,.952.782h3.4c.578,0,.85-.272.85-.782,0-3.91-1.938-6.12-6.8-6.12h-15.538c-4.964,0-7.412,1.9-7.412,6.7,0,4.182,2.074,6.8,7.276,7.072L-335-9.35c2.346.068,2.55,1.428,2.55,2.618,0,1.564-.85,2.21-2.448,2.21h-15.266a2.012,2.012,0,0,1-2.176-1.462.88.88,0,0,0-.952-.782h-3.4c-.578,0-.85.272-.85.782C-357.544-2.074-355.606.136-350.744.136Zm26.928,5.746h4.726A1.271,1.271,0,0,0-317.7,4.488V-4.624a.5.5,0,0,0-.544-.544h-3.366a.5.5,0,0,0-.544.544v6.29h-1.666a.5.5,0,0,0-.544.544V5.338A.5.5,0,0,0-323.816,5.882Zm35.36-29.682h-4.488c-.34,0-.544.2-.748.544L-308.244-.714c-.306.442-.068.714.272.714h5.032c.408,0,.578-.238.816-.612l2.04-3.2h18.768l2.04,3.2c.238.374.442.612.816.612h5.032c.34,0,.578-.272.272-.714l-14.552-22.542C-287.912-23.6-288.082-23.8-288.456-23.8Zm-8.738,15.47,6.29-9.826h.442l6.256,9.826ZM-268.94,0h4.25a.476.476,0,0,0,.51-.544V-6.188h14.722l3.808,5.61A1.089,1.089,0,0,0-244.7,0h3.842c.578,0,.986-.408.646-.884l-3.774-5.678c2.38-.816,3.434-2.89,3.434-5.848v-5.168c0-3.876-1.836-6.222-6.052-6.222H-268.94a.5.5,0,0,0-.544.544V-.544A.5.5,0,0,0-268.94,0Zm4.76-10.846v-8.3h16.354c1.326,0,1.972.476,1.972,1.938v4.42c0,1.428-.646,1.938-1.972,1.938ZM-235.314,0h26.86a.451.451,0,0,0,.51-.51V-4.148a.451.451,0,0,0-.51-.51h-22.1v-4.93h21.59a.451.451,0,0,0,.51-.51v-3.6a.451.451,0,0,0-.51-.51h-21.59v-4.93h21.93a.451.451,0,0,0,.51-.51V-23.29a.451.451,0,0,0-.51-.51h-26.69a.5.5,0,0,0-.544.544V-.544A.5.5,0,0,0-235.314,0Zm37.536.136H-181.7c4.964,0,7.412-1.9,7.412-6.732,0-4.148-2.074-6.766-7.276-7.038l-15.266-.816c-2.346-.068-2.55-1.428-2.55-2.618,0-1.564.85-2.21,2.448-2.21h14.722a1.98,1.98,0,0,1,2.176,1.462.86.86,0,0,0,.952.782h3.4c.578,0,.85-.272.85-.782,0-3.91-1.938-6.12-6.8-6.12h-15.538c-4.964,0-7.412,1.9-7.412,6.7,0,4.182,2.074,6.8,7.276,7.072l15.266.816c2.346.068,2.55,1.428,2.55,2.618,0,1.564-.85,2.21-2.448,2.21H-197.2a2.012,2.012,0,0,1-2.176-1.462.88.88,0,0,0-.952-.782h-3.4c-.578,0-.85.272-.85.782C-204.578-2.074-202.64.136-197.778.136Zm40.7,0h18.36c4.216,0,6.018-2.312,6.018-6.324v-.986a.546.546,0,0,0-.612-.578h-4.114a.52.52,0,0,0-.578.578v.612c0,1.6-.544,2.04-1.836,2.04h-16.014c-1.326,0-2.244-.476-2.244-1.938V-17.34c0-1.462.918-1.938,2.244-1.938h16.014c1.292,0,1.836.476,1.836,1.938v1.53a.511.511,0,0,0,.544.578h4.148a.546.546,0,0,0,.612-.578v-1.9c0-3.876-1.8-6.222-6.018-6.222h-18.36c-4.216,0-6.324,2.346-6.324,6.222V-6.086C-163.4-2.21-161.3.136-157.08.136Zm34.612,0h18.054c4.216,0,6.324-2.346,6.324-6.222V-17.714c0-3.876-2.108-6.222-6.324-6.222h-18.054c-4.216,0-6.324,2.346-6.324,6.222V-6.086C-128.792-2.21-126.684.136-122.468.136Zm-1.02-6.6V-17.34c0-1.462.918-1.938,2.244-1.938h15.606c1.326,0,2.244.476,2.244,1.938V-6.46c0,1.462-.918,1.938-2.244,1.938h-15.606C-122.57-4.522-123.488-5-123.488-6.46ZM-93.3,0h4.25a.476.476,0,0,0,.51-.544V-6.188h14.722l3.808,5.61A1.089,1.089,0,0,0-69.054,0h3.842c.578,0,.986-.408.646-.884L-68.34-6.562c2.38-.816,3.434-2.89,3.434-5.848v-5.168c0-3.876-1.836-6.222-6.052-6.222H-93.3a.5.5,0,0,0-.544.544V-.544A.5.5,0,0,0-93.3,0Zm4.76-10.846v-8.3h16.354c1.326,0,1.972.476,1.972,1.938v4.42c0,1.428-.646,1.938-1.972,1.938ZM-59.67,0h4.25a.476.476,0,0,0,.51-.544V-4.658h17.578c4.216,0,6.052-2.346,6.052-6.188v-6.732c0-3.876-1.836-6.222-6.052-6.222H-59.67a.5.5,0,0,0-.544.544V-.544A.5.5,0,0,0-59.67,0Zm4.76-9.282v-9.86h16.354c1.326,0,1.972.476,1.972,1.938v5.95c0,1.462-.646,1.972-1.972,1.972ZM-20.876.136H-2.822C1.394.136,3.5-2.21,3.5-6.086V-17.714c0-3.876-2.108-6.222-6.324-6.222H-20.876c-4.216,0-6.324,2.346-6.324,6.222V-6.086C-27.2-2.21-25.092.136-20.876.136Zm-1.02-6.6V-17.34c0-1.462.918-1.938,2.244-1.938H-4.046c1.326,0,2.244.476,2.244,1.938V-6.46C-1.8-5-2.72-4.522-4.046-4.522H-19.652C-20.978-4.522-21.9-5-21.9-6.46ZM8.3,0h4.25a.476.476,0,0,0,.51-.544V-6.188H27.778l3.808,5.61A1.089,1.089,0,0,0,32.538,0H36.38c.578,0,.986-.408.646-.884L33.252-6.562c2.38-.816,3.434-2.89,3.434-5.848v-5.168c0-3.876-1.836-6.222-6.052-6.222H8.3a.5.5,0,0,0-.544.544V-.544A.5.5,0,0,0,8.3,0Zm4.76-10.846v-8.3H29.41c1.326,0,1.972.476,1.972,1.938v4.42c0,1.428-.646,1.938-1.972,1.938ZM60.418-23.8H55.93c-.34,0-.544.2-.748.544L40.63-.714c-.306.442-.068.714.272.714h5.032c.408,0,.578-.238.816-.612l2.04-3.2H67.558l2.04,3.2c.238.374.442.612.816.612h5.032c.34,0,.578-.272.272-.714L61.166-23.256C60.962-23.6,60.792-23.8,60.418-23.8ZM51.68-8.33l6.29-9.826h.442L64.668-8.33ZM74.154-19.142h11.9v18.6A.5.5,0,0,0,86.6,0h4.148a.476.476,0,0,0,.51-.544v-18.6H103.19a.5.5,0,0,0,.544-.544v-3.57a.5.5,0,0,0-.544-.544H74.154a.5.5,0,0,0-.544.544v3.57A.5.5,0,0,0,74.154-19.142ZM108.018,0h4.25a.476.476,0,0,0,.51-.544V-23.256a.476.476,0,0,0-.51-.544h-4.25a.5.5,0,0,0-.544.544V-.544A.5.5,0,0,0,108.018,0Zm15.334.136h18.054c4.216,0,6.324-2.346,6.324-6.222V-17.714c0-3.876-2.108-6.222-6.324-6.222H123.352c-4.216,0-6.324,2.346-6.324,6.222V-6.086C117.028-2.21,119.136.136,123.352.136Zm-1.02-6.6V-17.34c0-1.462.918-1.938,2.244-1.938h15.606c1.326,0,2.244.476,2.244,1.938V-6.46c0,1.462-.918,1.938-2.244,1.938H124.576C123.25-4.522,122.332-5,122.332-6.46ZM152.524,0h4.25a.476.476,0,0,0,.51-.544v-17h.476L175.848-.408c.306.272.442.408.782.408h4.964a.5.5,0,0,0,.544-.544V-23.256a.5.5,0,0,0-.544-.544h-4.25a.5.5,0,0,0-.544.544v17h-.442L158.236-23.392c-.306-.272-.442-.408-.748-.408h-4.964a.5.5,0,0,0-.544.544V-.544A.5.5,0,0,0,152.524,0Zm53.72,0h4.386c.34,0,.544-.2.748-.544L222.53-18.462,233.682-.544c.2.34.374.544.748.544h4.352a.873.873,0,0,0,.782-.544L252.45-23.086c.238-.442.034-.714-.306-.714h-4.9c-.408,0-.612.238-.782.612L236.776-6.12h-.442l-10.71-17.068c-.238-.374-.408-.612-.782-.612h-4.624c-.408,0-.544.238-.782.612L208.726-6.12h-.442l-9.69-17.068a.859.859,0,0,0-.782-.612h-4.93c-.34,0-.51.272-.272.714L205.5-.544C205.7-.2,205.9,0,206.244,0Zm61.574-23.8H263.33c-.34,0-.544.2-.748.544L248.03-.714c-.306.442-.068.714.272.714h5.032c.408,0,.578-.238.816-.612l2.04-3.2h18.768L277-.612c.238.374.442.612.816.612h5.032c.34,0,.578-.272.272-.714L268.566-23.256C268.362-23.6,268.192-23.8,267.818-23.8ZM259.08-8.33l6.29-9.826h.442l6.256,9.826ZM292.74.136h16.082c4.964,0,7.412-1.9,7.412-6.732,0-4.148-2.074-6.766-7.276-7.038l-15.266-.816c-2.346-.068-2.55-1.428-2.55-2.618,0-1.564.85-2.21,2.448-2.21h14.722a1.98,1.98,0,0,1,2.176,1.462.86.86,0,0,0,.952.782h3.4c.578,0,.85-.272.85-.782,0-3.91-1.938-6.12-6.8-6.12H293.352c-4.964,0-7.412,1.9-7.412,6.7,0,4.182,2.074,6.8,7.276,7.072l15.266.816c2.346.068,2.55,1.428,2.55,2.618,0,1.564-.85,2.21-2.448,2.21H293.318a2.012,2.012,0,0,1-2.176-1.462.88.88,0,0,0-.952-.782h-3.4c-.578,0-.85.272-.85.782C285.94-2.074,287.878.136,292.74.136ZM327.794,0h22.27c5.032,0,7.208-2.414,7.208-6.528V-7.956a4.2,4.2,0,0,0-3.094-4.148v-.442c1.632-.816,2.244-2.346,2.244-4.522v-.612c0-4.216-2.04-6.12-6.562-6.12H327.794a.451.451,0,0,0-.51.51V-.51A.451.451,0,0,0,327.794,0Zm4.794-4.658V-10.03h17.1c1.6,0,2.38.578,2.38,2.074V-6.7c0,1.564-.782,2.04-2.38,2.04Zm0-9.588v-4.9H349.18c1.122,0,2.04.034,2.04,2.074v.714c0,1.938-.918,2.108-2.074,2.108ZM367.506.136H385.56c4.216,0,6.324-2.346,6.324-6.222V-17.714c0-3.876-2.108-6.222-6.324-6.222H367.506c-4.216,0-6.324,2.346-6.324,6.222V-6.086C361.182-2.21,363.29.136,367.506.136Zm-1.02-6.6V-17.34c0-1.462.918-1.938,2.244-1.938h15.606c1.326,0,2.244.476,2.244,1.938V-6.46c0,1.462-.918,1.938-2.244,1.938H368.73C367.4-4.522,366.486-5,366.486-6.46ZM396.678,0h4.25a.476.476,0,0,0,.51-.544V-6.188H416.16l3.808,5.61A1.089,1.089,0,0,0,420.92,0h3.842c.578,0,.986-.408.646-.884l-3.774-5.678c2.38-.816,3.434-2.89,3.434-5.848v-5.168c0-3.876-1.836-6.222-6.052-6.222H396.678a.5.5,0,0,0-.544.544V-.544A.5.5,0,0,0,396.678,0Zm4.76-10.846v-8.3h16.354c1.326,0,1.972.476,1.972,1.938v4.42c0,1.428-.646,1.938-1.972,1.938ZM430.3,0h4.25a.476.476,0,0,0,.51-.544v-17h.476L453.628-.408c.306.272.442.408.782.408h4.964a.5.5,0,0,0,.544-.544V-23.256a.5.5,0,0,0-.544-.544h-4.25a.5.5,0,0,0-.544.544v17h-.442L436.016-23.392c-.306-.272-.442-.408-.748-.408H430.3a.5.5,0,0,0-.544.544V-.544A.5.5,0,0,0,430.3,0Z" transform="translate(460.598 23.936)" fill="#dcb533" opacity="0.42"/></svg>