<svg xmlns="http://www.w3.org/2000/svg" width="232.587" height="232.587" viewBox="0 0 232.587 232.587"><path d="M157.178,0A74.627,74.627,0,0,0,110.4,16.255,75.866,75.866,0,0,0,84.676,54.621a89.037,89.037,0,1,0,93.29,93.29,75.862,75.862,0,0,0,38.365-25.728,74.626,74.626,0,0,0,16.255-46.774A75.494,75.494,0,0,0,157.178,0ZM89.037,225.773a82.223,82.223,0,1,1,82.223-82.223A82.316,82.316,0,0,1,89.037,225.773Zm88.99-84.992A89.145,89.145,0,0,0,91.805,54.56a68.608,68.608,0,1,1,86.222,86.222Z" fill="#dcb533"/><path d="M78.69,16.406A75.409,75.409,0,1,0,154.1,91.816,75.5,75.5,0,0,0,78.69,16.406Zm0,144a68.595,68.595,0,1,1,68.595-68.595A68.672,68.672,0,0,1,78.69,160.41Z" transform="translate(10.347 51.734)" fill="#dcb533"/><path d="M26.632,22.653a3.407,3.407,0,1,0-6.751.925A75.534,75.534,0,0,0,84.268,87.964a3.484,3.484,0,0,0,.466.032,3.407,3.407,0,0,0,.458-6.782A68.7,68.7,0,0,1,26.632,22.653Z" transform="translate(62.591 62.148)" fill="#dcb533"/></svg>