<svg xmlns="http://www.w3.org/2000/svg" xmlns:xlink="http://www.w3.org/1999/xlink" width="22.341" height="18.156" viewBox="0 0 22.341 18.156"><defs><linearGradient id="a" x1="0.92" y1="0.049" x2="0.111" y2="0.953" gradientUnits="objectBoundingBox"><stop offset="0" stop-color="#dcb533"/><stop offset="1" stop-color="#bc892d"/></linearGradient></defs><path d="M20.058,7.907c.015.2.015.4.015.6A12.947,12.947,0,0,1,7.039,21.536,12.948,12.948,0,0,1,.01,19.486a9.478,9.478,0,0,0,1.107.057,9.178,9.178,0,0,0,5.675-1.964A4.59,4.59,0,0,1,2.507,14.4a5.779,5.779,0,0,0,.865.07,4.846,4.846,0,0,0,1.205-.157A4.582,4.582,0,0,1,.9,9.82V9.765a4.614,4.614,0,0,0,2.071.586A4.588,4.588,0,0,1,1.555,4.222,13.023,13.023,0,0,0,11,9.012a5.173,5.173,0,0,1-.113-1.05,4.587,4.587,0,0,1,7.93-3.135A9.021,9.021,0,0,0,21.729,3.72a4.569,4.569,0,0,1-2.014,2.525,9.185,9.185,0,0,0,2.636-.709A9.85,9.85,0,0,1,20.058,7.907Z" transform="translate(-0.01 -3.38)" fill="url(#a)"/></svg>