<svg xmlns="http://www.w3.org/2000/svg" width="231.743" height="18.903" viewBox="0 0 231.743 18.903"><path d="M13.67-4.9h2.754c.27,0,.405-.162.567-.432L28.658-23.287c.216-.324.027-.513-.243-.513H25.471c-.3,0-.432.162-.621.459L15.21-8.381h-.324l-9.64-14.96c-.189-.3-.324-.459-.621-.459H1.681c-.27,0-.459.189-.243.513L13.1-5.329C13.265-5.059,13.4-4.9,13.67-4.9Zm18.309,0h2.484a.358.358,0,0,0,.405-.405V-23.395a.358.358,0,0,0-.405-.405H31.979a.358.358,0,0,0-.405.405V-5.3A.358.358,0,0,0,31.979-4.9Zm6.8,0h2.484a.358.358,0,0,0,.405-.405V-8.948H56.2c3.348,0,4.861-1.755,4.861-4.888v-5.077c0-3.132-1.512-4.888-4.861-4.888H38.784a.358.358,0,0,0-.405.405V-5.3A.358.358,0,0,0,38.784-4.9Zm2.889-6.967v-9.019H55.5c1.566,0,2.268.621,2.268,2.241v4.537c0,1.62-.7,2.241-2.268,2.241ZM70.243-4.9h2.484a.358.358,0,0,0,.405-.405V-19.533h.27L82.152-5.3a.658.658,0,0,0,.594.405h2.268a.658.658,0,0,0,.594-.405l8.749-14.231h.27V-5.3a.358.358,0,0,0,.405.405h2.484a.358.358,0,0,0,.405-.405V-23.395a.358.358,0,0,0-.405-.405H93.71c-.27,0-.405.135-.567.405l-9.1,14.771h-.324l-9.1-14.771c-.162-.27-.3-.405-.567-.405H70.243a.358.358,0,0,0-.405.405V-5.3A.358.358,0,0,0,70.243-4.9Zm31.594,0h21.2a.358.358,0,0,0,.405-.405V-7.409a.358.358,0,0,0-.405-.405H104.727V-12.89h17.9a.358.358,0,0,0,.405-.405V-15.4a.358.358,0,0,0-.405-.405h-17.9v-5.077H122.9a.358.358,0,0,0,.405-.405v-2.106a.358.358,0,0,0-.405-.405H101.838a.358.358,0,0,0-.405.405V-5.3A.358.358,0,0,0,101.838-4.9Zm25.249,0h2.484a.358.358,0,0,0,.405-.405V-19.533h.27L138.995-5.3a.658.658,0,0,0,.594.405h2.268a.658.658,0,0,0,.594-.405L151.2-19.533h.27V-5.3a.358.358,0,0,0,.405.405h2.484a.358.358,0,0,0,.405-.405V-23.395a.358.358,0,0,0-.405-.405h-3.808c-.27,0-.405.135-.567.405l-9.1,14.771h-.324l-9.1-14.771c-.162-.27-.3-.405-.567-.405h-3.808a.358.358,0,0,0-.405.405V-5.3A.358.358,0,0,0,127.086-4.9Zm31.594,0h17.363c3.781,0,5.59-1.674,5.59-5.077v-.972a3.5,3.5,0,0,0-2.43-3.619v-.324c1.269-.648,1.755-1.863,1.755-3.592v-.513c0-3.321-1.566-4.807-5-4.807H158.681a.358.358,0,0,0-.405.405V-5.3A.358.358,0,0,0,158.681-4.9Zm2.889-2.916v-5.428h14.258c1.7,0,2.565.513,2.565,2.3v.891c0,1.782-.864,2.241-2.565,2.241Zm0-8.074v-5h13.988c1.35,0,2.16.3,2.16,2.214v.567c0,1.809-.81,2.214-2.16,2.214ZM185.279-4.9h21.2a.358.358,0,0,0,.405-.405V-7.409a.358.358,0,0,0-.405-.405H188.169V-12.89h17.9a.358.358,0,0,0,.405-.405V-15.4a.358.358,0,0,0-.405-.405h-17.9v-5.077h18.174a.358.358,0,0,0,.405-.405v-2.106a.358.358,0,0,0-.405-.405H185.279a.358.358,0,0,0-.405.405V-5.3A.358.358,0,0,0,185.279-4.9Zm25.249,0h2.484a.358.358,0,0,0,.405-.405v-4.726h13.016L229.62-5.3a.732.732,0,0,0,.648.405h2.3c.405,0,.675-.27.432-.621l-3.132-4.753c2-.567,2.943-2.187,2.943-4.645v-4c0-3.132-1.512-4.888-4.861-4.888H210.528a.358.358,0,0,0-.405.405V-5.3A.358.358,0,0,0,210.528-4.9Zm2.889-8.047v-7.939h13.826c1.566,0,2.268.621,2.268,2.241v3.456c0,1.62-.7,2.241-2.268,2.241Z" transform="translate(-1.344 23.8)" fill="#dcb533"/></svg>