<svg xmlns="http://www.w3.org/2000/svg" width="435.448" height="24.071" viewBox="0 0 435.448 24.071"><g transform="translate(-2699.012 355.935)"><g transform="translate(7837 -9378.932)"><path d="M1.688,11.463H4.851a.456.456,0,0,0,.514-.516v-18.7h.379L25.851,11.084c.275.241.412.379.722.379H30.56a.456.456,0,0,0,.516-.516V-12.081a.456.456,0,0,0-.129-.387.456.456,0,0,0-.387-.129H27.4a.456.456,0,0,0-.387.129.456.456,0,0,0-.129.387v18.7H26.5L6.4-12.218c-.275-.241-.412-.379-.722-.379H1.688a.456.456,0,0,0-.387.129.456.456,0,0,0-.129.387V10.947a.456.456,0,0,0,.516.516Zm35.235,0h3.162a.456.456,0,0,0,.516-.516V.841H63.383A.456.456,0,0,0,63.9.325v-2.68a.456.456,0,0,0-.129-.387.456.456,0,0,0-.387-.129H40.6V-8.885H63.727a.456.456,0,0,0,.387-.129.456.456,0,0,0,.129-.387v-2.681a.456.456,0,0,0-.129-.387.456.456,0,0,0-.387-.129H36.918a.456.456,0,0,0-.387.129.456.456,0,0,0-.129.387v23.03a.456.456,0,0,0,.516.516ZM69.053-8.885H81.6V10.947a.456.456,0,0,0,.516.516H85.21a.456.456,0,0,0,.516-.516V-8.885H98.27a.456.456,0,0,0,.387-.129.456.456,0,0,0,.129-.387v-2.681a.456.456,0,0,0-.129-.387.456.456,0,0,0-.387-.129H69.053a.456.456,0,0,0-.387.129.456.456,0,0,0-.129.387V-9.4a.456.456,0,0,0,.129.387.456.456,0,0,0,.387.129Z" transform="translate(-4801.331 9035.6)" fill="#dcb533"/><g transform="translate(-5001 9023.003)"><path d="M1851.13,30.414l-3.589-4.311a.772.772,0,0,1-.069-.111c.046-.086.115-.062.176-.063h37.094c.121-.118.081-.247.083-.363V21.76c0-.1-.01-.192-.016-.3a1.873,1.873,0,0,0-.22-.035h-33.228a5.215,5.215,0,0,1-.881-.058,3.014,3.014,0,0,1-1.545-.786,4.577,4.577,0,0,1-1.5-2.97,8.663,8.663,0,0,1-.046-.916V12.483a5.778,5.778,0,0,1,.121-1.233,4.536,4.536,0,0,1,1.586-2.606,3.053,3.053,0,0,1,1.991-.717h36.965a1.61,1.61,0,0,1,.425.019.289.289,0,0,1-.009.088l-3.622,4.369c-.109,0-.206.016-.3.018h-32.87a1.521,1.521,0,0,0-.529.035,8.708,8.708,0,0,0-.022,1.09v2.232c0,.366-.012.728.012,1.115.086.011.153.025.222.028h33.227a5.588,5.588,0,0,1,.84.056,2.966,2.966,0,0,1,1.528.74,4.53,4.53,0,0,1,1.5,2.615,4.755,4.755,0,0,1,.092.87q.012,2.466,0,4.933a4.561,4.561,0,0,1-.648,2.333,4.458,4.458,0,0,1-.985,1.17,3.1,3.1,0,0,1-2.051.756h-33.748Z" transform="translate(-1706.328 -7.319)" fill="#dcb533"/><path d="M1287.38,8c-.176.291-3.369,4.152-3.712,4.5h-33.461a1.213,1.213,0,0,0-.176.032.536.536,0,0,0-.03.116v4.2a.556.556,0,0,0,.032.123c.067,0,.137.021.206.023h17.951a2.032,2.032,0,0,1,.418.014.178.178,0,0,1,.021.055.058.058,0,0,1-.014.033l-3.627,4.378h-14.469c-.153,0-.313,0-.488.009a1.293,1.293,0,0,0-.032.192V25.8a.956.956,0,0,0,.017.129,1.29,1.29,0,0,0,.2.041h37.1c.046.139-.055.2-.111.264q-.909,1.1-1.824,2.2l-1.423,1.725c-.086.1-.176.2-.268.312H1250.1a3.361,3.361,0,0,1-2.618-1.17,4.716,4.716,0,0,1-1.212-3V12.514a5.239,5.239,0,0,1,.372-2.035,4.545,4.545,0,0,1,1.145-1.633A3.147,3.147,0,0,1,1250.01,8Z" transform="translate(-1151.103 -7.383)" fill="#dcb533"/><path d="M690.586,21.409a5.636,5.636,0,0,0,.976.044h.951c.317,0,.655-.014,1.006.012.012.085.026.153.03.222V30.32c-.115.063-.139-.033-.176-.076q-1.009-1.207-2.015-2.417c-.453-.544-.9-1.092-1.362-1.628a.749.749,0,0,1-.189-.529V21.9a.987.987,0,0,0-.035-.409,1.383,1.383,0,0,0-.176-.028c-.849-.037-25.646-.011-25.953.028a1.387,1.387,0,0,0-.041.2v8.631c-.146.019-.176-.086-.241-.153q-.974-1.163-1.938-2.333c-.458-.553-.916-1.11-1.383-1.658a.7.7,0,0,1-.176-.5V21.527a.518.518,0,0,0-.374-.069h-2.819a1.745,1.745,0,0,0-.218,0,.541.541,0,0,1-.529-.24c-.668-.825-1.353-1.635-2.033-2.451l-1.263-1.519c-.058-.07-.143-.132-.148-.229.018-.025.023-.035.032-.041a.088.088,0,0,1,.035,0h37.187l.056-.018a.978.978,0,0,0,.039-.194V12.717a1.566,1.566,0,0,0-.023-.187,1.47,1.47,0,0,0-.185-.033H656.637a1.234,1.234,0,0,1-.5-.039,1.323,1.323,0,0,1-.352-.365q-1.57-1.885-3.134-3.772l-.188-.257c.044-.093.113-.069.176-.076H689.6a5.409,5.409,0,0,1,.8.048,3,3,0,0,1,1.561.751,4.554,4.554,0,0,1,1.517,2.725,5.938,5.938,0,0,1,.076.946v4.581a5.184,5.184,0,0,1-.229,1.549,4.564,4.564,0,0,1-1.249,1.993,3.776,3.776,0,0,1-1.487.83Z" transform="translate(-602.644 -7.353)" fill="#dcb533"/><path d="M0,23.987c.144-.1.248-.176.352-.245L6.519,19.8,37.173.251a1.627,1.627,0,0,0,.144-.1.84.84,0,0,1,.546-.166h6.709c.109,0,.217.011.336.016.014.088.032.157.037.229s0,.176,0,.257V23.532a2.083,2.083,0,0,1-.021.458c-.3.046-4.933.055-5.35.012a1.631,1.631,0,0,1-.035-.2V14.771c0-.144,0-.287-.011-.451-.118-.011-.211-.026-.3-.026l-3.516-.012-3.333-.011a3.24,3.24,0,0,1-.338-.014c.1-.1.148-.16.208-.21l3.2-2.681c.611-.509,1.221-1.015,1.822-1.527a.687.687,0,0,1,.5-.176c.451.012.9,0,1.355,0,.12,0,.241,0,.382-.011a1.217,1.217,0,0,0,.042-.217V3.318c-.1-.115-.2-.085-.3-.086A1.374,1.374,0,0,0,38.1,3.56L6.952,23.765a1.126,1.126,0,0,1-.916.266H.432A1.039,1.039,0,0,1,0,23.987Z" transform="translate(0 0.015)" fill="#dcb533"/></g></g><path d="M15.222-2.817h3.06a.451.451,0,0,0,.51-.51v-8.7L31.814-26.038c.34-.34.1-.578-.238-.578H27.9a1.281,1.281,0,0,0-.952.51L16.922-15.328h-.34L6.552-26.106a1.281,1.281,0,0,0-.952-.51H1.929c-.34,0-.578.238-.238.578L14.712-12.03v8.7A.451.451,0,0,0,15.222-2.817Zm25.431.136H58.673c4.216,0,6.29-2.21,6.29-6.154V-20.6c0-3.944-2.074-6.154-6.29-6.154H40.653c-4.216,0-6.29,2.21-6.29,6.154V-8.835C34.364-4.891,36.438-2.681,40.653-2.681ZM38.512-9.175V-20.258c0-2.04,1.054-2.822,3.026-2.822H57.789c1.972,0,3.026.782,3.026,2.822V-9.175c0,2.04-1.054,2.822-3.026,2.822H41.537C39.565-6.353,38.512-7.135,38.512-9.175ZM75.332-2.817H93.692c4.216,0,6.12-2.21,6.12-6.154V-26.106a.451.451,0,0,0-.51-.51H96.174a.451.451,0,0,0-.51.51v16.8c0,2.04-.884,2.822-2.856,2.822H76.216c-1.972,0-2.856-.782-2.856-2.822v-16.8a.451.451,0,0,0-.51-.51H69.723a.451.451,0,0,0-.51.51V-8.971C69.213-5.027,71.117-2.817,75.332-2.817Zm29.409,0h3.128a.451.451,0,0,0,.51-.51v-5.95h16.388l4.012,5.95a.922.922,0,0,0,.816.51h2.89c.51,0,.85-.34.544-.782l-3.944-5.984c2.516-.714,3.706-2.754,3.706-5.848v-5.032c0-3.944-1.9-6.154-6.12-6.154H104.742a.451.451,0,0,0-.51.51V-3.327A.451.451,0,0,0,104.742-2.817Zm3.638-10.132v-10h17.407c1.972,0,2.856.782,2.856,2.822v4.352c0,2.04-.884,2.822-2.856,2.822Z" transform="translate(2697.486 -329.183)" fill="#dcb533"/></g></svg>