<svg xmlns="http://www.w3.org/2000/svg" xmlns:xlink="http://www.w3.org/1999/xlink" width="25.808" height="18.156" viewBox="0 0 25.808 18.156"><defs><linearGradient id="a" x1="0.944" y1="0.064" x2="0.064" y2="0.903" gradientUnits="objectBoundingBox"><stop offset="0" stop-color="#dcb533"/><stop offset="1" stop-color="#bc892d"/></linearGradient></defs><path d="M26.318,7.341a3.243,3.243,0,0,0-2.281-2.3A76.633,76.633,0,0,0,13.953,4.5a76.633,76.633,0,0,0-10.083.543,3.243,3.243,0,0,0-2.281,2.3,34.016,34.016,0,0,0-.539,6.253,34.017,34.017,0,0,0,.539,6.251A3.2,3.2,0,0,0,3.871,22.1a76.634,76.634,0,0,0,10.083.543A76.631,76.631,0,0,0,24.036,22.1a3.2,3.2,0,0,0,2.281-2.259,34.016,34.016,0,0,0,.539-6.251,34.016,34.016,0,0,0-.539-6.253Zm-15,10.089V9.757l6.746,3.838Z" transform="translate(-1.05 -4.497)" fill="url(#a)"/></svg>