  <svg xmlns="http://www.w3.org/2000/svg" xmlns:xlink="http://www.w3.org/1999/xlink" width="232.842" height="206.68" viewBox="0 0 232.842 206.68">
                    <defs>
                        <linearGradient id="linear-gradient" y1="0.5" x2="1" y2="0.5" gradientUnits="objectBoundingBox">
                            <stop offset="0" stop-color="#edd32e" />
                            <stop offset="1" stop-color="#e4b300" />
                        </linearGradient>
                    </defs>
                    <g id="logo-preloader" transform="translate(8399.684 -7048.87)">
                        <g id="logo-preloader-fill" transform="translate(-8399 7049)">
                            <path
                                id="text"
                                d="M18.261,984.073a2.71,2.71,0,0,1-.42,1.775,2.021,2.021,0,0,1-1.529.458H11.629a2.021,2.021,0,0,1-1.529-.458,2.723,2.723,0,0,1-.42-1.775v-4.98a2.709,2.709,0,0,1,.42-1.775,2.041,2.041,0,0,1,1.529-.458h4.684q1.4,0,1.735.787a7.491,7.491,0,0,1,.214,2.344l-1.815.347v-1.793h-4.94v5.987h4.93V982.5l1.815.458Z"
                                transform="translate(-7.728 -779.819)"
                                fill="#e4b300"
                            />
                            <path
                                id="text-2"
                                data-name="text"
                                d="M126.524,984.073a2.72,2.72,0,0,1-.418,1.775,2.025,2.025,0,0,1-1.529.458H118.8a2.021,2.021,0,0,1-1.529-.458,2.725,2.725,0,0,1-.418-1.775v-4.98a2.719,2.719,0,0,1,.418-1.775,2.037,2.037,0,0,1,1.529-.458h5.781a2.033,2.033,0,0,1,1.529.458,2.708,2.708,0,0,1,.418,1.775Zm-1.825.458v-5.987h-6.023v5.987Z"
                                transform="translate(-93.28 -779.819)"
                                fill="#e4b300"
                            />
                            <path
                                id="text-3"
                                data-name="text"
                                d="M239.959,986.306h-2.622l-3.157-3.568h-1.735v3.57h-1.8V976.86h6.727q1.765,0,1.765,1.829v2.219q0,1.374-.912,1.7a7.868,7.868,0,0,1-1.888.127Zm-2.582-5.932V979.24c0-.319-.075-.524-.228-.623a1.007,1.007,0,0,0-.593-.127h-4.111v2.634h4.107a1.008,1.008,0,0,0,.593-.129C237.3,980.9,237.377,980.693,237.377,980.374Z"
                                transform="translate(-184.334 -779.819)"
                                fill="#e4b300"
                            />
                            <path
                                id="text-4"
                                data-name="text"
                                d="M346.384,980.8q0,1.83-1.765,1.832h-4.934v3.679h-1.8V976.86h6.723q1.765,0,1.765,1.829Zm-1.765-.549v-1.008c0-.319-.075-.525-.228-.623a1.008,1.008,0,0,0-.593-.127h-4.113v2.507h4.107a1.008,1.008,0,0,0,.593-.127c.153-.1.228-.3.228-.621Z"
                                transform="translate(-270.038 -779.819)"
                                fill="#e4b300"
                            />
                            <path
                                id="text-5"
                                data-name="text"
                                d="M449.524,984.073a2.719,2.719,0,0,1-.418,1.775,2.022,2.022,0,0,1-1.529.458H441.8a2.025,2.025,0,0,1-1.529-.458,2.712,2.712,0,0,1-.418-1.775v-4.98a2.719,2.719,0,0,1,.418-1.775,2.033,2.033,0,0,1,1.529-.458h5.781a2.029,2.029,0,0,1,1.529.458,2.707,2.707,0,0,1,.418,1.775Zm-1.826.458v-5.987h-6.023v5.987Z"
                                transform="translate(-351.526 -779.819)"
                                fill="#e4b300"
                            />
                            <path
                                id="text-6"
                                data-name="text"
                                d="M562.961,986.306h-2.622l-3.159-3.568h-1.735v3.57h-1.8V976.86h6.727q1.765,0,1.763,1.829v2.219q0,1.374-.912,1.7a7.854,7.854,0,0,1-1.886.127Zm-2.584-5.932V979.24a.693.693,0,0,0-.23-.623,1.008,1.008,0,0,0-.593-.127h-4.109v2.634h4.107a1.008,1.008,0,0,0,.593-.129Q560.377,980.852,560.377,980.374Z"
                                transform="translate(-442.473 -779.819)"
                                fill="#e4b300"
                            />
                            <path id="text-7" data-name="text" d="M661.349,986.306H659.3l-.944-2.068h-4.974l-.912,2.068H650.64l4.438-9.446h1.765Zm-3.758-3.77-1.688-3.847-1.749,3.847Z" transform="translate(-519.991 -779.819)" fill="#e4b300" />
                            <path id="text-8" data-name="text" d="M758.047,978.544h-3.631v7.762H752.6v-7.762H749V976.86h9.051Z" transform="translate(-598.596 -779.819)" fill="#e4b300" />
                            <path id="text-9" data-name="text" d="M853.555,986.306H851.74V976.86h1.815Z" transform="translate(-680.68 -779.819)" fill="#e4b300" />
                            <path
                                id="text-10"
                                data-name="text"
                                d="M936.256,984.073a2.719,2.719,0,0,1-.42,1.775,2.03,2.03,0,0,1-1.529.458h-5.781a2.016,2.016,0,0,1-1.527-.458,2.723,2.723,0,0,1-.42-1.775v-4.98a2.709,2.709,0,0,1,.42-1.775,2.037,2.037,0,0,1,1.527-.458h5.781a2.029,2.029,0,0,1,1.529.458,2.719,2.719,0,0,1,.42,1.775Zm-1.815.458v-5.987h-6.035v5.987Z"
                                transform="translate(-740.681 -779.819)"
                                fill="#e4b300"
                            />
                            <path id="text-11" data-name="text" d="M1049.542,986.306H1048.3l-5.765-5.85a6.274,6.274,0,0,1-.656-.769c.052.605.077,1.091.077,1.446V986.3h-1.642V976.86h1.246l5.523,5.565a9.688,9.688,0,0,1,.9,1.025c-.052-.877-.077-1.412-.077-1.628V976.86h1.642Z" transform="translate(-831.471 -779.819)" fill="#e4b300" />
                            <path id="title" d="M45.383,21.847v-5.46H13.621v10.92l-4.542-5.46v-5.46H4.544L0,10.927H45.383V5.467H4.544L0,0H45.383A4.061,4.061,0,0,1,48.6,1.608a5.838,5.838,0,0,1,1.329,3.859v5.46A5.815,5.815,0,0,1,48.6,14.786a4.033,4.033,0,0,1-3.206,1.6h4.531v10.92Z" transform="translate(60.075 162.666)" fill="#e4b300" />
                            <path
                                id="title-2"
                                data-name="title"
                                d="M617.869,811.906l4.538-5.466H577.031a4.022,4.022,0,0,0-3.207,1.614,5.816,5.816,0,0,0-1.331,3.859v16.381a5.85,5.85,0,0,0,1.331,3.861,4.022,4.022,0,0,0,3.207,1.6h40.838l4.546-5.466H577.031v-5.46h18.154l4.536-5.46h-22.69v-5.46Z"
                                transform="translate(-457.645 -643.774)"
                                fill="#e4b300"
                            />
                            <path
                                id="title-3"
                                data-name="title"
                                d="M893.63,817.367h-40.84v-5.46h40.84l4.538-5.466H852.784a4.025,4.025,0,0,0-3.207,1.614,5.815,5.815,0,0,0-1.331,3.859v5.46a5.849,5.849,0,0,0,1.331,3.861,4.022,4.022,0,0,0,3.207,1.6h40.84v5.46H848.24l4.538,5.46h40.84a4.039,4.039,0,0,0,3.209-1.6,5.833,5.833,0,0,0,1.329-3.861v-5.466a5.85,5.85,0,0,0-1.329-3.859A4.015,4.015,0,0,0,893.63,817.367Z"
                                transform="translate(-678.143 -643.774)"
                                fill="#e4b300"
                            />
                            <path id="title-4" data-name="title" d="M0,831.923H8.036l38.877-25.274h1.136v7.814H45.56L38.9,820.055l9.154.04v11.828H54.6V802.71H45.689Z" transform="translate(0 -640.796)" fill="#e4b300" />
                            <path
                                id="shape"
                                d="M355.089,121.673l-14.228-20.213,5.515-40.947.109-.807-.506-.605L295.271,0l47.373,60.775L337.98,95.408l-46-65.7-.892-1.388-.022-.034L246.83,93.552l-5.507-32.806L288.223.555,237.969,59.1l-.533.617.143.843,6.574,39.174-15.3,21.946-1.192,1.712,1.815.932,54.491,28.239-50.994-30.4L245.9,103.622,285.938,139l.161-4.611L274.162,123.8h0L249.68,102.064l18.45-27.11,1.228,17.607.016-.23,1.493-21.381h-.012l2.6-3.832,14.65-21.526,2.941,42.115.038-.557L294.006,45.3l16.625,23.634,1.458,2.074,1.5,21.559.016-.23L314.82,74.9l19.9,28.3L299.95,133.507c-.04-3.49-.087-7.292-.111-7.806q-.139-2.644-.325-5.281l-.2-2.636-.226-2.634-.022-.3-.2-.351-1.317-2.34c-.434-.783-.89-1.553-1.335-2.328s-.894-1.551-1.352-2.32l-1.374-2.31-1.517-2.56-.127-.216-1.533,2.838-1.251,2.318c-.413.771-.817,1.539-1.22,2.326s-.823,1.549-1.21,2.334l-1.21,2.344-.169.329-.032.258-.226,2.622c-.073.877-.133,1.755-.2,2.632q-.192,2.622-.323,5.273c-.034.674-.062,4.1-.089,7.155l1.716,1.523c.2-3.389,1.241-11.865,1.547-13.6.149-.869.307-1.735.448-2.6l.365-2.237,1.2-2.037c.448-.756.871-1.525,1.307-2.287.343-.605.682-1.194,1.009-1.8l.018-.032q.571.94,1.158,1.876c.474.758.938,1.523,1.424,2.275l1.285,2.017.359,2.207.448,2.606c.309,1.735,1.71,14.926,1.934,18.47l1.4-.922,38.641-33.669,12.326,17.514-50.97,30.391,54.491-28.239,1.815-.938Z"
                                transform="translate(-182.18)"
                                fill="url(#linear-gradient)"
                            />
                            <path id="shape-2" data-name="shape" d="M1111.182,810.211a4.571,4.571,0,1,0,0,3.559,4.609,4.609,0,0,0,0-3.568ZM1106.959,816a4.008,4.008,0,1,1,4.013-4.006A4.008,4.008,0,0,1,1106.959,816Z" transform="translate(-879.542 -644.869)" fill="#e4b300" />
                            <path
                                id="shape-3"
                                data-name="shape"
                                d="M1118.438,819.361a1.9,1.9,0,0,0-.524-.734,1.39,1.39,0,0,0,.752-1.29,1.338,1.338,0,0,0-.576-1.13,2.525,2.525,0,0,0-1.5-.407,7.877,7.877,0,0,0-1.4.142l-.079.014v5.226h.879v-2.235h.759c.635,0,1.048.725,1.234,2.151v.084h.87l-.016-.111A7.62,7.62,0,0,0,1118.438,819.361Zm-.881-1.378a1.428,1.428,0,0,1-.852.208h-.716v-1.582c.167-.016.371-.023.61-.023.829,0,1.231.26,1.231.8a.7.7,0,0,1-.273.6Z"
                                transform="translate(-889.303 -651.359)"
                                fill="#e4b300"
                            />
                        </g>
                        <g id="logo-preloader-stroke" transform="translate(-8399.5 7049)">
                            <path
                                id="text"
                                data-name="text"
                                d="M18.234,984.051a2.7,2.7,0,0,1-.418,1.77,2.015,2.015,0,0,1-1.524.456H11.622a2.015,2.015,0,0,1-1.524-.456,2.714,2.714,0,0,1-.418-1.77v-4.965a2.7,2.7,0,0,1,.418-1.77,2.035,2.035,0,0,1,1.524-.456h4.669q1.4,0,1.729.784a7.468,7.468,0,0,1,.213,2.337l-1.81.346v-1.788H11.5v5.968h4.914V982.48l1.81.456Z"
                                transform="translate(-7.18 -779.928)"
                                fill="none"
                                stroke="#dcb533"
                                stroke-width="0.4"
                            />
                            <path
                                id="text"
                                data-name="text"
                                d="M126.494,984.051a2.711,2.711,0,0,1-.416,1.77,2.018,2.018,0,0,1-1.524.456H118.79a2.015,2.015,0,0,1-1.524-.456,2.716,2.716,0,0,1-.416-1.77v-4.965a2.711,2.711,0,0,1,.416-1.77,2.03,2.03,0,0,1,1.524-.456h5.763a2.026,2.026,0,0,1,1.524.456,2.7,2.7,0,0,1,.416,1.77Zm-1.82.456v-5.968h-6v5.968Z"
                                transform="translate(-92.85 -779.928)"
                                fill="none"
                                stroke="#dcb533"
                                stroke-width="0.4"
                            />
                            <path
                                id="text"
                                data-name="text"
                                d="M239.93,986.277h-2.614l-3.147-3.557H232.44v3.559h-1.79V976.86h6.706q1.759,0,1.759,1.824V980.9q0,1.369-.909,1.7a7.842,7.842,0,0,1-1.882.127Zm-2.574-5.914v-1.13c0-.318-.074-.523-.227-.621a1,1,0,0,0-.591-.127h-4.1v2.626h4.094a1,1,0,0,0,.591-.129C237.278,980.888,237.356,980.681,237.356,980.363Z"
                                transform="translate(-183.65 -779.928)"
                                fill="none"
                                stroke="#dcb533"
                                stroke-width="0.4"
                            />
                            <path
                                id="text"
                                data-name="text"
                                d="M346.358,980.783q0,1.824-1.759,1.826H339.68v3.668h-1.79V976.86h6.7q1.76,0,1.76,1.824Zm-1.759-.547v-1.005c0-.318-.074-.523-.227-.621a1,1,0,0,0-.591-.127h-4.1v2.5h4.094a1.006,1.006,0,0,0,.591-.127c.153-.1.227-.3.227-.619Z"
                                transform="translate(-269.389 -779.928)"
                                fill="none"
                                stroke="#dcb533"
                                stroke-width="0.4"
                            />
                            <path
                                id="text"
                                data-name="text"
                                d="M449.494,984.051a2.711,2.711,0,0,1-.416,1.77,2.015,2.015,0,0,1-1.524.456H441.79a2.018,2.018,0,0,1-1.524-.456,2.7,2.7,0,0,1-.416-1.77v-4.965a2.711,2.711,0,0,1,.416-1.77,2.026,2.026,0,0,1,1.524-.456h5.763a2.023,2.023,0,0,1,1.524.456,2.7,2.7,0,0,1,.416,1.77Zm-1.82.456v-5.968h-6v5.968Z"
                                transform="translate(-350.85 -779.928)"
                                fill="none"
                                stroke="#dcb533"
                                stroke-width="0.4"
                            />
                            <path
                                id="text"
                                data-name="text"
                                d="M562.932,986.277h-2.614l-3.149-3.557H555.44v3.559h-1.79V976.86h6.706q1.759,0,1.757,1.824V980.9q0,1.369-.909,1.7a7.828,7.828,0,0,1-1.88.127Zm-2.576-5.914v-1.13a.691.691,0,0,0-.229-.621,1,1,0,0,0-.591-.127h-4.1v2.626h4.094a1,1,0,0,0,.591-.129Q560.356,980.839,560.356,980.363Z"
                                transform="translate(-442.15 -779.928)"
                                fill="none"
                                stroke="#dcb533"
                                stroke-width="0.4"
                            />
                            <path id="text" data-name="text" d="M661.315,986.277h-2.047l-.941-2.061h-4.959l-.909,2.061h-1.82l4.424-9.417h1.759Zm-3.746-3.758-1.683-3.835-1.743,3.835Z" transform="translate(-519.34 -779.928)" fill="none" stroke="#dcb533" stroke-width="0.4" />
                            <path id="text" data-name="text" d="M758.018,978.539H754.4v7.738h-1.81v-7.738H749V976.86h9.022Z" transform="translate(-598.09 -779.928)" fill="none" stroke="#dcb533" stroke-width="0.4" />
                            <path id="text" data-name="text" d="M853.55,986.277h-1.81V976.86h1.81Z" transform="translate(-680.24 -779.928)" fill="none" stroke="#dcb533" stroke-width="0.4" />
                            <path
                                id="text"
                                data-name="text"
                                d="M936.226,984.051a2.71,2.71,0,0,1-.418,1.77,2.023,2.023,0,0,1-1.524.456H928.52A2.01,2.01,0,0,1,927,985.82a2.714,2.714,0,0,1-.418-1.77v-4.965a2.7,2.7,0,0,1,.418-1.77,2.031,2.031,0,0,1,1.522-.456h5.763a2.023,2.023,0,0,1,1.524.456,2.71,2.71,0,0,1,.418,1.77Zm-1.81.456v-5.968H928.4v5.968Z"
                                transform="translate(-740.261 -779.928)"
                                fill="none"
                                stroke="#dcb533"
                                stroke-width="0.4"
                            />
                            <path
                                id="text"
                                data-name="text"
                                d="M1049.513,986.277h-1.243l-5.747-5.831a6.255,6.255,0,0,1-.654-.766c.052.6.076,1.088.076,1.442v5.146h-1.637V976.86h1.242l5.506,5.548a9.66,9.66,0,0,1,.895,1.021c-.052-.875-.076-1.407-.076-1.623V976.86h1.637Z"
                                transform="translate(-831.122 -779.928)"
                                fill="none"
                                stroke="#dcb533"
                                stroke-width="0.4"
                            />
                            <path
                                id="title"
                                data-name="title"
                                d="M45.242,21.779V16.336H13.579V27.222L9.052,21.779V16.336H4.53L0,10.893H45.242V5.45H4.53L0,0H45.242a4.049,4.049,0,0,1,3.206,1.6A5.822,5.822,0,0,1,49.773,5.45v5.443a5.8,5.8,0,0,1-1.328,3.847,4.021,4.021,0,0,1-3.2,1.6h4.518V27.222Z"
                                transform="translate(60.5 162.663)"
                                fill="none"
                                stroke="#dcb533"
                                stroke-width="0.4"
                            />
                            <path
                                id="title"
                                data-name="title"
                                d="M617.728,811.889l4.524-5.449H577.016a4.009,4.009,0,0,0-3.2,1.609,5.8,5.8,0,0,0-1.327,3.847v16.33a5.831,5.831,0,0,0,1.327,3.849,4.01,4.01,0,0,0,3.2,1.595h40.711l4.532-5.449H577.016v-5.443h18.1l4.522-5.443h-22.62v-5.443Z"
                                transform="translate(-457.372 -643.777)"
                                fill="none"
                                stroke="#dcb533"
                                stroke-width="0.4"
                            />
                            <path
                                id="title"
                                data-name="title"
                                d="M893.489,817.333H852.776v-5.443h40.713l4.524-5.449H852.77a4.013,4.013,0,0,0-3.2,1.609,5.8,5.8,0,0,0-1.327,3.847v5.443a5.831,5.831,0,0,0,1.327,3.849,4.01,4.01,0,0,0,3.2,1.595h40.713v5.443H848.24l4.524,5.443h40.713a4.027,4.027,0,0,0,3.2-1.595A5.815,5.815,0,0,0,898,828.225v-5.449a5.832,5.832,0,0,0-1.325-3.847A4,4,0,0,0,893.489,817.333Z"
                                transform="translate(-677.674 -643.777)"
                                fill="none"
                                stroke="#dcb533"
                                stroke-width="0.4"
                            />
                            <path id="title" data-name="title" d="M0,831.833H8.011l38.757-25.2H47.9v7.79H45.418L38.775,820l9.125.04v11.791h6.531V802.71H45.547Z" transform="translate(0.5 -640.796)" fill="none" stroke="#dcb533" stroke-width="0.4" />
                            <path
                                id="shape"
                                data-name="shape"
                                d="M355.089,121.673l-14.228-20.213,5.515-40.947.109-.807-.506-.605L295.271,0l47.373,60.775L337.98,95.408l-46-65.7-.892-1.388-.022-.034L246.83,93.552l-5.507-32.806L288.223.555,237.969,59.1l-.533.617.143.843,6.574,39.174-15.3,21.946-1.192,1.712,1.815.932,54.491,28.239-50.994-30.4L245.9,103.622,285.938,139l.161-4.611L274.162,123.8h0L249.68,102.064l18.45-27.11,1.228,17.607.016-.23,1.493-21.381h-.012l2.6-3.832,14.65-21.526,2.941,42.115.038-.557L294.006,45.3l16.625,23.634,1.458,2.074,1.5,21.559.016-.23L314.82,74.9l19.9,28.3L299.95,133.507c-.04-3.49-.087-7.292-.111-7.806q-.139-2.644-.325-5.281l-.2-2.636-.226-2.634-.022-.3-.2-.351-1.317-2.34c-.434-.783-.89-1.553-1.335-2.328s-.894-1.551-1.352-2.32l-1.374-2.31-1.517-2.56-.127-.216-1.533,2.838-1.251,2.318c-.413.771-.817,1.539-1.22,2.326s-.823,1.549-1.21,2.334l-1.21,2.344-.169.329-.032.258-.226,2.622c-.073.877-.133,1.755-.2,2.632q-.192,2.622-.323,5.273c-.034.674-.062,4.1-.089,7.155l1.716,1.523c.2-3.389,1.241-11.865,1.547-13.6.149-.869.307-1.735.448-2.6l.365-2.237,1.2-2.037c.448-.756.871-1.525,1.307-2.287.343-.605.682-1.194,1.009-1.8l.018-.032q.571.94,1.158,1.876c.474.758.938,1.523,1.424,2.275l1.285,2.017.359,2.207.448,2.606c.309,1.735,1.71,14.926,1.934,18.47l1.4-.922,38.641-33.669,12.326,17.514-50.97,30.391,54.491-28.239,1.815-.938Z"
                                transform="translate(-181.739)"
                                fill="none"
                                stroke="#dcb533"
                                stroke-width="0.4"
                            />
                            <path id="shape" data-name="shape" d="M1111.182,810.211a4.571,4.571,0,1,0,0,3.559,4.609,4.609,0,0,0,0-3.568ZM1106.959,816a4.008,4.008,0,1,1,4.013-4.006A4.008,4.008,0,0,1,1106.959,816Z" transform="translate(-878.999 -644.852)" fill="none" stroke="#dcb533" stroke-width="0.2" />
                            <path
                                id="shape"
                                data-name="shape"
                                d="M1118.438,819.361a1.9,1.9,0,0,0-.524-.734,1.39,1.39,0,0,0,.752-1.29,1.338,1.338,0,0,0-.576-1.13,2.525,2.525,0,0,0-1.5-.407,7.877,7.877,0,0,0-1.4.142l-.079.014v5.226h.879v-2.235h.759c.635,0,1.048.725,1.234,2.151v.084h.87l-.016-.111A7.62,7.62,0,0,0,1118.438,819.361Zm-.881-1.378a1.428,1.428,0,0,1-.852.208h-.716v-1.582c.167-.016.371-.023.61-.023.829,0,1.231.26,1.231.8a.7.7,0,0,1-.273.6Z"
                                transform="translate(-888.761 -651.342)"
                                fill="none"
                                stroke="#dcb533"
                                stroke-width="0.2"
                            />
                        </g>
                    </g>
                </svg>